<?xml version="1.0" encoding="utf-8" standalone="no"?>
<!DOCTYPE svg PUBLIC "-//W3C//DTD SVG 1.1//EN"
  "http://www.w3.org/Graphics/SVG/1.1/DTD/svg11.dtd">
<svg xmlns:xlink="http://www.w3.org/1999/xlink" width="380.782875pt" height="100.752pt" viewBox="0 0 380.782875 100.752" xmlns="http://www.w3.org/2000/svg" version="1.1">
 <metadata>
  <rdf:RDF xmlns:dc="http://purl.org/dc/elements/1.1/" xmlns:cc="http://creativecommons.org/ns#" xmlns:rdf="http://www.w3.org/1999/02/22-rdf-syntax-ns#">
   <cc:Work>
    <dc:type rdf:resource="http://purl.org/dc/dcmitype/StillImage"/>
    <dc:date>2025-01-04T12:11:36.246311</dc:date>
    <dc:format>image/svg+xml</dc:format>
    <dc:creator>
     <cc:Agent>
      <dc:title>Matplotlib v3.10.0, https://matplotlib.org/</dc:title>
     </cc:Agent>
    </dc:creator>
   </cc:Work>
  </rdf:RDF>
 </metadata>
 <defs>
  <style type="text/css">*{stroke-linejoin: round; stroke-linecap: butt}</style>
 </defs>
 <g id="figure_1">
  <g id="patch_1">
   <path d="M 0 100.752 
L 380.782875 100.752 
L 380.782875 0 
L 0 0 
z
" style="fill: #ffffff"/>
  </g>
  <g id="axes_1">
   <g id="patch_2">
    <path d="M 23.662875 64.32 
L 35.566875 64.32 
L 35.566875 52.416 
L 23.662875 52.416 
z
" clip-path="url(#pb71d04e8d0)" style="fill: #add8e6; stroke: #000000; stroke-linejoin: miter"/>
   </g>
   <g id="patch_3">
    <path d="M 23.662875 52.416 
L 35.566875 52.416 
L 35.566875 40.512 
L 23.662875 40.512 
z
" clip-path="url(#pb71d04e8d0)" style="fill: #add8e6; stroke: #000000; stroke-linejoin: miter"/>
   </g>
   <g id="patch_4">
    <path d="M 35.566875 64.32 
L 83.182875 64.32 
L 83.182875 40.512 
L 35.566875 40.512 
z
" clip-path="url(#pb71d04e8d0)" style="fill: #add8e6; stroke: #000000; stroke-linejoin: miter"/>
   </g>
   <g id="patch_5">
    <path d="M 23.662875 40.512 
L 83.182875 40.512 
L 83.182875 28.608 
L 23.662875 28.608 
z
" clip-path="url(#pb71d04e8d0)" style="fill: #add8e6; stroke: #000000; stroke-linejoin: miter"/>
   </g>
   <g id="patch_6">
    <path d="M 83.182875 64.32 
L 190.318875 64.32 
L 190.318875 28.608 
L 83.182875 28.608 
z
" clip-path="url(#pb71d04e8d0)" style="fill: #add8e6; stroke: #000000; stroke-linejoin: miter"/>
   </g>
   <g id="patch_7">
    <path d="M 23.662875 28.608 
L 190.318875 28.608 
L 190.318875 16.704 
L 23.662875 16.704 
z
" clip-path="url(#pb71d04e8d0)" style="fill: #add8e6; stroke: #000000; stroke-linejoin: miter"/>
   </g>
   <g id="patch_8">
    <path d="M 190.318875 64.32 
L 380.782875 64.32 
L 380.782875 16.704 
L 190.318875 16.704 
z
" clip-path="url(#pb71d04e8d0)" style="fill: #add8e6; stroke: #000000; stroke-linejoin: miter"/>
   </g>
   <g id="patch_9">
    <path d="M 23.662875 16.704 
L 380.782875 16.704 
L 380.782875 4.8 
L 23.662875 4.8 
z
" clip-path="url(#pb71d04e8d0)" style="fill: #add8e6; stroke: #000000; stroke-linejoin: miter"/>
   </g>
   <g id="text_1">
    <!-- $1$ -->
    <g transform="translate(26.414875 61.127375) scale(0.1 -0.1)">
     <defs>
      <path id="DejaVuSans-31" d="M 794 531 
L 1825 531 
L 1825 4091 
L 703 3866 
L 703 4441 
L 1819 4666 
L 2450 4666 
L 2450 531 
L 3481 531 
L 3481 0 
L 794 0 
L 794 531 
z
" transform="scale(0.015625)"/>
     </defs>
     <use xlink:href="#DejaVuSans-31" transform="translate(0 0.09375)"/>
    </g>
   </g>
   <g id="text_2">
    <!-- 1 -->
    <g transform="translate(26.433625 49.223375) scale(0.1 -0.1)">
     <use xlink:href="#DejaVuSans-31"/>
    </g>
   </g>
   <g id="text_3">
    <!-- $2^3$ -->
    <g transform="translate(53.774875 55.175375) scale(0.1 -0.1)">
     <defs>
      <path id="DejaVuSans-32" d="M 1228 531 
L 3431 531 
L 3431 0 
L 469 0 
L 469 531 
Q 828 903 1448 1529 
Q 2069 2156 2228 2338 
Q 2531 2678 2651 2914 
Q 2772 3150 2772 3378 
Q 2772 3750 2511 3984 
Q 2250 4219 1831 4219 
Q 1534 4219 1204 4116 
Q 875 4013 500 3803 
L 500 4441 
Q 881 4594 1212 4672 
Q 1544 4750 1819 4750 
Q 2544 4750 2975 4387 
Q 3406 4025 3406 3419 
Q 3406 3131 3298 2873 
Q 3191 2616 2906 2266 
Q 2828 2175 2409 1742 
Q 1991 1309 1228 531 
z
" transform="scale(0.015625)"/>
      <path id="DejaVuSans-33" d="M 2597 2516 
Q 3050 2419 3304 2112 
Q 3559 1806 3559 1356 
Q 3559 666 3084 287 
Q 2609 -91 1734 -91 
Q 1441 -91 1130 -33 
Q 819 25 488 141 
L 488 750 
Q 750 597 1062 519 
Q 1375 441 1716 441 
Q 2309 441 2620 675 
Q 2931 909 2931 1356 
Q 2931 1769 2642 2001 
Q 2353 2234 1838 2234 
L 1294 2234 
L 1294 2753 
L 1863 2753 
Q 2328 2753 2575 2939 
Q 2822 3125 2822 3475 
Q 2822 3834 2567 4026 
Q 2313 4219 1838 4219 
Q 1578 4219 1281 4162 
Q 984 4106 628 3988 
L 628 4550 
Q 988 4650 1302 4700 
Q 1616 4750 1894 4750 
Q 2613 4750 3031 4423 
Q 3450 4097 3450 3541 
Q 3450 3153 3228 2886 
Q 3006 2619 2597 2516 
z
" transform="scale(0.015625)"/>
     </defs>
     <use xlink:href="#DejaVuSans-32" transform="translate(0 0.765625)"/>
     <use xlink:href="#DejaVuSans-33" transform="translate(64.580078 39.046875) scale(0.7)"/>
    </g>
   </g>
   <g id="text_4">
    <!-- 1+4 -->
    <g transform="translate(42.870531 37.319375) scale(0.1 -0.1)">
     <defs>
      <path id="DejaVuSans-2b" d="M 2944 4013 
L 2944 2272 
L 4684 2272 
L 4684 1741 
L 2944 1741 
L 2944 0 
L 2419 0 
L 2419 1741 
L 678 1741 
L 678 2272 
L 2419 2272 
L 2419 4013 
L 2944 4013 
z
" transform="scale(0.015625)"/>
      <path id="DejaVuSans-34" d="M 2419 4116 
L 825 1625 
L 2419 1625 
L 2419 4116 
z
M 2253 4666 
L 3047 4666 
L 3047 1625 
L 3713 1625 
L 3713 1100 
L 3047 1100 
L 3047 0 
L 2419 0 
L 2419 1100 
L 313 1100 
L 313 1709 
L 2253 4666 
z
" transform="scale(0.015625)"/>
     </defs>
     <use xlink:href="#DejaVuSans-31"/>
     <use xlink:href="#DejaVuSans-2b" transform="translate(63.623047 0)"/>
     <use xlink:href="#DejaVuSans-34" transform="translate(147.412109 0)"/>
    </g>
   </g>
   <g id="text_5">
    <!-- $3^3$ -->
    <g transform="translate(160.910875 49.223375) scale(0.1 -0.1)">
     <use xlink:href="#DejaVuSans-33" transform="translate(0 0.765625)"/>
     <use xlink:href="#DejaVuSans-33" transform="translate(64.580078 39.046875) scale(0.7)"/>
    </g>
   </g>
   <g id="text_6">
    <!-- 1+4+9 -->
    <g transform="translate(89.067438 25.415375) scale(0.1 -0.1)">
     <defs>
      <path id="DejaVuSans-39" d="M 703 97 
L 703 672 
Q 941 559 1184 500 
Q 1428 441 1663 441 
Q 2288 441 2617 861 
Q 2947 1281 2994 2138 
Q 2813 1869 2534 1725 
Q 2256 1581 1919 1581 
Q 1219 1581 811 2004 
Q 403 2428 403 3163 
Q 403 3881 828 4315 
Q 1253 4750 1959 4750 
Q 2769 4750 3195 4129 
Q 3622 3509 3622 2328 
Q 3622 1225 3098 567 
Q 2575 -91 1691 -91 
Q 1453 -91 1209 -44 
Q 966 3 703 97 
z
M 1959 2075 
Q 2384 2075 2632 2365 
Q 2881 2656 2881 3163 
Q 2881 3666 2632 3958 
Q 2384 4250 1959 4250 
Q 1534 4250 1286 3958 
Q 1038 3666 1038 3163 
Q 1038 2656 1286 2365 
Q 1534 2075 1959 2075 
z
" transform="scale(0.015625)"/>
     </defs>
     <use xlink:href="#DejaVuSans-31"/>
     <use xlink:href="#DejaVuSans-2b" transform="translate(63.623047 0)"/>
     <use xlink:href="#DejaVuSans-34" transform="translate(147.412109 0)"/>
     <use xlink:href="#DejaVuSans-2b" transform="translate(211.035156 0)"/>
     <use xlink:href="#DejaVuSans-39" transform="translate(294.824219 0)"/>
    </g>
   </g>
   <g id="text_7">
    <!-- $4^3$ -->
    <g transform="translate(279.950875 43.271375) scale(0.1 -0.1)">
     <use xlink:href="#DejaVuSans-34" transform="translate(0 0.765625)"/>
     <use xlink:href="#DejaVuSans-33" transform="translate(64.580078 39.046875) scale(0.7)"/>
    </g>
   </g>
   <g id="text_8">
    <!-- 1+4+9+16 -->
    <g transform="translate(173.747094 13.511375) scale(0.1 -0.1)">
     <defs>
      <path id="DejaVuSans-36" d="M 2113 2584 
Q 1688 2584 1439 2293 
Q 1191 2003 1191 1497 
Q 1191 994 1439 701 
Q 1688 409 2113 409 
Q 2538 409 2786 701 
Q 3034 994 3034 1497 
Q 3034 2003 2786 2293 
Q 2538 2584 2113 2584 
z
M 3366 4563 
L 3366 3988 
Q 3128 4100 2886 4159 
Q 2644 4219 2406 4219 
Q 1781 4219 1451 3797 
Q 1122 3375 1075 2522 
Q 1259 2794 1537 2939 
Q 1816 3084 2150 3084 
Q 2853 3084 3261 2657 
Q 3669 2231 3669 1497 
Q 3669 778 3244 343 
Q 2819 -91 2113 -91 
Q 1303 -91 875 529 
Q 447 1150 447 2328 
Q 447 3434 972 4092 
Q 1497 4750 2381 4750 
Q 2619 4750 2861 4703 
Q 3103 4656 3366 4563 
z
" transform="scale(0.015625)"/>
     </defs>
     <use xlink:href="#DejaVuSans-31"/>
     <use xlink:href="#DejaVuSans-2b" transform="translate(63.623047 0)"/>
     <use xlink:href="#DejaVuSans-34" transform="translate(147.412109 0)"/>
     <use xlink:href="#DejaVuSans-2b" transform="translate(211.035156 0)"/>
     <use xlink:href="#DejaVuSans-39" transform="translate(294.824219 0)"/>
     <use xlink:href="#DejaVuSans-2b" transform="translate(358.447266 0)"/>
     <use xlink:href="#DejaVuSans-31" transform="translate(442.236328 0)"/>
     <use xlink:href="#DejaVuSans-36" transform="translate(505.859375 0)"/>
    </g>
   </g>
   <g id="text_9">
    <!-- $\longleftarrow\sum_{i=1}^{n}{i^2}\longrightarrow$ -->
    <g transform="translate(166.342875 88.752) scale(0.12 -0.12)">
     <defs>
      <path id="DejaVuSans-27f5" d="M 313 1866 
L 313 2147 
L 1541 3375 
L 1916 3000 
L 1188 2272 
L 8809 2272 
L 8809 1741 
L 1188 1741 
L 1916 1013 
L 1541 638 
L 313 1866 
z
" transform="scale(0.015625)"/>
      <path id="DejaVuSans-Oblique-6e" d="M 3566 2113 
L 3156 0 
L 2578 0 
L 2988 2091 
Q 3016 2238 3031 2350 
Q 3047 2463 3047 2528 
Q 3047 2791 2881 2937 
Q 2716 3084 2419 3084 
Q 1956 3084 1622 2776 
Q 1288 2469 1184 1941 
L 800 0 
L 225 0 
L 903 3500 
L 1478 3500 
L 1363 2950 
Q 1603 3253 1940 3418 
Q 2278 3584 2650 3584 
Q 3113 3584 3367 3334 
Q 3622 3084 3622 2631 
Q 3622 2519 3608 2391 
Q 3594 2263 3566 2113 
z
" transform="scale(0.015625)"/>
      <path id="DejaVuSansDisplay-2211" d="M 244 6509 
L 5803 6509 
L 5803 5656 
L 1566 5656 
L 4534 2488 
L 1469 -888 
L 5919 -888 
L 5919 -1738 
L 109 -1738 
L 109 -1078 
L 3316 2463 
L 244 5728 
L 244 6509 
z
" transform="scale(0.015625)"/>
      <path id="DejaVuSans-Oblique-69" d="M 1172 4863 
L 1747 4863 
L 1606 4134 
L 1031 4134 
L 1172 4863 
z
M 909 3500 
L 1484 3500 
L 800 0 
L 225 0 
L 909 3500 
z
" transform="scale(0.015625)"/>
      <path id="DejaVuSans-3d" d="M 678 2906 
L 4684 2906 
L 4684 2381 
L 678 2381 
L 678 2906 
z
M 678 1631 
L 4684 1631 
L 4684 1100 
L 678 1100 
L 678 1631 
z
" transform="scale(0.015625)"/>
      <path id="DejaVuSans-27f6" d="M 8863 2147 
L 8863 1866 
L 7634 638 
L 7259 1013 
L 7988 1741 
L 366 1741 
L 366 2272 
L 7988 2272 
L 7259 3000 
L 7634 3375 
L 8863 2147 
z
" transform="scale(0.015625)"/>
     </defs>
     <use xlink:href="#DejaVuSans-27f5" transform="translate(19.482422 0.346875)"/>
     <use xlink:href="#DejaVuSans-Oblique-6e" transform="translate(235.324219 120.8) scale(0.7)"/>
     <use xlink:href="#DejaVuSansDisplay-2211" transform="translate(212.324219 0.346875)"/>
     <use xlink:href="#DejaVuSans-Oblique-69" transform="translate(182.324219 -98.748438) scale(0.7)"/>
     <use xlink:href="#DejaVuSans-3d" transform="translate(215.410156 -98.748438) scale(0.7)"/>
     <use xlink:href="#DejaVuSans-31" transform="translate(287.700195 -98.748438) scale(0.7)"/>
     <use xlink:href="#DejaVuSans-Oblique-69" transform="translate(332.236328 0.346875)"/>
     <use xlink:href="#DejaVuSans-32" transform="translate(367.46724 38.628125) scale(0.7)"/>
     <use xlink:href="#DejaVuSans-27f6" transform="translate(434.220169 0.346875)"/>
    </g>
   </g>
   <g id="text_10">
    <!-- $\longleftarrow\text{n+1}\longrightarrow$ -->
    <g transform="translate(9.118125 69.12) rotate(-90) scale(0.12 -0.12)">
     <defs>
      <path id="DejaVuSans-6e" d="M 3513 2113 
L 3513 0 
L 2938 0 
L 2938 2094 
Q 2938 2591 2744 2837 
Q 2550 3084 2163 3084 
Q 1697 3084 1428 2787 
Q 1159 2491 1159 1978 
L 1159 0 
L 581 0 
L 581 3500 
L 1159 3500 
L 1159 2956 
Q 1366 3272 1645 3428 
Q 1925 3584 2291 3584 
Q 2894 3584 3203 3211 
Q 3513 2838 3513 2113 
z
" transform="scale(0.015625)"/>
     </defs>
     <use xlink:href="#DejaVuSans-27f5" transform="translate(19.482422 0.09375)"/>
     <use xlink:href="#DejaVuSans-6e" transform="translate(182.324219 0.09375)"/>
     <use xlink:href="#DejaVuSans-2b" transform="translate(245.703125 0.09375)"/>
     <use xlink:href="#DejaVuSans-31" transform="translate(329.492188 0.09375)"/>
     <use xlink:href="#DejaVuSans-27f6" transform="translate(412.597656 0.09375)"/>
    </g>
   </g>
  </g>
 </g>
 <defs>
  <clipPath id="pb71d04e8d0">
   <rect x="23.662875" y="4.8" width="357.12" height="59.52"/>
  </clipPath>
 </defs>
</svg>
