<?xml version="1.0" encoding="utf-8" standalone="no"?>
<!DOCTYPE svg PUBLIC "-//W3C//DTD SVG 1.1//EN"
  "http://www.w3.org/Graphics/SVG/1.1/DTD/svg11.dtd">
<svg xmlns:xlink="http://www.w3.org/1999/xlink" width="460.8pt" height="345.6pt" viewBox="0 0 460.8 345.6" xmlns="http://www.w3.org/2000/svg" version="1.1">
 <metadata>
  <rdf:RDF xmlns:dc="http://purl.org/dc/elements/1.1/" xmlns:cc="http://creativecommons.org/ns#" xmlns:rdf="http://www.w3.org/1999/02/22-rdf-syntax-ns#">
   <cc:Work>
    <dc:type rdf:resource="http://purl.org/dc/dcmitype/StillImage"/>
    <dc:date>2025-01-04T12:11:36.157148</dc:date>
    <dc:format>image/svg+xml</dc:format>
    <dc:creator>
     <cc:Agent>
      <dc:title>Matplotlib v3.10.0, https://matplotlib.org/</dc:title>
     </cc:Agent>
    </dc:creator>
   </cc:Work>
  </rdf:RDF>
 </metadata>
 <defs>
  <style type="text/css">*{stroke-linejoin: round; stroke-linecap: butt}</style>
 </defs>
 <g id="figure_1">
  <g id="patch_1">
   <path d="M 0 345.6 
L 460.8 345.6 
L 460.8 0 
L 0 0 
z
" style="fill: #ffffff"/>
  </g>
  <g id="axes_1">
   <g id="FillBetweenPolyCollection_1">
    <defs>
     <path id="m590f34f9a5" d="M 123.574154 -263.187692 
L 123.574154 -58.486154 
L 124.08719 -58.486154 
L 124.600227 -58.486154 
L 125.113263 -58.486154 
L 125.6263 -58.486154 
L 126.139336 -58.486154 
L 126.652372 -58.486154 
L 127.165409 -58.486154 
L 127.678445 -58.486154 
L 128.191482 -58.486154 
L 128.704518 -58.486154 
L 129.217555 -58.486154 
L 129.730591 -58.486154 
L 130.243628 -58.486154 
L 130.756664 -58.486154 
L 131.2697 -58.486154 
L 131.782737 -58.486154 
L 132.295773 -58.486154 
L 132.80881 -58.486154 
L 133.321846 -58.486154 
L 133.834883 -58.486154 
L 134.347919 -58.486154 
L 134.860955 -58.486154 
L 135.373992 -58.486154 
L 135.887028 -58.486154 
L 136.400065 -58.486154 
L 136.913101 -58.486154 
L 137.426138 -58.486154 
L 137.939174 -58.486154 
L 138.452211 -58.486154 
L 138.965247 -58.486154 
L 139.478283 -58.486154 
L 139.99132 -58.486154 
L 140.504356 -58.486154 
L 141.017393 -58.486154 
L 141.530429 -58.486154 
L 142.043466 -58.486154 
L 142.556502 -58.486154 
L 143.069538 -58.486154 
L 143.582575 -58.486154 
L 144.095611 -58.486154 
L 144.608648 -58.486154 
L 145.121684 -58.486154 
L 145.634721 -58.486154 
L 146.147757 -58.486154 
L 146.660794 -58.486154 
L 147.17383 -58.486154 
L 147.686866 -58.486154 
L 148.199903 -58.486154 
L 148.712939 -58.486154 
L 149.225976 -58.486154 
L 149.739012 -58.486154 
L 150.252049 -58.486154 
L 150.765085 -58.486154 
L 151.278121 -58.486154 
L 151.791158 -58.486154 
L 152.304194 -58.486154 
L 152.817231 -58.486154 
L 153.330267 -58.486154 
L 153.843304 -58.486154 
L 154.35634 -58.486154 
L 154.869377 -58.486154 
L 155.382413 -58.486154 
L 155.895449 -58.486154 
L 156.408486 -58.486154 
L 156.921522 -58.486154 
L 157.434559 -58.486154 
L 157.947595 -58.486154 
L 158.460632 -58.486154 
L 158.973668 -58.486154 
L 159.486704 -58.486154 
L 159.999741 -58.486154 
L 160.512777 -58.486154 
L 161.025814 -58.486154 
L 161.53885 -58.486154 
L 162.051887 -58.486154 
L 162.564923 -58.486154 
L 163.07796 -58.486154 
L 163.590996 -58.486154 
L 164.104032 -58.486154 
L 164.617069 -58.486154 
L 165.130105 -58.486154 
L 165.643142 -58.486154 
L 166.156178 -58.486154 
L 166.669215 -58.486154 
L 167.182251 -58.486154 
L 167.695287 -58.486154 
L 168.208324 -58.486154 
L 168.72136 -58.486154 
L 169.234397 -58.486154 
L 169.747433 -58.486154 
L 170.26047 -58.486154 
L 170.773506 -58.486154 
L 171.286543 -58.486154 
L 171.799579 -58.486154 
L 172.312615 -58.486154 
L 172.825652 -58.486154 
L 173.338688 -58.486154 
L 173.851725 -58.486154 
L 174.364761 -58.486154 
L 174.877798 -58.486154 
L 175.390834 -58.486154 
L 175.90387 -58.486154 
L 176.416907 -58.486154 
L 176.929943 -58.486154 
L 177.44298 -58.486154 
L 177.956016 -58.486154 
L 178.469053 -58.486154 
L 178.982089 -58.486154 
L 179.495126 -58.486154 
L 180.008162 -58.486154 
L 180.521198 -58.486154 
L 181.034235 -58.486154 
L 181.547271 -58.486154 
L 182.060308 -58.486154 
L 182.573344 -58.486154 
L 183.086381 -58.486154 
L 183.599417 -58.486154 
L 184.112453 -58.486154 
L 184.62549 -58.486154 
L 185.138526 -58.486154 
L 185.651563 -58.486154 
L 186.164599 -58.486154 
L 186.677636 -58.486154 
L 187.190672 -58.486154 
L 187.703709 -58.486154 
L 188.216745 -58.486154 
L 188.729781 -58.486154 
L 189.242818 -58.486154 
L 189.755854 -58.486154 
L 190.268891 -58.486154 
L 190.781927 -58.486154 
L 191.294964 -58.486154 
L 191.808 -58.486154 
L 192.321036 -58.486154 
L 192.834073 -58.486154 
L 193.347109 -58.486154 
L 193.860146 -58.486154 
L 194.373182 -58.486154 
L 194.886219 -58.486154 
L 195.399255 -58.486154 
L 195.912291 -58.486154 
L 196.425328 -58.486154 
L 196.938364 -58.486154 
L 197.451401 -58.486154 
L 197.964437 -58.486154 
L 198.477474 -58.486154 
L 198.99051 -58.486154 
L 199.503547 -58.486154 
L 200.016583 -58.486154 
L 200.529619 -58.486154 
L 201.042656 -58.486154 
L 201.555692 -58.486154 
L 202.068729 -58.486154 
L 202.581765 -58.486154 
L 203.094802 -58.486154 
L 203.607838 -58.486154 
L 204.120874 -58.486154 
L 204.633911 -58.486154 
L 205.146947 -58.486154 
L 205.659984 -58.486154 
L 206.17302 -58.486154 
L 206.686057 -58.486154 
L 207.199093 -58.486154 
L 207.71213 -58.486154 
L 208.225166 -58.486154 
L 208.738202 -58.486154 
L 209.251239 -58.486154 
L 209.764275 -58.486154 
L 210.277312 -58.486154 
L 210.790348 -58.486154 
L 211.303385 -58.486154 
L 211.816421 -58.486154 
L 212.329457 -58.486154 
L 212.842494 -58.486154 
L 213.35553 -58.486154 
L 213.868567 -58.486154 
L 214.381603 -58.486154 
L 214.89464 -58.486154 
L 215.407676 -58.486154 
L 215.920713 -58.486154 
L 216.433749 -58.486154 
L 216.946785 -58.486154 
L 217.459822 -58.486154 
L 217.972858 -58.486154 
L 218.485895 -58.486154 
L 218.998931 -58.486154 
L 219.511968 -58.486154 
L 220.025004 -58.486154 
L 220.53804 -58.486154 
L 221.051077 -58.486154 
L 221.564113 -58.486154 
L 222.07715 -58.486154 
L 222.590186 -58.486154 
L 223.103223 -58.486154 
L 223.616259 -58.486154 
L 224.129296 -58.486154 
L 224.642332 -58.486154 
L 225.155368 -58.486154 
L 225.668405 -58.486154 
L 226.181441 -58.486154 
L 226.694478 -58.486154 
L 227.207514 -58.486154 
L 227.720551 -58.486154 
L 228.233587 -58.486154 
L 228.746623 -58.486154 
L 229.25966 -58.486154 
L 229.772696 -58.486154 
L 230.285733 -58.486154 
L 230.798769 -58.486154 
L 231.311806 -58.486154 
L 231.824842 -58.486154 
L 232.337879 -58.486154 
L 232.850915 -58.486154 
L 233.363951 -58.486154 
L 233.876988 -58.486154 
L 234.390024 -58.486154 
L 234.903061 -58.486154 
L 235.416097 -58.486154 
L 235.929134 -58.486154 
L 236.44217 -58.486154 
L 236.955206 -58.486154 
L 237.468243 -58.486154 
L 237.981279 -58.486154 
L 238.494316 -58.486154 
L 239.007352 -58.486154 
L 239.520389 -58.486154 
L 240.033425 -58.486154 
L 240.546462 -58.486154 
L 241.059498 -58.486154 
L 241.572534 -58.486154 
L 242.085571 -58.486154 
L 242.598607 -58.486154 
L 243.111644 -58.486154 
L 243.62468 -58.486154 
L 244.137717 -58.486154 
L 244.650753 -58.486154 
L 245.163789 -58.486154 
L 245.676826 -58.486154 
L 246.189862 -58.486154 
L 246.702899 -58.486154 
L 247.215935 -58.486154 
L 247.728972 -58.486154 
L 248.242008 -58.486154 
L 248.755045 -58.486154 
L 249.268081 -58.486154 
L 249.781117 -58.486154 
L 250.294154 -58.486154 
L 250.80719 -58.486154 
L 251.320227 -58.486154 
L 251.833263 -58.486154 
L 252.3463 -58.486154 
L 252.859336 -58.486154 
L 253.372372 -58.486154 
L 253.885409 -58.486154 
L 254.398445 -58.486154 
L 254.911482 -58.486154 
L 255.424518 -58.486154 
L 255.937555 -58.486154 
L 256.450591 -58.486154 
L 256.963628 -58.486154 
L 257.476664 -58.486154 
L 257.9897 -58.486154 
L 258.502737 -58.486154 
L 259.015773 -58.486154 
L 259.52881 -58.486154 
L 260.041846 -58.486154 
L 260.554883 -58.486154 
L 261.067919 -58.486154 
L 261.580955 -58.486154 
L 262.093992 -58.486154 
L 262.607028 -58.486154 
L 263.120065 -58.486154 
L 263.633101 -58.486154 
L 264.146138 -58.486154 
L 264.659174 -58.486154 
L 265.172211 -58.486154 
L 265.685247 -58.486154 
L 266.198283 -58.486154 
L 266.71132 -58.486154 
L 267.224356 -58.486154 
L 267.737393 -58.486154 
L 268.250429 -58.486154 
L 268.763466 -58.486154 
L 269.276502 -58.486154 
L 269.789538 -58.486154 
L 270.302575 -58.486154 
L 270.815611 -58.486154 
L 271.328648 -58.486154 
L 271.841684 -58.486154 
L 272.354721 -58.486154 
L 272.867757 -58.486154 
L 273.380794 -58.486154 
L 273.89383 -58.486154 
L 274.406866 -58.486154 
L 274.919903 -58.486154 
L 275.432939 -58.486154 
L 275.945976 -58.486154 
L 276.459012 -58.486154 
L 276.972049 -58.486154 
L 277.485085 -58.486154 
L 277.998121 -58.486154 
L 278.511158 -58.486154 
L 279.024194 -58.486154 
L 279.537231 -58.486154 
L 280.050267 -58.486154 
L 280.563304 -58.486154 
L 281.07634 -58.486154 
L 281.589377 -58.486154 
L 282.102413 -58.486154 
L 282.615449 -58.486154 
L 283.128486 -58.486154 
L 283.641522 -58.486154 
L 284.154559 -58.486154 
L 284.667595 -58.486154 
L 285.180632 -58.486154 
L 285.693668 -58.486154 
L 286.206704 -58.486154 
L 286.719741 -58.486154 
L 287.232777 -58.486154 
L 287.745814 -58.486154 
L 288.25885 -58.486154 
L 288.771887 -58.486154 
L 289.284923 -58.486154 
L 289.79796 -58.486154 
L 290.310996 -58.486154 
L 290.824032 -58.486154 
L 291.337069 -58.486154 
L 291.850105 -58.486154 
L 292.363142 -58.486154 
L 292.876178 -58.486154 
L 293.389215 -58.486154 
L 293.902251 -58.486154 
L 294.415287 -58.486154 
L 294.928324 -58.486154 
L 295.44136 -58.486154 
L 295.954397 -58.486154 
L 296.467433 -58.486154 
L 296.98047 -58.486154 
L 297.493506 -58.486154 
L 298.006543 -58.486154 
L 298.519579 -58.486154 
L 299.032615 -58.486154 
L 299.545652 -58.486154 
L 300.058688 -58.486154 
L 300.571725 -58.486154 
L 301.084761 -58.486154 
L 301.597798 -58.486154 
L 302.110834 -58.486154 
L 302.62387 -58.486154 
L 303.136907 -58.486154 
L 303.649943 -58.486154 
L 304.16298 -58.486154 
L 304.676016 -58.486154 
L 305.189053 -58.486154 
L 305.702089 -58.486154 
L 306.215126 -58.486154 
L 306.728162 -58.486154 
L 307.241198 -58.486154 
L 307.754235 -58.486154 
L 308.267271 -58.486154 
L 308.780308 -58.486154 
L 309.293344 -58.486154 
L 309.806381 -58.486154 
L 310.319417 -58.486154 
L 310.832453 -58.486154 
L 311.34549 -58.486154 
L 311.858526 -58.486154 
L 312.371563 -58.486154 
L 312.884599 -58.486154 
L 313.397636 -58.486154 
L 313.910672 -58.486154 
L 314.423709 -58.486154 
L 314.936745 -58.486154 
L 315.449781 -58.486154 
L 315.962818 -58.486154 
L 316.475854 -58.486154 
L 316.988891 -58.486154 
L 317.501927 -58.486154 
L 318.014964 -58.486154 
L 318.528 -58.486154 
L 319.041036 -58.486154 
L 319.554073 -58.486154 
L 320.067109 -58.486154 
L 320.580146 -58.486154 
L 321.093182 -58.486154 
L 321.606219 -58.486154 
L 322.119255 -58.486154 
L 322.632291 -58.486154 
L 323.145328 -58.486154 
L 323.658364 -58.486154 
L 324.171401 -58.486154 
L 324.684437 -58.486154 
L 325.197474 -58.486154 
L 325.71051 -58.486154 
L 326.223547 -58.486154 
L 326.736583 -58.486154 
L 327.249619 -58.486154 
L 327.762656 -58.486154 
L 328.275692 -58.486154 
L 328.275692 -58.486154 
L 328.275692 -58.486154 
L 327.762656 -72.969782 
L 327.249619 -78.956243 
L 326.736583 -83.541038 
L 326.223547 -87.398841 
L 325.71051 -90.791158 
L 325.197474 -93.852193 
L 324.684437 -96.661719 
L 324.171401 -99.271744 
L 323.658364 -101.718417 
L 323.145328 -104.028072 
L 322.632291 -106.220603 
L 322.119255 -108.311475 
L 321.606219 -110.312992 
L 321.093182 -112.235138 
L 320.580146 -114.086145 
L 320.067109 -115.872897 
L 319.554073 -117.601221 
L 319.041036 -119.276101 
L 318.528 -120.901839 
L 318.014964 -122.48218 
L 317.501927 -124.020409 
L 316.988891 -125.519425 
L 316.475854 -126.981802 
L 315.962818 -128.40984 
L 315.449781 -129.8056 
L 314.936745 -131.170943 
L 314.423709 -132.507552 
L 313.910672 -133.816956 
L 313.397636 -135.100549 
L 312.884599 -136.35961 
L 312.371563 -137.595308 
L 311.858526 -138.808722 
L 311.34549 -140.000847 
L 310.832453 -141.172604 
L 310.319417 -142.324847 
L 309.806381 -143.45837 
L 309.293344 -144.573913 
L 308.780308 -145.672164 
L 308.267271 -146.753771 
L 307.754235 -147.819337 
L 307.241198 -148.86943 
L 306.728162 -149.904583 
L 306.215126 -150.925298 
L 305.702089 -151.932048 
L 305.189053 -152.925279 
L 304.676016 -153.905414 
L 304.16298 -154.872853 
L 303.649943 -155.827974 
L 303.136907 -156.771135 
L 302.62387 -157.702679 
L 302.110834 -158.622929 
L 301.597798 -159.532193 
L 301.084761 -160.430767 
L 300.571725 -161.31893 
L 300.058688 -162.196949 
L 299.545652 -163.06508 
L 299.032615 -163.923567 
L 298.519579 -164.772644 
L 298.006543 -165.612535 
L 297.493506 -166.443455 
L 296.98047 -167.265607 
L 296.467433 -168.079191 
L 295.954397 -168.884395 
L 295.44136 -169.681402 
L 294.928324 -170.470386 
L 294.415287 -171.251516 
L 293.902251 -172.024954 
L 293.389215 -172.790856 
L 292.876178 -173.549373 
L 292.363142 -174.30065 
L 291.850105 -175.044826 
L 291.337069 -175.782037 
L 290.824032 -176.512414 
L 290.310996 -177.236082 
L 289.79796 -177.953163 
L 289.284923 -178.663776 
L 288.771887 -179.368034 
L 288.25885 -180.066048 
L 287.745814 -180.757925 
L 287.232777 -181.443768 
L 286.719741 -182.123678 
L 286.206704 -182.797752 
L 285.693668 -183.466084 
L 285.180632 -184.128767 
L 284.667595 -184.785889 
L 284.154559 -185.437536 
L 283.641522 -186.083793 
L 283.128486 -186.72474 
L 282.615449 -187.360458 
L 282.102413 -187.991022 
L 281.589377 -188.616509 
L 281.07634 -189.23699 
L 280.563304 -189.852537 
L 280.050267 -190.463219 
L 279.537231 -191.069103 
L 279.024194 -191.670255 
L 278.511158 -192.266738 
L 277.998121 -192.858614 
L 277.485085 -193.445945 
L 276.972049 -194.028788 
L 276.459012 -194.607203 
L 275.945976 -195.181244 
L 275.432939 -195.750968 
L 274.919903 -196.316427 
L 274.406866 -196.877673 
L 273.89383 -197.434759 
L 273.380794 -197.987733 
L 272.867757 -198.536644 
L 272.354721 -199.081541 
L 271.841684 -199.622468 
L 271.328648 -200.159473 
L 270.815611 -200.692599 
L 270.302575 -201.22189 
L 269.789538 -201.747388 
L 269.276502 -202.269135 
L 268.763466 -202.787171 
L 268.250429 -203.301537 
L 267.737393 -203.812271 
L 267.224356 -204.319412 
L 266.71132 -204.822997 
L 266.198283 -205.323062 
L 265.685247 -205.819643 
L 265.172211 -206.312776 
L 264.659174 -206.802495 
L 264.146138 -207.288833 
L 263.633101 -207.771823 
L 263.120065 -208.251499 
L 262.607028 -208.727891 
L 262.093992 -209.201031 
L 261.580955 -209.67095 
L 261.067919 -210.137677 
L 260.554883 -210.601241 
L 260.041846 -211.061672 
L 259.52881 -211.518998 
L 259.015773 -211.973246 
L 258.502737 -212.424445 
L 257.9897 -212.872619 
L 257.476664 -213.317797 
L 256.963628 -213.760003 
L 256.450591 -214.199263 
L 255.937555 -214.635601 
L 255.424518 -215.069043 
L 254.911482 -215.499612 
L 254.398445 -215.927332 
L 253.885409 -216.352226 
L 253.372372 -216.774316 
L 252.859336 -217.193625 
L 252.3463 -217.610176 
L 251.833263 -218.023989 
L 251.320227 -218.435085 
L 250.80719 -218.843487 
L 250.294154 -219.249214 
L 249.781117 -219.652286 
L 249.268081 -220.052724 
L 248.755045 -220.450546 
L 248.242008 -220.845773 
L 247.728972 -221.238423 
L 247.215935 -221.628514 
L 246.702899 -222.016066 
L 246.189862 -222.401095 
L 245.676826 -222.78362 
L 245.163789 -223.163658 
L 244.650753 -223.541226 
L 244.137717 -223.916342 
L 243.62468 -224.289022 
L 243.111644 -224.659282 
L 242.598607 -225.027138 
L 242.085571 -225.392606 
L 241.572534 -225.755703 
L 241.059498 -226.116443 
L 240.546462 -226.474841 
L 240.033425 -226.830913 
L 239.520389 -227.184673 
L 239.007352 -227.536136 
L 238.494316 -227.885316 
L 237.981279 -228.232227 
L 237.468243 -228.576884 
L 236.955206 -228.919298 
L 236.44217 -229.259485 
L 235.929134 -229.597458 
L 235.416097 -229.933229 
L 234.903061 -230.266811 
L 234.390024 -230.598218 
L 233.876988 -230.927462 
L 233.363951 -231.254554 
L 232.850915 -231.579508 
L 232.337879 -231.902335 
L 231.824842 -232.223048 
L 231.311806 -232.541657 
L 230.798769 -232.858175 
L 230.285733 -233.172612 
L 229.772696 -233.484981 
L 229.25966 -233.795291 
L 228.746623 -234.103555 
L 228.233587 -234.409782 
L 227.720551 -234.713983 
L 227.207514 -235.01617 
L 226.694478 -235.316351 
L 226.181441 -235.614538 
L 225.668405 -235.91074 
L 225.155368 -236.204967 
L 224.642332 -236.49723 
L 224.129296 -236.787537 
L 223.616259 -237.075899 
L 223.103223 -237.362324 
L 222.590186 -237.646822 
L 222.07715 -237.929403 
L 221.564113 -238.210075 
L 221.051077 -238.488846 
L 220.53804 -238.765727 
L 220.025004 -239.040725 
L 219.511968 -239.31385 
L 218.998931 -239.585109 
L 218.485895 -239.854512 
L 217.972858 -240.122066 
L 217.459822 -240.387779 
L 216.946785 -240.65166 
L 216.433749 -240.913716 
L 215.920713 -241.173956 
L 215.407676 -241.432386 
L 214.89464 -241.689016 
L 214.381603 -241.943852 
L 213.868567 -242.196902 
L 213.35553 -242.448172 
L 212.842494 -242.697672 
L 212.329457 -242.945407 
L 211.816421 -243.191384 
L 211.303385 -243.435612 
L 210.790348 -243.678096 
L 210.277312 -243.918843 
L 209.764275 -244.157861 
L 209.251239 -244.395156 
L 208.738202 -244.630734 
L 208.225166 -244.864602 
L 207.71213 -245.096767 
L 207.199093 -245.327234 
L 206.686057 -245.556011 
L 206.17302 -245.783103 
L 205.659984 -246.008516 
L 205.146947 -246.232257 
L 204.633911 -246.454331 
L 204.120874 -246.674744 
L 203.607838 -246.893503 
L 203.094802 -247.110613 
L 202.581765 -247.326079 
L 202.068729 -247.539907 
L 201.555692 -247.752103 
L 201.042656 -247.962672 
L 200.529619 -248.17162 
L 200.016583 -248.378952 
L 199.503547 -248.584673 
L 198.99051 -248.788789 
L 198.477474 -248.991305 
L 197.964437 -249.192225 
L 197.451401 -249.391555 
L 196.938364 -249.5893 
L 196.425328 -249.785465 
L 195.912291 -249.980054 
L 195.399255 -250.173072 
L 194.886219 -250.364525 
L 194.373182 -250.554416 
L 193.860146 -250.742751 
L 193.347109 -250.929534 
L 192.834073 -251.114769 
L 192.321036 -251.298461 
L 191.808 -251.480615 
L 191.294964 -251.661234 
L 190.781927 -251.840324 
L 190.268891 -252.017887 
L 189.755854 -252.19393 
L 189.242818 -252.368454 
L 188.729781 -252.541466 
L 188.216745 -252.712968 
L 187.703709 -252.882965 
L 187.190672 -253.05146 
L 186.677636 -253.218458 
L 186.164599 -253.383963 
L 185.651563 -253.547978 
L 185.138526 -253.710507 
L 184.62549 -253.871553 
L 184.112453 -254.031121 
L 183.599417 -254.189214 
L 183.086381 -254.345835 
L 182.573344 -254.500988 
L 182.060308 -254.654677 
L 181.547271 -254.806905 
L 181.034235 -254.957676 
L 180.521198 -255.106992 
L 180.008162 -255.254857 
L 179.495126 -255.401275 
L 178.982089 -255.546248 
L 178.469053 -255.689779 
L 177.956016 -255.831873 
L 177.44298 -255.972532 
L 176.929943 -256.111758 
L 176.416907 -256.249556 
L 175.90387 -256.385928 
L 175.390834 -256.520877 
L 174.877798 -256.654406 
L 174.364761 -256.786517 
L 173.851725 -256.917214 
L 173.338688 -257.0465 
L 172.825652 -257.174376 
L 172.312615 -257.300847 
L 171.799579 -257.425914 
L 171.286543 -257.54958 
L 170.773506 -257.671849 
L 170.26047 -257.792721 
L 169.747433 -257.912201 
L 169.234397 -258.030289 
L 168.72136 -258.14699 
L 168.208324 -258.262305 
L 167.695287 -258.376237 
L 167.182251 -258.488788 
L 166.669215 -258.59996 
L 166.156178 -258.709756 
L 165.643142 -258.818179 
L 165.130105 -258.925229 
L 164.617069 -259.030909 
L 164.104032 -259.135223 
L 163.590996 -259.238171 
L 163.07796 -259.339755 
L 162.564923 -259.439979 
L 162.051887 -259.538843 
L 161.53885 -259.636351 
L 161.025814 -259.732503 
L 160.512777 -259.827302 
L 159.999741 -259.92075 
L 159.486704 -260.012848 
L 158.973668 -260.103599 
L 158.460632 -260.193004 
L 157.947595 -260.281066 
L 157.434559 -260.367785 
L 156.921522 -260.453163 
L 156.408486 -260.537203 
L 155.895449 -260.619906 
L 155.382413 -260.701273 
L 154.869377 -260.781307 
L 154.35634 -260.860008 
L 153.843304 -260.937379 
L 153.330267 -261.01342 
L 152.817231 -261.088134 
L 152.304194 -261.161521 
L 151.791158 -261.233584 
L 151.278121 -261.304324 
L 150.765085 -261.373741 
L 150.252049 -261.441838 
L 149.739012 -261.508616 
L 149.225976 -261.574075 
L 148.712939 -261.638218 
L 148.199903 -261.701046 
L 147.686866 -261.762559 
L 147.17383 -261.822759 
L 146.660794 -261.881648 
L 146.147757 -261.939225 
L 145.634721 -261.995493 
L 145.121684 -262.050453 
L 144.608648 -262.104105 
L 144.095611 -262.15645 
L 143.582575 -262.20749 
L 143.069538 -262.257226 
L 142.556502 -262.305658 
L 142.043466 -262.352788 
L 141.530429 -262.398616 
L 141.017393 -262.443143 
L 140.504356 -262.48637 
L 139.99132 -262.528298 
L 139.478283 -262.568928 
L 138.965247 -262.60826 
L 138.452211 -262.646295 
L 137.939174 -262.683034 
L 137.426138 -262.718478 
L 136.913101 -262.752628 
L 136.400065 -262.785483 
L 135.887028 -262.817045 
L 135.373992 -262.847314 
L 134.860955 -262.87629 
L 134.347919 -262.903976 
L 133.834883 -262.930369 
L 133.321846 -262.955473 
L 132.80881 -262.979286 
L 132.295773 -263.001809 
L 131.782737 -263.023043 
L 131.2697 -263.042988 
L 130.756664 -263.061645 
L 130.243628 -263.079013 
L 129.730591 -263.095093 
L 129.217555 -263.109886 
L 128.704518 -263.123392 
L 128.191482 -263.135611 
L 127.678445 -263.146542 
L 127.165409 -263.156188 
L 126.652372 -263.164546 
L 126.139336 -263.171619 
L 125.6263 -263.177406 
L 125.113263 -263.181906 
L 124.600227 -263.185121 
L 124.08719 -263.187049 
L 123.574154 -263.187692 
z
" style="stroke: #0000ff; stroke-opacity: 0.5"/>
    </defs>
    <g clip-path="url(#p10117ce560)">
     <use xlink:href="#m590f34f9a5" x="0" y="345.6" style="fill: #0000ff; fill-opacity: 0.5; stroke: #0000ff; stroke-opacity: 0.5"/>
    </g>
   </g>
   <g id="patch_2">
    <path d="M 125.571943 287.113846 
Q 246.395765 287.113846 366.101554 287.113846 
" clip-path="url(#p10117ce560)" style="fill: none; stroke: #000000; stroke-linecap: round"/>
    <path d="M 358.101554 283.113846 
L 366.101554 287.113846 
L 358.101554 291.113846 
" clip-path="url(#p10117ce560)" style="fill: none; stroke: #000000; stroke-linecap: round"/>
   </g>
   <g id="patch_3">
    <path d="M 123.574154 285.116057 
Q 123.574154 164.292235 123.574154 44.586446 
" clip-path="url(#p10117ce560)" style="fill: none; stroke: #000000; stroke-linecap: round"/>
    <path d="M 119.574154 52.586446 
L 123.574154 44.586446 
L 127.574154 52.586446 
" clip-path="url(#p10117ce560)" style="fill: none; stroke: #000000; stroke-linecap: round"/>
   </g>
   <g id="line2d_1">
    <path d="M 123.574154 287.113846 
L 328.275692 287.113846 
L 328.275692 82.412308 
L 123.574154 82.412308 
L 123.574154 287.113846 
" clip-path="url(#p10117ce560)" style="fill: none; stroke: #000000; stroke-linecap: square"/>
   </g>
  </g>
 </g>
 <defs>
  <clipPath id="p10117ce560">
   <rect x="103.104" y="41.472" width="266.112" height="266.112"/>
  </clipPath>
 </defs>
</svg>
