<?xml version="1.0" encoding="utf-8" standalone="no"?>
<!DOCTYPE svg PUBLIC "-//W3C//DTD SVG 1.1//EN"
  "http://www.w3.org/Graphics/SVG/1.1/DTD/svg11.dtd">
<svg xmlns:xlink="http://www.w3.org/1999/xlink" width="1077.643636pt" height="314.4pt" viewBox="0 0 1077.643636 314.4" xmlns="http://www.w3.org/2000/svg" version="1.1">
 <metadata>
  <rdf:RDF xmlns:dc="http://purl.org/dc/elements/1.1/" xmlns:cc="http://creativecommons.org/ns#" xmlns:rdf="http://www.w3.org/1999/02/22-rdf-syntax-ns#">
   <cc:Work>
    <dc:type rdf:resource="http://purl.org/dc/dcmitype/StillImage"/>
    <dc:date>2025-01-04T12:11:37.386110</dc:date>
    <dc:format>image/svg+xml</dc:format>
    <dc:creator>
     <cc:Agent>
      <dc:title>Matplotlib v3.10.0, https://matplotlib.org/</dc:title>
     </cc:Agent>
    </dc:creator>
   </cc:Work>
  </rdf:RDF>
 </metadata>
 <defs>
  <style type="text/css">*{stroke-linejoin: round; stroke-linecap: butt}</style>
 </defs>
 <g id="figure_1">
  <g id="patch_1">
   <path d="M 0 314.4 
L 1077.643636 314.4 
L 1077.643636 0 
L 0 0 
z
" style="fill: #ffffff"/>
  </g>
  <g id="axes_1">
   <g id="table_1">
    <g id="patch_2">
     <path d="M 7.2 37.2 
L 104.596364 37.2 
L 104.596364 7.2 
L 7.2 7.2 
z
" style="fill: #add8e6; stroke: #000000; stroke-linejoin: miter"/>
    </g>
    <g id="text_1">
     <!-- q \ p -->
     <g transform="translate(42.445057 25.51125) scale(0.12 -0.12)">
      <defs>
       <path id="DejaVuSans-71" d="M 947 1747 
Q 947 1113 1208 752 
Q 1469 391 1925 391 
Q 2381 391 2643 752 
Q 2906 1113 2906 1747 
Q 2906 2381 2643 2742 
Q 2381 3103 1925 3103 
Q 1469 3103 1208 2742 
Q 947 2381 947 1747 
z
M 2906 525 
Q 2725 213 2448 61 
Q 2172 -91 1784 -91 
Q 1150 -91 751 415 
Q 353 922 353 1747 
Q 353 2572 751 3078 
Q 1150 3584 1784 3584 
Q 2172 3584 2448 3432 
Q 2725 3281 2906 2969 
L 2906 3500 
L 3481 3500 
L 3481 -1331 
L 2906 -1331 
L 2906 525 
z
" transform="scale(0.015625)"/>
       <path id="DejaVuSans-20" transform="scale(0.015625)"/>
       <path id="DejaVuSans-5c" d="M 531 4666 
L 2156 -594 
L 1625 -594 
L 0 4666 
L 531 4666 
z
" transform="scale(0.015625)"/>
       <path id="DejaVuSans-70" d="M 1159 525 
L 1159 -1331 
L 581 -1331 
L 581 3500 
L 1159 3500 
L 1159 2969 
Q 1341 3281 1617 3432 
Q 1894 3584 2278 3584 
Q 2916 3584 3314 3078 
Q 3713 2572 3713 1747 
Q 3713 922 3314 415 
Q 2916 -91 2278 -91 
Q 1894 -91 1617 61 
Q 1341 213 1159 525 
z
M 3116 1747 
Q 3116 2381 2855 2742 
Q 2594 3103 2138 3103 
Q 1681 3103 1420 2742 
Q 1159 2381 1159 1747 
Q 1159 1113 1420 752 
Q 1681 391 2138 391 
Q 2594 391 2855 752 
Q 3116 1113 3116 1747 
z
" transform="scale(0.015625)"/>
      </defs>
      <use xlink:href="#DejaVuSans-71"/>
      <use xlink:href="#DejaVuSans-20" transform="translate(63.476562 0)"/>
      <use xlink:href="#DejaVuSans-5c" transform="translate(95.263672 0)"/>
      <use xlink:href="#DejaVuSans-20" transform="translate(128.955078 0)"/>
      <use xlink:href="#DejaVuSans-70" transform="translate(160.742188 0)"/>
     </g>
    </g>
    <g id="patch_3">
     <path d="M 104.596364 37.2 
L 201.992727 37.2 
L 201.992727 7.2 
L 104.596364 7.2 
z
" style="fill: #add8e6; stroke: #000000; stroke-linejoin: miter"/>
    </g>
    <g id="text_2">
     <!-- 0 -->
     <g transform="translate(149.477045 25.51125) scale(0.12 -0.12)">
      <defs>
       <path id="DejaVuSans-30" d="M 2034 4250 
Q 1547 4250 1301 3770 
Q 1056 3291 1056 2328 
Q 1056 1369 1301 889 
Q 1547 409 2034 409 
Q 2525 409 2770 889 
Q 3016 1369 3016 2328 
Q 3016 3291 2770 3770 
Q 2525 4250 2034 4250 
z
M 2034 4750 
Q 2819 4750 3233 4129 
Q 3647 3509 3647 2328 
Q 3647 1150 3233 529 
Q 2819 -91 2034 -91 
Q 1250 -91 836 529 
Q 422 1150 422 2328 
Q 422 3509 836 4129 
Q 1250 4750 2034 4750 
z
" transform="scale(0.015625)"/>
      </defs>
      <use xlink:href="#DejaVuSans-30"/>
     </g>
    </g>
    <g id="patch_4">
     <path d="M 201.992727 37.2 
L 299.389091 37.2 
L 299.389091 7.2 
L 201.992727 7.2 
z
" style="fill: #add8e6; stroke: #000000; stroke-linejoin: miter"/>
    </g>
    <g id="text_3">
     <!-- 1/2 -->
     <g transform="translate(241.034659 25.51125) scale(0.12 -0.12)">
      <defs>
       <path id="DejaVuSans-31" d="M 794 531 
L 1825 531 
L 1825 4091 
L 703 3866 
L 703 4441 
L 1819 4666 
L 2450 4666 
L 2450 531 
L 3481 531 
L 3481 0 
L 794 0 
L 794 531 
z
" transform="scale(0.015625)"/>
       <path id="DejaVuSans-2f" d="M 1625 4666 
L 2156 4666 
L 531 -594 
L 0 -594 
L 1625 4666 
z
" transform="scale(0.015625)"/>
       <path id="DejaVuSans-32" d="M 1228 531 
L 3431 531 
L 3431 0 
L 469 0 
L 469 531 
Q 828 903 1448 1529 
Q 2069 2156 2228 2338 
Q 2531 2678 2651 2914 
Q 2772 3150 2772 3378 
Q 2772 3750 2511 3984 
Q 2250 4219 1831 4219 
Q 1534 4219 1204 4116 
Q 875 4013 500 3803 
L 500 4441 
Q 881 4594 1212 4672 
Q 1544 4750 1819 4750 
Q 2544 4750 2975 4387 
Q 3406 4025 3406 3419 
Q 3406 3131 3298 2873 
Q 3191 2616 2906 2266 
Q 2828 2175 2409 1742 
Q 1991 1309 1228 531 
z
" transform="scale(0.015625)"/>
      </defs>
      <use xlink:href="#DejaVuSans-31"/>
      <use xlink:href="#DejaVuSans-2f" transform="translate(63.623047 0)"/>
      <use xlink:href="#DejaVuSans-32" transform="translate(97.314453 0)"/>
     </g>
    </g>
    <g id="patch_5">
     <path d="M 299.389091 37.2 
L 396.785455 37.2 
L 396.785455 7.2 
L 299.389091 7.2 
z
" style="fill: #add8e6; stroke: #000000; stroke-linejoin: miter"/>
    </g>
    <g id="text_4">
     <!-- 1 -->
     <g transform="translate(344.269773 25.51125) scale(0.12 -0.12)">
      <use xlink:href="#DejaVuSans-31"/>
     </g>
    </g>
    <g id="patch_6">
     <path d="M 396.785455 37.2 
L 494.181818 37.2 
L 494.181818 7.2 
L 396.785455 7.2 
z
" style="fill: #add8e6; stroke: #000000; stroke-linejoin: miter"/>
    </g>
    <g id="text_5">
     <!-- 3/2 -->
     <g transform="translate(435.827386 25.51125) scale(0.12 -0.12)">
      <defs>
       <path id="DejaVuSans-33" d="M 2597 2516 
Q 3050 2419 3304 2112 
Q 3559 1806 3559 1356 
Q 3559 666 3084 287 
Q 2609 -91 1734 -91 
Q 1441 -91 1130 -33 
Q 819 25 488 141 
L 488 750 
Q 750 597 1062 519 
Q 1375 441 1716 441 
Q 2309 441 2620 675 
Q 2931 909 2931 1356 
Q 2931 1769 2642 2001 
Q 2353 2234 1838 2234 
L 1294 2234 
L 1294 2753 
L 1863 2753 
Q 2328 2753 2575 2939 
Q 2822 3125 2822 3475 
Q 2822 3834 2567 4026 
Q 2313 4219 1838 4219 
Q 1578 4219 1281 4162 
Q 984 4106 628 3988 
L 628 4550 
Q 988 4650 1302 4700 
Q 1616 4750 1894 4750 
Q 2613 4750 3031 4423 
Q 3450 4097 3450 3541 
Q 3450 3153 3228 2886 
Q 3006 2619 2597 2516 
z
" transform="scale(0.015625)"/>
      </defs>
      <use xlink:href="#DejaVuSans-33"/>
      <use xlink:href="#DejaVuSans-2f" transform="translate(63.623047 0)"/>
      <use xlink:href="#DejaVuSans-32" transform="translate(97.314453 0)"/>
     </g>
    </g>
    <g id="patch_7">
     <path d="M 494.181818 37.2 
L 591.578182 37.2 
L 591.578182 7.2 
L 494.181818 7.2 
z
" style="fill: #add8e6; stroke: #000000; stroke-linejoin: miter"/>
    </g>
    <g id="text_6">
     <!-- 2 -->
     <g transform="translate(539.0625 25.51125) scale(0.12 -0.12)">
      <use xlink:href="#DejaVuSans-32"/>
     </g>
    </g>
    <g id="patch_8">
     <path d="M 591.578182 37.2 
L 688.974545 37.2 
L 688.974545 7.2 
L 591.578182 7.2 
z
" style="fill: #add8e6; stroke: #000000; stroke-linejoin: miter"/>
    </g>
    <g id="text_7">
     <!-- 5/2 -->
     <g transform="translate(630.620114 25.51125) scale(0.12 -0.12)">
      <defs>
       <path id="DejaVuSans-35" d="M 691 4666 
L 3169 4666 
L 3169 4134 
L 1269 4134 
L 1269 2991 
Q 1406 3038 1543 3061 
Q 1681 3084 1819 3084 
Q 2600 3084 3056 2656 
Q 3513 2228 3513 1497 
Q 3513 744 3044 326 
Q 2575 -91 1722 -91 
Q 1428 -91 1123 -41 
Q 819 9 494 109 
L 494 744 
Q 775 591 1075 516 
Q 1375 441 1709 441 
Q 2250 441 2565 725 
Q 2881 1009 2881 1497 
Q 2881 1984 2565 2268 
Q 2250 2553 1709 2553 
Q 1456 2553 1204 2497 
Q 953 2441 691 2322 
L 691 4666 
z
" transform="scale(0.015625)"/>
      </defs>
      <use xlink:href="#DejaVuSans-35"/>
      <use xlink:href="#DejaVuSans-2f" transform="translate(63.623047 0)"/>
      <use xlink:href="#DejaVuSans-32" transform="translate(97.314453 0)"/>
     </g>
    </g>
    <g id="patch_9">
     <path d="M 688.974545 37.2 
L 786.370909 37.2 
L 786.370909 7.2 
L 688.974545 7.2 
z
" style="fill: #add8e6; stroke: #000000; stroke-linejoin: miter"/>
    </g>
    <g id="text_8">
     <!-- 3 -->
     <g transform="translate(733.855227 25.51125) scale(0.12 -0.12)">
      <use xlink:href="#DejaVuSans-33"/>
     </g>
    </g>
    <g id="patch_10">
     <path d="M 786.370909 37.2 
L 883.767273 37.2 
L 883.767273 7.2 
L 786.370909 7.2 
z
" style="fill: #add8e6; stroke: #000000; stroke-linejoin: miter"/>
    </g>
    <g id="text_9">
     <!-- 7/2 -->
     <g transform="translate(825.412841 25.51125) scale(0.12 -0.12)">
      <defs>
       <path id="DejaVuSans-37" d="M 525 4666 
L 3525 4666 
L 3525 4397 
L 1831 0 
L 1172 0 
L 2766 4134 
L 525 4134 
L 525 4666 
z
" transform="scale(0.015625)"/>
      </defs>
      <use xlink:href="#DejaVuSans-37"/>
      <use xlink:href="#DejaVuSans-2f" transform="translate(63.623047 0)"/>
      <use xlink:href="#DejaVuSans-32" transform="translate(97.314453 0)"/>
     </g>
    </g>
    <g id="patch_11">
     <path d="M 883.767273 37.2 
L 981.163636 37.2 
L 981.163636 7.2 
L 883.767273 7.2 
z
" style="fill: #add8e6; stroke: #000000; stroke-linejoin: miter"/>
    </g>
    <g id="text_10">
     <!-- 4 -->
     <g transform="translate(928.647955 25.51125) scale(0.12 -0.12)">
      <defs>
       <path id="DejaVuSans-34" d="M 2419 4116 
L 825 1625 
L 2419 1625 
L 2419 4116 
z
M 2253 4666 
L 3047 4666 
L 3047 1625 
L 3713 1625 
L 3713 1100 
L 3047 1100 
L 3047 0 
L 2419 0 
L 2419 1100 
L 313 1100 
L 313 1709 
L 2253 4666 
z
" transform="scale(0.015625)"/>
      </defs>
      <use xlink:href="#DejaVuSans-34"/>
     </g>
    </g>
    <g id="patch_12">
     <path d="M 981.163636 37.2 
M 1070.443636 37.2 
M 1070.443636 7.2 
M 981.163636 7.2 
L 981.163636 37.2 
" style="fill: #ffffff; stroke: #000000; stroke-linejoin: miter"/>
    </g>
    <g id="patch_13">
     <path d="M 7.2 67.2 
L 104.596364 67.2 
L 104.596364 37.2 
L 7.2 37.2 
z
" style="fill: #add8e6; stroke: #000000; stroke-linejoin: miter"/>
    </g>
    <g id="text_11">
     <!-- 0 -->
     <g transform="translate(52.080682 55.51125) scale(0.12 -0.12)">
      <use xlink:href="#DejaVuSans-30"/>
     </g>
    </g>
    <g id="patch_14">
     <path d="M 104.596364 67.2 
L 201.992727 67.2 
L 201.992727 37.2 
L 104.596364 37.2 
z
" style="fill: #ffffff; stroke: #000000; stroke-linejoin: miter"/>
    </g>
    <g id="text_12">
     <!-- 1 -->
     <g transform="translate(149.477045 55.51125) scale(0.12 -0.12)">
      <use xlink:href="#DejaVuSans-31"/>
     </g>
    </g>
    <g id="patch_15">
     <path d="M 201.992727 67.2 
L 299.389091 67.2 
L 299.389091 37.2 
L 201.992727 37.2 
z
" style="fill: #ffffff; stroke: #000000; stroke-linejoin: miter"/>
    </g>
    <g id="text_13">
     <!-- 1 -->
     <g transform="translate(246.873409 55.51125) scale(0.12 -0.12)">
      <use xlink:href="#DejaVuSans-31"/>
     </g>
    </g>
    <g id="patch_16">
     <path d="M 299.389091 67.2 
L 396.785455 67.2 
L 396.785455 37.2 
L 299.389091 37.2 
z
" style="fill: #ffffff; stroke: #000000; stroke-linejoin: miter"/>
    </g>
    <g id="text_14">
     <!-- 1 -->
     <g transform="translate(344.269773 55.51125) scale(0.12 -0.12)">
      <use xlink:href="#DejaVuSans-31"/>
     </g>
    </g>
    <g id="patch_17">
     <path d="M 396.785455 67.2 
L 494.181818 67.2 
L 494.181818 37.2 
L 396.785455 37.2 
z
" style="fill: #ffffff; stroke: #000000; stroke-linejoin: miter"/>
    </g>
    <g id="text_15">
     <!-- 1 -->
     <g transform="translate(441.666136 55.51125) scale(0.12 -0.12)">
      <use xlink:href="#DejaVuSans-31"/>
     </g>
    </g>
    <g id="patch_18">
     <path d="M 494.181818 67.2 
L 591.578182 67.2 
L 591.578182 37.2 
L 494.181818 37.2 
z
" style="fill: #ffffff; stroke: #000000; stroke-linejoin: miter"/>
    </g>
    <g id="text_16">
     <!-- 1 -->
     <g transform="translate(539.0625 55.51125) scale(0.12 -0.12)">
      <use xlink:href="#DejaVuSans-31"/>
     </g>
    </g>
    <g id="patch_19">
     <path d="M 591.578182 67.2 
L 688.974545 67.2 
L 688.974545 37.2 
L 591.578182 37.2 
z
" style="fill: #ffffff; stroke: #000000; stroke-linejoin: miter"/>
    </g>
    <g id="text_17">
     <!-- 1 -->
     <g transform="translate(636.458864 55.51125) scale(0.12 -0.12)">
      <use xlink:href="#DejaVuSans-31"/>
     </g>
    </g>
    <g id="patch_20">
     <path d="M 688.974545 67.2 
L 786.370909 67.2 
L 786.370909 37.2 
L 688.974545 37.2 
z
" style="fill: #ffffff; stroke: #000000; stroke-linejoin: miter"/>
    </g>
    <g id="text_18">
     <!-- 1 -->
     <g transform="translate(733.855227 55.51125) scale(0.12 -0.12)">
      <use xlink:href="#DejaVuSans-31"/>
     </g>
    </g>
    <g id="patch_21">
     <path d="M 786.370909 67.2 
L 883.767273 67.2 
L 883.767273 37.2 
L 786.370909 37.2 
z
" style="fill: #ffffff; stroke: #000000; stroke-linejoin: miter"/>
    </g>
    <g id="text_19">
     <!-- 1 -->
     <g transform="translate(831.251591 55.51125) scale(0.12 -0.12)">
      <use xlink:href="#DejaVuSans-31"/>
     </g>
    </g>
    <g id="patch_22">
     <path d="M 883.767273 67.2 
L 981.163636 67.2 
L 981.163636 37.2 
L 883.767273 37.2 
z
" style="fill: #ffffff; stroke: #000000; stroke-linejoin: miter"/>
    </g>
    <g id="text_20">
     <!-- 1 -->
     <g transform="translate(928.647955 55.51125) scale(0.12 -0.12)">
      <use xlink:href="#DejaVuSans-31"/>
     </g>
    </g>
    <g id="patch_23">
     <path d="M 981.163636 67.2 
M 1070.443636 67.2 
M 1070.443636 37.2 
M 981.163636 37.2 
L 981.163636 67.2 
" style="fill: #ffffff; stroke: #000000; stroke-linejoin: miter"/>
    </g>
    <g id="text_21">
     <!-- $1$ -->
     <g transform="translate(990.091636 55.51125) scale(0.12 -0.12)">
      <use xlink:href="#DejaVuSans-31" transform="translate(0 0.09375)"/>
     </g>
    </g>
    <g id="patch_24">
     <path d="M 7.2 97.2 
L 104.596364 97.2 
L 104.596364 67.2 
L 7.2 67.2 
z
" style="fill: #add8e6; stroke: #000000; stroke-linejoin: miter"/>
    </g>
    <g id="text_22">
     <!-- 1/2 -->
     <g transform="translate(46.241932 85.51125) scale(0.12 -0.12)">
      <use xlink:href="#DejaVuSans-31"/>
      <use xlink:href="#DejaVuSans-2f" transform="translate(63.623047 0)"/>
      <use xlink:href="#DejaVuSans-32" transform="translate(97.314453 0)"/>
     </g>
    </g>
    <g id="patch_25">
     <path d="M 104.596364 97.2 
L 201.992727 97.2 
L 201.992727 67.2 
L 104.596364 67.2 
z
" style="fill: #ffffff; stroke: #000000; stroke-linejoin: miter"/>
    </g>
    <g id="text_23">
     <!-- 1 -->
     <g transform="translate(149.477045 85.51125) scale(0.12 -0.12)">
      <use xlink:href="#DejaVuSans-31"/>
     </g>
    </g>
    <g id="patch_26">
     <path d="M 201.992727 97.2 
L 299.389091 97.2 
L 299.389091 67.2 
L 201.992727 67.2 
z
" style="fill: #ffffff; stroke: #000000; stroke-linejoin: miter"/>
    </g>
    <g id="text_24">
     <!-- $\Omega$ -->
     <g transform="translate(246.070909 85.51125) scale(0.12 -0.12)">
      <defs>
       <path id="DejaVuSans-3a9" d="M 4647 556 
L 4647 0 
L 2772 0 
L 2772 556 
Q 3325 859 3634 1378 
Q 3944 1897 3944 2528 
Q 3944 3278 3531 3731 
Q 3119 4184 2444 4184 
Q 1769 4184 1355 3729 
Q 941 3275 941 2528 
Q 941 1897 1250 1378 
Q 1563 859 2119 556 
L 2119 0 
L 244 0 
L 244 556 
L 1241 556 
Q 747 991 519 1456 
Q 294 1922 294 2497 
Q 294 3491 894 4106 
Q 1491 4722 2444 4722 
Q 3391 4722 3994 4106 
Q 4594 3494 4594 2528 
Q 4594 1922 4372 1459 
Q 4150 997 3647 556 
L 4647 556 
z
" transform="scale(0.015625)"/>
      </defs>
      <use xlink:href="#DejaVuSans-3a9" transform="translate(0 0.21875)"/>
     </g>
    </g>
    <g id="patch_27">
     <path d="M 299.389091 97.2 
L 396.785455 97.2 
L 396.785455 67.2 
L 299.389091 67.2 
z
" style="fill: #ffffff; stroke: #000000; stroke-linejoin: miter"/>
    </g>
    <g id="text_25">
     <!-- $\frac{3}{2}$ -->
     <g transform="translate(344.607273 85.62) scale(0.12 -0.12)">
      <use xlink:href="#DejaVuSans-33" transform="translate(0 45.046875) scale(0.7)"/>
      <use xlink:href="#DejaVuSans-32" transform="translate(0 -39.151563) scale(0.7)"/>
      <path d="M 0 19.051563 
L 0 25.301563 
L 44.536133 25.301563 
L 44.536133 19.051563 
L 0 19.051563 
z
"/>
     </g>
    </g>
    <g id="patch_28">
     <path d="M 396.785455 97.2 
L 494.181818 97.2 
L 494.181818 67.2 
L 396.785455 67.2 
z
" style="fill: #ffffff; stroke: #000000; stroke-linejoin: miter"/>
    </g>
    <g id="text_26">
     <!-- $\Omega \cdot \frac{4}{3}$ -->
     <g transform="translate(433.183636 85.44) scale(0.12 -0.12)">
      <defs>
       <path id="DejaVuSans-22c5" d="M 684 2619 
L 1344 2619 
L 1344 1825 
L 684 1825 
L 684 2619 
z
" transform="scale(0.015625)"/>
      </defs>
      <use xlink:href="#DejaVuSans-3a9" transform="translate(0 0.16875)"/>
      <use xlink:href="#DejaVuSans-22c5" transform="translate(95.898438 0.16875)"/>
      <use xlink:href="#DejaVuSans-34" transform="translate(147.167969 43.965625) scale(0.7)"/>
      <use xlink:href="#DejaVuSans-33" transform="translate(147.167969 -39.2375) scale(0.7)"/>
      <path d="M 147.167969 18.965625 
L 147.167969 25.215625 
L 191.704102 25.215625 
L 191.704102 18.965625 
L 147.167969 18.965625 
z
"/>
     </g>
    </g>
    <g id="patch_29">
     <path d="M 494.181818 97.2 
L 591.578182 97.2 
L 591.578182 67.2 
L 494.181818 67.2 
z
" style="fill: #ffffff; stroke: #000000; stroke-linejoin: miter"/>
    </g>
    <g id="text_27">
     <!-- $\frac{3 \cdot 5}{2 \cdot 4}$ -->
     <g transform="translate(533.76 85.62) scale(0.12 -0.12)">
      <use xlink:href="#DejaVuSans-33" transform="translate(0 45.046875) scale(0.7)"/>
      <use xlink:href="#DejaVuSans-22c5" transform="translate(58.173828 45.046875) scale(0.7)"/>
      <use xlink:href="#DejaVuSans-35" transform="translate(94.0625 45.046875) scale(0.7)"/>
      <use xlink:href="#DejaVuSans-32" transform="translate(0 -39.151563) scale(0.7)"/>
      <use xlink:href="#DejaVuSans-22c5" transform="translate(58.173828 -39.151563) scale(0.7)"/>
      <use xlink:href="#DejaVuSans-34" transform="translate(94.0625 -39.151563) scale(0.7)"/>
      <path d="M 0 19.051563 
L 0 25.301563 
L 138.598633 25.301563 
L 138.598633 19.051563 
L 0 19.051563 
z
"/>
     </g>
    </g>
    <g id="patch_30">
     <path d="M 591.578182 97.2 
L 688.974545 97.2 
L 688.974545 67.2 
L 591.578182 67.2 
z
" style="fill: #ffffff; stroke: #000000; stroke-linejoin: miter"/>
    </g>
    <g id="text_28">
     <!-- $\Omega \cdot \frac{4 \cdot 6}{3 \cdot 5}$ -->
     <g transform="translate(622.336364 85.56) scale(0.12 -0.12)">
      <defs>
       <path id="DejaVuSans-36" d="M 2113 2584 
Q 1688 2584 1439 2293 
Q 1191 2003 1191 1497 
Q 1191 994 1439 701 
Q 1688 409 2113 409 
Q 2538 409 2786 701 
Q 3034 994 3034 1497 
Q 3034 2003 2786 2293 
Q 2538 2584 2113 2584 
z
M 3366 4563 
L 3366 3988 
Q 3128 4100 2886 4159 
Q 2644 4219 2406 4219 
Q 1781 4219 1451 3797 
Q 1122 3375 1075 2522 
Q 1259 2794 1537 2939 
Q 1816 3084 2150 3084 
Q 2853 3084 3261 2657 
Q 3669 2231 3669 1497 
Q 3669 778 3244 343 
Q 2819 -91 2113 -91 
Q 1303 -91 875 529 
Q 447 1150 447 2328 
Q 447 3434 972 4092 
Q 1497 4750 2381 4750 
Q 2619 4750 2861 4703 
Q 3103 4656 3366 4563 
z
" transform="scale(0.015625)"/>
      </defs>
      <use xlink:href="#DejaVuSans-3a9" transform="translate(0 0.254687)"/>
      <use xlink:href="#DejaVuSans-22c5" transform="translate(95.898438 0.254687)"/>
      <use xlink:href="#DejaVuSans-34" transform="translate(147.167969 45.046875) scale(0.7)"/>
      <use xlink:href="#DejaVuSans-22c5" transform="translate(205.341797 45.046875) scale(0.7)"/>
      <use xlink:href="#DejaVuSans-36" transform="translate(241.230469 45.046875) scale(0.7)"/>
      <use xlink:href="#DejaVuSans-33" transform="translate(147.167969 -39.151563) scale(0.7)"/>
      <use xlink:href="#DejaVuSans-22c5" transform="translate(205.341797 -39.151563) scale(0.7)"/>
      <use xlink:href="#DejaVuSans-35" transform="translate(241.230469 -39.151563) scale(0.7)"/>
      <path d="M 147.167969 19.051563 
L 147.167969 25.301563 
L 285.766602 25.301563 
L 285.766602 19.051563 
L 147.167969 19.051563 
z
"/>
     </g>
    </g>
    <g id="patch_31">
     <path d="M 688.974545 97.2 
L 786.370909 97.2 
L 786.370909 67.2 
L 688.974545 67.2 
z
" style="fill: #ffffff; stroke: #000000; stroke-linejoin: miter"/>
    </g>
    <g id="text_29">
     <!-- $\frac{3 \cdot 5 \cdot 7}{2 \cdot 4 \cdot 6}$ -->
     <g transform="translate(722.912727 85.56) scale(0.12 -0.12)">
      <use xlink:href="#DejaVuSans-33" transform="translate(0 45.046875) scale(0.7)"/>
      <use xlink:href="#DejaVuSans-22c5" transform="translate(58.173828 45.046875) scale(0.7)"/>
      <use xlink:href="#DejaVuSans-35" transform="translate(94.0625 45.046875) scale(0.7)"/>
      <use xlink:href="#DejaVuSans-22c5" transform="translate(152.236328 45.046875) scale(0.7)"/>
      <use xlink:href="#DejaVuSans-37" transform="translate(188.125 45.046875) scale(0.7)"/>
      <use xlink:href="#DejaVuSans-32" transform="translate(0 -39.151563) scale(0.7)"/>
      <use xlink:href="#DejaVuSans-22c5" transform="translate(58.173828 -39.151563) scale(0.7)"/>
      <use xlink:href="#DejaVuSans-34" transform="translate(94.0625 -39.151563) scale(0.7)"/>
      <use xlink:href="#DejaVuSans-22c5" transform="translate(152.236328 -39.151563) scale(0.7)"/>
      <use xlink:href="#DejaVuSans-36" transform="translate(188.125 -39.151563) scale(0.7)"/>
      <path d="M 0 19.051563 
L 0 25.301563 
L 232.661133 25.301563 
L 232.661133 19.051563 
L 0 19.051563 
z
"/>
     </g>
    </g>
    <g id="patch_32">
     <path d="M 786.370909 97.2 
L 883.767273 97.2 
L 883.767273 67.2 
L 786.370909 67.2 
z
" style="fill: #ffffff; stroke: #000000; stroke-linejoin: miter"/>
    </g>
    <g id="text_30">
     <!-- $\Omega \cdot \frac{4 \cdot 6 \cdot 8}{3 \cdot 5 \cdot 7}$ -->
     <g transform="translate(811.489091 85.56) scale(0.12 -0.12)">
      <defs>
       <path id="DejaVuSans-38" d="M 2034 2216 
Q 1584 2216 1326 1975 
Q 1069 1734 1069 1313 
Q 1069 891 1326 650 
Q 1584 409 2034 409 
Q 2484 409 2743 651 
Q 3003 894 3003 1313 
Q 3003 1734 2745 1975 
Q 2488 2216 2034 2216 
z
M 1403 2484 
Q 997 2584 770 2862 
Q 544 3141 544 3541 
Q 544 4100 942 4425 
Q 1341 4750 2034 4750 
Q 2731 4750 3128 4425 
Q 3525 4100 3525 3541 
Q 3525 3141 3298 2862 
Q 3072 2584 2669 2484 
Q 3125 2378 3379 2068 
Q 3634 1759 3634 1313 
Q 3634 634 3220 271 
Q 2806 -91 2034 -91 
Q 1263 -91 848 271 
Q 434 634 434 1313 
Q 434 1759 690 2068 
Q 947 2378 1403 2484 
z
M 1172 3481 
Q 1172 3119 1398 2916 
Q 1625 2713 2034 2713 
Q 2441 2713 2670 2916 
Q 2900 3119 2900 3481 
Q 2900 3844 2670 4047 
Q 2441 4250 2034 4250 
Q 1625 4250 1398 4047 
Q 1172 3844 1172 3481 
z
" transform="scale(0.015625)"/>
      </defs>
      <use xlink:href="#DejaVuSans-3a9" transform="translate(0 0.254687)"/>
      <use xlink:href="#DejaVuSans-22c5" transform="translate(95.898438 0.254687)"/>
      <use xlink:href="#DejaVuSans-34" transform="translate(147.167969 45.046875) scale(0.7)"/>
      <use xlink:href="#DejaVuSans-22c5" transform="translate(205.341797 45.046875) scale(0.7)"/>
      <use xlink:href="#DejaVuSans-36" transform="translate(241.230469 45.046875) scale(0.7)"/>
      <use xlink:href="#DejaVuSans-22c5" transform="translate(299.404297 45.046875) scale(0.7)"/>
      <use xlink:href="#DejaVuSans-38" transform="translate(335.292969 45.046875) scale(0.7)"/>
      <use xlink:href="#DejaVuSans-33" transform="translate(147.167969 -39.151563) scale(0.7)"/>
      <use xlink:href="#DejaVuSans-22c5" transform="translate(205.341797 -39.151563) scale(0.7)"/>
      <use xlink:href="#DejaVuSans-35" transform="translate(241.230469 -39.151563) scale(0.7)"/>
      <use xlink:href="#DejaVuSans-22c5" transform="translate(299.404297 -39.151563) scale(0.7)"/>
      <use xlink:href="#DejaVuSans-37" transform="translate(335.292969 -39.151563) scale(0.7)"/>
      <path d="M 147.167969 19.051563 
L 147.167969 25.301563 
L 379.829102 25.301563 
L 379.829102 19.051563 
L 147.167969 19.051563 
z
"/>
     </g>
    </g>
    <g id="patch_33">
     <path d="M 883.767273 97.2 
L 981.163636 97.2 
L 981.163636 67.2 
L 883.767273 67.2 
z
" style="fill: #ffffff; stroke: #000000; stroke-linejoin: miter"/>
    </g>
    <g id="text_31">
     <!-- $\frac{3 \cdot 5 \cdot 7 \cdot 9}{2 \cdot 4 \cdot 6 \cdot 8}$ -->
     <g transform="translate(912.065455 85.56) scale(0.12 -0.12)">
      <defs>
       <path id="DejaVuSans-39" d="M 703 97 
L 703 672 
Q 941 559 1184 500 
Q 1428 441 1663 441 
Q 2288 441 2617 861 
Q 2947 1281 2994 2138 
Q 2813 1869 2534 1725 
Q 2256 1581 1919 1581 
Q 1219 1581 811 2004 
Q 403 2428 403 3163 
Q 403 3881 828 4315 
Q 1253 4750 1959 4750 
Q 2769 4750 3195 4129 
Q 3622 3509 3622 2328 
Q 3622 1225 3098 567 
Q 2575 -91 1691 -91 
Q 1453 -91 1209 -44 
Q 966 3 703 97 
z
M 1959 2075 
Q 2384 2075 2632 2365 
Q 2881 2656 2881 3163 
Q 2881 3666 2632 3958 
Q 2384 4250 1959 4250 
Q 1534 4250 1286 3958 
Q 1038 3666 1038 3163 
Q 1038 2656 1286 2365 
Q 1534 2075 1959 2075 
z
" transform="scale(0.015625)"/>
      </defs>
      <use xlink:href="#DejaVuSans-33" transform="translate(0 45.046875) scale(0.7)"/>
      <use xlink:href="#DejaVuSans-22c5" transform="translate(58.173828 45.046875) scale(0.7)"/>
      <use xlink:href="#DejaVuSans-35" transform="translate(94.0625 45.046875) scale(0.7)"/>
      <use xlink:href="#DejaVuSans-22c5" transform="translate(152.236328 45.046875) scale(0.7)"/>
      <use xlink:href="#DejaVuSans-37" transform="translate(188.125 45.046875) scale(0.7)"/>
      <use xlink:href="#DejaVuSans-22c5" transform="translate(246.298828 45.046875) scale(0.7)"/>
      <use xlink:href="#DejaVuSans-39" transform="translate(282.1875 45.046875) scale(0.7)"/>
      <use xlink:href="#DejaVuSans-32" transform="translate(0 -39.151563) scale(0.7)"/>
      <use xlink:href="#DejaVuSans-22c5" transform="translate(58.173828 -39.151563) scale(0.7)"/>
      <use xlink:href="#DejaVuSans-34" transform="translate(94.0625 -39.151563) scale(0.7)"/>
      <use xlink:href="#DejaVuSans-22c5" transform="translate(152.236328 -39.151563) scale(0.7)"/>
      <use xlink:href="#DejaVuSans-36" transform="translate(188.125 -39.151563) scale(0.7)"/>
      <use xlink:href="#DejaVuSans-22c5" transform="translate(246.298828 -39.151563) scale(0.7)"/>
      <use xlink:href="#DejaVuSans-38" transform="translate(282.1875 -39.151563) scale(0.7)"/>
      <path d="M 0 19.051563 
L 0 25.301563 
L 326.723633 25.301563 
L 326.723633 19.051563 
L 0 19.051563 
z
"/>
     </g>
    </g>
    <g id="patch_34">
     <path d="M 981.163636 97.2 
M 1070.443636 97.2 
M 1070.443636 67.2 
M 981.163636 67.2 
L 981.163636 97.2 
" style="fill: #ffffff; stroke: #000000; stroke-linejoin: miter"/>
    </g>
    <g id="patch_35">
     <path d="M 7.2 127.2 
L 104.596364 127.2 
L 104.596364 97.2 
L 7.2 97.2 
z
" style="fill: #add8e6; stroke: #000000; stroke-linejoin: miter"/>
    </g>
    <g id="text_32">
     <!-- 1 -->
     <g transform="translate(52.080682 115.51125) scale(0.12 -0.12)">
      <use xlink:href="#DejaVuSans-31"/>
     </g>
    </g>
    <g id="patch_36">
     <path d="M 104.596364 127.2 
L 201.992727 127.2 
L 201.992727 97.2 
L 104.596364 97.2 
z
" style="fill: #ffffff; stroke: #000000; stroke-linejoin: miter"/>
    </g>
    <g id="text_33">
     <!-- 1 -->
     <g transform="translate(149.477045 115.51125) scale(0.12 -0.12)">
      <use xlink:href="#DejaVuSans-31"/>
     </g>
    </g>
    <g id="patch_37">
     <path d="M 201.992727 127.2 
L 299.389091 127.2 
L 299.389091 97.2 
L 201.992727 97.2 
z
" style="fill: #ffffff; stroke: #000000; stroke-linejoin: miter"/>
    </g>
    <g id="text_34">
     <!-- $\frac{3}{2}$ -->
     <g transform="translate(247.210909 115.62) scale(0.12 -0.12)">
      <use xlink:href="#DejaVuSans-33" transform="translate(0 45.046875) scale(0.7)"/>
      <use xlink:href="#DejaVuSans-32" transform="translate(0 -39.151563) scale(0.7)"/>
      <path d="M 0 19.051563 
L 0 25.301563 
L 44.536133 25.301563 
L 44.536133 19.051563 
L 0 19.051563 
z
"/>
     </g>
    </g>
    <g id="patch_38">
     <path d="M 299.389091 127.2 
L 396.785455 127.2 
L 396.785455 97.2 
L 299.389091 97.2 
z
" style="fill: #ffffff; stroke: #000000; stroke-linejoin: miter"/>
    </g>
    <g id="text_35">
     <!-- 2 -->
     <g transform="translate(344.269773 115.51125) scale(0.12 -0.12)">
      <use xlink:href="#DejaVuSans-32"/>
     </g>
    </g>
    <g id="patch_39">
     <path d="M 396.785455 127.2 
L 494.181818 127.2 
L 494.181818 97.2 
L 396.785455 97.2 
z
" style="fill: #ffffff; stroke: #000000; stroke-linejoin: miter"/>
    </g>
    <g id="text_36">
     <!-- $\frac{5}{2}$ -->
     <g transform="translate(442.003636 115.56) scale(0.12 -0.12)">
      <use xlink:href="#DejaVuSans-35" transform="translate(0 44.965625) scale(0.7)"/>
      <use xlink:href="#DejaVuSans-32" transform="translate(0 -39.232812) scale(0.7)"/>
      <path d="M 0 18.970313 
L 0 25.220313 
L 44.536133 25.220313 
L 44.536133 18.970313 
L 0 18.970313 
z
"/>
     </g>
    </g>
    <g id="patch_40">
     <path d="M 494.181818 127.2 
L 591.578182 127.2 
L 591.578182 97.2 
L 494.181818 97.2 
z
" style="fill: #ffffff; stroke: #000000; stroke-linejoin: miter"/>
    </g>
    <g id="text_37">
     <!-- 3 -->
     <g transform="translate(539.0625 115.51125) scale(0.12 -0.12)">
      <use xlink:href="#DejaVuSans-33"/>
     </g>
    </g>
    <g id="patch_41">
     <path d="M 591.578182 127.2 
L 688.974545 127.2 
L 688.974545 97.2 
L 591.578182 97.2 
z
" style="fill: #ffffff; stroke: #000000; stroke-linejoin: miter"/>
    </g>
    <g id="text_38">
     <!-- $\frac{7}{2}$ -->
     <g transform="translate(636.796364 115.5) scale(0.12 -0.12)">
      <use xlink:href="#DejaVuSans-37" transform="translate(0 43.965625) scale(0.7)"/>
      <use xlink:href="#DejaVuSans-32" transform="translate(0 -39.2375) scale(0.7)"/>
      <path d="M 0 18.965625 
L 0 25.215625 
L 44.536133 25.215625 
L 44.536133 18.965625 
L 0 18.965625 
z
"/>
     </g>
    </g>
    <g id="patch_42">
     <path d="M 688.974545 127.2 
L 786.370909 127.2 
L 786.370909 97.2 
L 688.974545 97.2 
z
" style="fill: #ffffff; stroke: #000000; stroke-linejoin: miter"/>
    </g>
    <g id="text_39">
     <!-- 4 -->
     <g transform="translate(733.855227 115.51125) scale(0.12 -0.12)">
      <use xlink:href="#DejaVuSans-34"/>
     </g>
    </g>
    <g id="patch_43">
     <path d="M 786.370909 127.2 
L 883.767273 127.2 
L 883.767273 97.2 
L 786.370909 97.2 
z
" style="fill: #ffffff; stroke: #000000; stroke-linejoin: miter"/>
    </g>
    <g id="text_40">
     <!-- $\frac{9}{2}$ -->
     <g transform="translate(831.589091 115.62) scale(0.12 -0.12)">
      <use xlink:href="#DejaVuSans-39" transform="translate(0 45.046875) scale(0.7)"/>
      <use xlink:href="#DejaVuSans-32" transform="translate(0 -39.151563) scale(0.7)"/>
      <path d="M 0 19.051563 
L 0 25.301563 
L 44.536133 25.301563 
L 44.536133 19.051563 
L 0 19.051563 
z
"/>
     </g>
    </g>
    <g id="patch_44">
     <path d="M 883.767273 127.2 
L 981.163636 127.2 
L 981.163636 97.2 
L 883.767273 97.2 
z
" style="fill: #ffffff; stroke: #000000; stroke-linejoin: miter"/>
    </g>
    <g id="text_41">
     <!-- 5 -->
     <g transform="translate(928.647955 115.51125) scale(0.12 -0.12)">
      <use xlink:href="#DejaVuSans-35"/>
     </g>
    </g>
    <g id="patch_45">
     <path d="M 981.163636 127.2 
M 1070.443636 127.2 
M 1070.443636 97.2 
M 981.163636 97.2 
L 981.163636 127.2 
" style="fill: #ffffff; stroke: #000000; stroke-linejoin: miter"/>
    </g>
    <g id="text_42">
     <!-- $s$ -->
     <g transform="translate(990.091636 115.51125) scale(0.12 -0.12)">
      <defs>
       <path id="DejaVuSans-Oblique-73" d="M 3200 3397 
L 3091 2853 
Q 2863 2978 2609 3040 
Q 2356 3103 2088 3103 
Q 1634 3103 1373 2948 
Q 1113 2794 1113 2528 
Q 1113 2219 1719 2053 
Q 1766 2041 1788 2034 
L 1972 1978 
Q 2547 1819 2739 1644 
Q 2931 1469 2931 1166 
Q 2931 609 2489 259 
Q 2047 -91 1331 -91 
Q 1053 -91 747 -37 
Q 441 16 72 128 
L 184 722 
Q 500 559 806 475 
Q 1113 391 1394 391 
Q 1816 391 2080 572 
Q 2344 753 2344 1031 
Q 2344 1331 1650 1516 
L 1591 1531 
L 1394 1581 
Q 956 1697 753 1886 
Q 550 2075 550 2369 
Q 550 2928 970 3256 
Q 1391 3584 2113 3584 
Q 2397 3584 2667 3537 
Q 2938 3491 3200 3397 
z
" transform="scale(0.015625)"/>
      </defs>
      <use xlink:href="#DejaVuSans-Oblique-73"/>
     </g>
    </g>
    <g id="patch_46">
     <path d="M 7.2 157.2 
L 104.596364 157.2 
L 104.596364 127.2 
L 7.2 127.2 
z
" style="fill: #add8e6; stroke: #000000; stroke-linejoin: miter"/>
    </g>
    <g id="text_43">
     <!-- 3/2 -->
     <g transform="translate(46.241932 145.51125) scale(0.12 -0.12)">
      <use xlink:href="#DejaVuSans-33"/>
      <use xlink:href="#DejaVuSans-2f" transform="translate(63.623047 0)"/>
      <use xlink:href="#DejaVuSans-32" transform="translate(97.314453 0)"/>
     </g>
    </g>
    <g id="patch_47">
     <path d="M 104.596364 157.2 
L 201.992727 157.2 
L 201.992727 127.2 
L 104.596364 127.2 
z
" style="fill: #ffffff; stroke: #000000; stroke-linejoin: miter"/>
    </g>
    <g id="text_44">
     <!-- 1 -->
     <g transform="translate(149.477045 145.51125) scale(0.12 -0.12)">
      <use xlink:href="#DejaVuSans-31"/>
     </g>
    </g>
    <g id="patch_48">
     <path d="M 201.992727 157.2 
L 299.389091 157.2 
L 299.389091 127.2 
L 201.992727 127.2 
z
" style="fill: #ffffff; stroke: #000000; stroke-linejoin: miter"/>
    </g>
    <g id="text_45">
     <!-- $\Omega \cdot \frac{4}{3}$ -->
     <g transform="translate(238.390909 145.44) scale(0.12 -0.12)">
      <use xlink:href="#DejaVuSans-3a9" transform="translate(0 0.16875)"/>
      <use xlink:href="#DejaVuSans-22c5" transform="translate(95.898438 0.16875)"/>
      <use xlink:href="#DejaVuSans-34" transform="translate(147.167969 43.965625) scale(0.7)"/>
      <use xlink:href="#DejaVuSans-33" transform="translate(147.167969 -39.2375) scale(0.7)"/>
      <path d="M 147.167969 18.965625 
L 147.167969 25.215625 
L 191.704102 25.215625 
L 191.704102 18.965625 
L 147.167969 18.965625 
z
"/>
     </g>
    </g>
    <g id="patch_49">
     <path d="M 299.389091 157.2 
L 396.785455 157.2 
L 396.785455 127.2 
L 299.389091 127.2 
z
" style="fill: #ffffff; stroke: #000000; stroke-linejoin: miter"/>
    </g>
    <g id="text_46">
     <!-- $\frac{5}{2}$ -->
     <g transform="translate(344.607273 145.56) scale(0.12 -0.12)">
      <use xlink:href="#DejaVuSans-35" transform="translate(0 44.965625) scale(0.7)"/>
      <use xlink:href="#DejaVuSans-32" transform="translate(0 -39.232812) scale(0.7)"/>
      <path d="M 0 18.970313 
L 0 25.220313 
L 44.536133 25.220313 
L 44.536133 18.970313 
L 0 18.970313 
z
"/>
     </g>
    </g>
    <g id="patch_50">
     <path d="M 396.785455 157.2 
L 494.181818 157.2 
L 494.181818 127.2 
L 396.785455 127.2 
z
" style="fill: #ffffff; stroke: #000000; stroke-linejoin: miter"/>
    </g>
    <g id="text_47">
     <!-- $\Omega \cdot \frac{4 \cdot 6}{3 \cdot 3}$ -->
     <g transform="translate(427.543636 145.56) scale(0.12 -0.12)">
      <use xlink:href="#DejaVuSans-3a9" transform="translate(0 0.254687)"/>
      <use xlink:href="#DejaVuSans-22c5" transform="translate(95.898438 0.254687)"/>
      <use xlink:href="#DejaVuSans-34" transform="translate(147.167969 45.046875) scale(0.7)"/>
      <use xlink:href="#DejaVuSans-22c5" transform="translate(205.341797 45.046875) scale(0.7)"/>
      <use xlink:href="#DejaVuSans-36" transform="translate(241.230469 45.046875) scale(0.7)"/>
      <use xlink:href="#DejaVuSans-33" transform="translate(147.167969 -39.151563) scale(0.7)"/>
      <use xlink:href="#DejaVuSans-22c5" transform="translate(205.341797 -39.151563) scale(0.7)"/>
      <use xlink:href="#DejaVuSans-33" transform="translate(241.230469 -39.151563) scale(0.7)"/>
      <path d="M 147.167969 19.051563 
L 147.167969 25.301563 
L 285.766602 25.301563 
L 285.766602 19.051563 
L 147.167969 19.051563 
z
"/>
     </g>
    </g>
    <g id="patch_51">
     <path d="M 494.181818 157.2 
L 591.578182 157.2 
L 591.578182 127.2 
L 494.181818 127.2 
z
" style="fill: #ffffff; stroke: #000000; stroke-linejoin: miter"/>
    </g>
    <g id="text_48">
     <!-- $\frac{5 \cdot 7}{2 \cdot 4}$ -->
     <g transform="translate(533.76 145.56) scale(0.12 -0.12)">
      <use xlink:href="#DejaVuSans-35" transform="translate(0 44.965625) scale(0.7)"/>
      <use xlink:href="#DejaVuSans-22c5" transform="translate(58.173828 44.965625) scale(0.7)"/>
      <use xlink:href="#DejaVuSans-37" transform="translate(94.0625 44.965625) scale(0.7)"/>
      <use xlink:href="#DejaVuSans-32" transform="translate(0 -39.232812) scale(0.7)"/>
      <use xlink:href="#DejaVuSans-22c5" transform="translate(58.173828 -39.232812) scale(0.7)"/>
      <use xlink:href="#DejaVuSans-34" transform="translate(94.0625 -39.232812) scale(0.7)"/>
      <path d="M 0 18.970313 
L 0 25.220313 
L 138.598633 25.220313 
L 138.598633 18.970313 
L 0 18.970313 
z
"/>
     </g>
    </g>
    <g id="patch_52">
     <path d="M 591.578182 157.2 
L 688.974545 157.2 
L 688.974545 127.2 
L 591.578182 127.2 
z
" style="fill: #ffffff; stroke: #000000; stroke-linejoin: miter"/>
    </g>
    <g id="text_49">
     <!-- $\Omega \cdot \frac{4 \cdot 6 \cdot 8}{3 \cdot 3 \cdot 5}$ -->
     <g transform="translate(616.696364 145.56) scale(0.12 -0.12)">
      <use xlink:href="#DejaVuSans-3a9" transform="translate(0 0.254687)"/>
      <use xlink:href="#DejaVuSans-22c5" transform="translate(95.898438 0.254687)"/>
      <use xlink:href="#DejaVuSans-34" transform="translate(147.167969 45.046875) scale(0.7)"/>
      <use xlink:href="#DejaVuSans-22c5" transform="translate(205.341797 45.046875) scale(0.7)"/>
      <use xlink:href="#DejaVuSans-36" transform="translate(241.230469 45.046875) scale(0.7)"/>
      <use xlink:href="#DejaVuSans-22c5" transform="translate(299.404297 45.046875) scale(0.7)"/>
      <use xlink:href="#DejaVuSans-38" transform="translate(335.292969 45.046875) scale(0.7)"/>
      <use xlink:href="#DejaVuSans-33" transform="translate(147.167969 -39.151563) scale(0.7)"/>
      <use xlink:href="#DejaVuSans-22c5" transform="translate(205.341797 -39.151563) scale(0.7)"/>
      <use xlink:href="#DejaVuSans-33" transform="translate(241.230469 -39.151563) scale(0.7)"/>
      <use xlink:href="#DejaVuSans-22c5" transform="translate(299.404297 -39.151563) scale(0.7)"/>
      <use xlink:href="#DejaVuSans-35" transform="translate(335.292969 -39.151563) scale(0.7)"/>
      <path d="M 147.167969 19.051563 
L 147.167969 25.301563 
L 379.829102 25.301563 
L 379.829102 19.051563 
L 147.167969 19.051563 
z
"/>
     </g>
    </g>
    <g id="patch_53">
     <path d="M 688.974545 157.2 
L 786.370909 157.2 
L 786.370909 127.2 
L 688.974545 127.2 
z
" style="fill: #ffffff; stroke: #000000; stroke-linejoin: miter"/>
    </g>
    <g id="text_50">
     <!-- $\frac{5 \cdot 7 \cdot 9}{2 \cdot 4 \cdot 6}$ -->
     <g transform="translate(722.912727 145.56) scale(0.12 -0.12)">
      <use xlink:href="#DejaVuSans-35" transform="translate(0 45.046875) scale(0.7)"/>
      <use xlink:href="#DejaVuSans-22c5" transform="translate(58.173828 45.046875) scale(0.7)"/>
      <use xlink:href="#DejaVuSans-37" transform="translate(94.0625 45.046875) scale(0.7)"/>
      <use xlink:href="#DejaVuSans-22c5" transform="translate(152.236328 45.046875) scale(0.7)"/>
      <use xlink:href="#DejaVuSans-39" transform="translate(188.125 45.046875) scale(0.7)"/>
      <use xlink:href="#DejaVuSans-32" transform="translate(0 -39.151563) scale(0.7)"/>
      <use xlink:href="#DejaVuSans-22c5" transform="translate(58.173828 -39.151563) scale(0.7)"/>
      <use xlink:href="#DejaVuSans-34" transform="translate(94.0625 -39.151563) scale(0.7)"/>
      <use xlink:href="#DejaVuSans-22c5" transform="translate(152.236328 -39.151563) scale(0.7)"/>
      <use xlink:href="#DejaVuSans-36" transform="translate(188.125 -39.151563) scale(0.7)"/>
      <path d="M 0 19.051563 
L 0 25.301563 
L 232.661133 25.301563 
L 232.661133 19.051563 
L 0 19.051563 
z
"/>
     </g>
    </g>
    <g id="patch_54">
     <path d="M 786.370909 157.2 
L 883.767273 157.2 
L 883.767273 127.2 
L 786.370909 127.2 
z
" style="fill: #ffffff; stroke: #000000; stroke-linejoin: miter"/>
    </g>
    <g id="text_51">
     <!-- $\Omega \cdot \frac{4 \cdot 6 \cdot 8 \cdot 10}{3 \cdot 3 \cdot 5 \cdot 7}$ -->
     <g transform="translate(803.209091 145.56) scale(0.12 -0.12)">
      <use xlink:href="#DejaVuSans-3a9" transform="translate(0 0.254687)"/>
      <use xlink:href="#DejaVuSans-22c5" transform="translate(95.898438 0.254687)"/>
      <use xlink:href="#DejaVuSans-34" transform="translate(147.167969 45.046875) scale(0.7)"/>
      <use xlink:href="#DejaVuSans-22c5" transform="translate(205.341797 45.046875) scale(0.7)"/>
      <use xlink:href="#DejaVuSans-36" transform="translate(241.230469 45.046875) scale(0.7)"/>
      <use xlink:href="#DejaVuSans-22c5" transform="translate(299.404297 45.046875) scale(0.7)"/>
      <use xlink:href="#DejaVuSans-38" transform="translate(335.292969 45.046875) scale(0.7)"/>
      <use xlink:href="#DejaVuSans-22c5" transform="translate(393.466797 45.046875) scale(0.7)"/>
      <use xlink:href="#DejaVuSans-31" transform="translate(429.355469 45.046875) scale(0.7)"/>
      <use xlink:href="#DejaVuSans-30" transform="translate(473.891602 45.046875) scale(0.7)"/>
      <use xlink:href="#DejaVuSans-33" transform="translate(169.167969 -39.151563) scale(0.7)"/>
      <use xlink:href="#DejaVuSans-22c5" transform="translate(227.341797 -39.151563) scale(0.7)"/>
      <use xlink:href="#DejaVuSans-33" transform="translate(263.230469 -39.151563) scale(0.7)"/>
      <use xlink:href="#DejaVuSans-22c5" transform="translate(321.404297 -39.151563) scale(0.7)"/>
      <use xlink:href="#DejaVuSans-35" transform="translate(357.292969 -39.151563) scale(0.7)"/>
      <use xlink:href="#DejaVuSans-22c5" transform="translate(415.466797 -39.151563) scale(0.7)"/>
      <use xlink:href="#DejaVuSans-37" transform="translate(451.355469 -39.151563) scale(0.7)"/>
      <path d="M 147.167969 19.051563 
L 147.167969 25.301563 
L 518.427734 25.301563 
L 518.427734 19.051563 
L 147.167969 19.051563 
z
"/>
     </g>
    </g>
    <g id="patch_55">
     <path d="M 883.767273 157.2 
L 981.163636 157.2 
L 981.163636 127.2 
L 883.767273 127.2 
z
" style="fill: #ffffff; stroke: #000000; stroke-linejoin: miter"/>
    </g>
    <g id="text_52">
     <!-- $\frac{5 \cdot 7 \cdot 9 \cdot 11}{2 \cdot 4 \cdot 6 \cdot 8}$ -->
     <g transform="translate(909.425455 145.56) scale(0.12 -0.12)">
      <use xlink:href="#DejaVuSans-35" transform="translate(0 45.046875) scale(0.7)"/>
      <use xlink:href="#DejaVuSans-22c5" transform="translate(58.173828 45.046875) scale(0.7)"/>
      <use xlink:href="#DejaVuSans-37" transform="translate(94.0625 45.046875) scale(0.7)"/>
      <use xlink:href="#DejaVuSans-22c5" transform="translate(152.236328 45.046875) scale(0.7)"/>
      <use xlink:href="#DejaVuSans-39" transform="translate(188.125 45.046875) scale(0.7)"/>
      <use xlink:href="#DejaVuSans-22c5" transform="translate(246.298828 45.046875) scale(0.7)"/>
      <use xlink:href="#DejaVuSans-31" transform="translate(282.1875 45.046875) scale(0.7)"/>
      <use xlink:href="#DejaVuSans-31" transform="translate(326.723633 45.046875) scale(0.7)"/>
      <use xlink:href="#DejaVuSans-32" transform="translate(22 -39.151563) scale(0.7)"/>
      <use xlink:href="#DejaVuSans-22c5" transform="translate(80.173828 -39.151563) scale(0.7)"/>
      <use xlink:href="#DejaVuSans-34" transform="translate(116.0625 -39.151563) scale(0.7)"/>
      <use xlink:href="#DejaVuSans-22c5" transform="translate(174.236328 -39.151563) scale(0.7)"/>
      <use xlink:href="#DejaVuSans-36" transform="translate(210.125 -39.151563) scale(0.7)"/>
      <use xlink:href="#DejaVuSans-22c5" transform="translate(268.298828 -39.151563) scale(0.7)"/>
      <use xlink:href="#DejaVuSans-38" transform="translate(304.1875 -39.151563) scale(0.7)"/>
      <path d="M 0 19.051563 
L 0 25.301563 
L 371.259766 25.301563 
L 371.259766 19.051563 
L 0 19.051563 
z
"/>
     </g>
    </g>
    <g id="patch_56">
     <path d="M 981.163636 157.2 
M 1070.443636 157.2 
M 1070.443636 127.2 
M 981.163636 127.2 
L 981.163636 157.2 
" style="fill: #ffffff; stroke: #000000; stroke-linejoin: miter"/>
    </g>
    <g id="patch_57">
     <path d="M 7.2 187.2 
L 104.596364 187.2 
L 104.596364 157.2 
L 7.2 157.2 
z
" style="fill: #add8e6; stroke: #000000; stroke-linejoin: miter"/>
    </g>
    <g id="text_53">
     <!-- 2 -->
     <g transform="translate(52.080682 175.51125) scale(0.12 -0.12)">
      <use xlink:href="#DejaVuSans-32"/>
     </g>
    </g>
    <g id="patch_58">
     <path d="M 104.596364 187.2 
L 201.992727 187.2 
L 201.992727 157.2 
L 104.596364 157.2 
z
" style="fill: #ffffff; stroke: #000000; stroke-linejoin: miter"/>
    </g>
    <g id="text_54">
     <!-- 1 -->
     <g transform="translate(149.477045 175.51125) scale(0.12 -0.12)">
      <use xlink:href="#DejaVuSans-31"/>
     </g>
    </g>
    <g id="patch_59">
     <path d="M 201.992727 187.2 
L 299.389091 187.2 
L 299.389091 157.2 
L 201.992727 157.2 
z
" style="fill: #ffffff; stroke: #000000; stroke-linejoin: miter"/>
    </g>
    <g id="text_55">
     <!-- $\frac{15}{8}$ -->
     <g transform="translate(244.570909 175.5) scale(0.12 -0.12)">
      <use xlink:href="#DejaVuSans-31" transform="translate(0 44.965625) scale(0.7)"/>
      <use xlink:href="#DejaVuSans-35" transform="translate(44.536133 44.965625) scale(0.7)"/>
      <use xlink:href="#DejaVuSans-38" transform="translate(22 -39.232812) scale(0.7)"/>
      <path d="M 0 18.970313 
L 0 25.220313 
L 89.072266 25.220313 
L 89.072266 18.970313 
L 0 18.970313 
z
"/>
     </g>
    </g>
    <g id="patch_60">
     <path d="M 299.389091 187.2 
L 396.785455 187.2 
L 396.785455 157.2 
L 299.389091 157.2 
z
" style="fill: #ffffff; stroke: #000000; stroke-linejoin: miter"/>
    </g>
    <g id="text_56">
     <!-- 3 -->
     <g transform="translate(344.269773 175.51125) scale(0.12 -0.12)">
      <use xlink:href="#DejaVuSans-33"/>
     </g>
    </g>
    <g id="patch_61">
     <path d="M 396.785455 187.2 
L 494.181818 187.2 
L 494.181818 157.2 
L 396.785455 157.2 
z
" style="fill: #ffffff; stroke: #000000; stroke-linejoin: miter"/>
    </g>
    <g id="text_57">
     <!-- $\frac{35}{8}$ -->
     <g transform="translate(439.363636 175.56) scale(0.12 -0.12)">
      <use xlink:href="#DejaVuSans-33" transform="translate(0 45.046875) scale(0.7)"/>
      <use xlink:href="#DejaVuSans-35" transform="translate(44.536133 45.046875) scale(0.7)"/>
      <use xlink:href="#DejaVuSans-38" transform="translate(22 -39.151563) scale(0.7)"/>
      <path d="M 0 19.051563 
L 0 25.301563 
L 89.072266 25.301563 
L 89.072266 19.051563 
L 0 19.051563 
z
"/>
     </g>
    </g>
    <g id="patch_62">
     <path d="M 494.181818 187.2 
L 591.578182 187.2 
L 591.578182 157.2 
L 494.181818 157.2 
z
" style="fill: #ffffff; stroke: #000000; stroke-linejoin: miter"/>
    </g>
    <g id="text_58">
     <!-- 6 -->
     <g transform="translate(539.0625 175.51125) scale(0.12 -0.12)">
      <use xlink:href="#DejaVuSans-36"/>
     </g>
    </g>
    <g id="patch_63">
     <path d="M 591.578182 187.2 
L 688.974545 187.2 
L 688.974545 157.2 
L 591.578182 157.2 
z
" style="fill: #ffffff; stroke: #000000; stroke-linejoin: miter"/>
    </g>
    <g id="text_59">
     <!-- $\frac{63}{8}$ -->
     <g transform="translate(634.156364 175.56) scale(0.12 -0.12)">
      <use xlink:href="#DejaVuSans-36" transform="translate(0 45.046875) scale(0.7)"/>
      <use xlink:href="#DejaVuSans-33" transform="translate(44.536133 45.046875) scale(0.7)"/>
      <use xlink:href="#DejaVuSans-38" transform="translate(22 -39.151563) scale(0.7)"/>
      <path d="M 0 19.051563 
L 0 25.301563 
L 89.072266 25.301563 
L 89.072266 19.051563 
L 0 19.051563 
z
"/>
     </g>
    </g>
    <g id="patch_64">
     <path d="M 688.974545 187.2 
L 786.370909 187.2 
L 786.370909 157.2 
L 688.974545 157.2 
z
" style="fill: #ffffff; stroke: #000000; stroke-linejoin: miter"/>
    </g>
    <g id="text_60">
     <!-- 10 -->
     <g transform="translate(730.037727 175.51125) scale(0.12 -0.12)">
      <use xlink:href="#DejaVuSans-31"/>
      <use xlink:href="#DejaVuSans-30" transform="translate(63.623047 0)"/>
     </g>
    </g>
    <g id="patch_65">
     <path d="M 786.370909 187.2 
L 883.767273 187.2 
L 883.767273 157.2 
L 786.370909 157.2 
z
" style="fill: #ffffff; stroke: #000000; stroke-linejoin: miter"/>
    </g>
    <g id="text_61">
     <!-- $\frac{99}{8}$ -->
     <g transform="translate(828.949091 175.56) scale(0.12 -0.12)">
      <use xlink:href="#DejaVuSans-39" transform="translate(0 45.046875) scale(0.7)"/>
      <use xlink:href="#DejaVuSans-39" transform="translate(44.536133 45.046875) scale(0.7)"/>
      <use xlink:href="#DejaVuSans-38" transform="translate(22 -39.151563) scale(0.7)"/>
      <path d="M 0 19.051563 
L 0 25.301563 
L 89.072266 25.301563 
L 89.072266 19.051563 
L 0 19.051563 
z
"/>
     </g>
    </g>
    <g id="patch_66">
     <path d="M 883.767273 187.2 
L 981.163636 187.2 
L 981.163636 157.2 
L 883.767273 157.2 
z
" style="fill: #ffffff; stroke: #000000; stroke-linejoin: miter"/>
    </g>
    <g id="text_62">
     <!-- 15 -->
     <g transform="translate(924.830455 175.51125) scale(0.12 -0.12)">
      <use xlink:href="#DejaVuSans-31"/>
      <use xlink:href="#DejaVuSans-35" transform="translate(63.623047 0)"/>
     </g>
    </g>
    <g id="patch_67">
     <path d="M 981.163636 187.2 
M 1070.443636 187.2 
M 1070.443636 157.2 
M 981.163636 157.2 
L 981.163636 187.2 
" style="fill: #ffffff; stroke: #000000; stroke-linejoin: miter"/>
    </g>
    <g id="text_63">
     <!-- $\frac{s^2 + s}{2}$ -->
     <g transform="translate(990.091636 176.28) scale(0.12 -0.12)">
      <defs>
       <path id="DejaVuSans-2b" d="M 2944 4013 
L 2944 2272 
L 4684 2272 
L 4684 1741 
L 2944 1741 
L 2944 0 
L 2419 0 
L 2419 1741 
L 678 1741 
L 678 2272 
L 2419 2272 
L 2419 4013 
L 2944 4013 
z
" transform="scale(0.015625)"/>
      </defs>
      <use xlink:href="#DejaVuSans-Oblique-73" transform="translate(0 44.835938) scale(0.7)"/>
      <use xlink:href="#DejaVuSans-32" transform="translate(39.724654 71.632812) scale(0.49)"/>
      <use xlink:href="#DejaVuSans-2b" transform="translate(86.451704 44.835938) scale(0.7)"/>
      <use xlink:href="#DejaVuSans-Oblique-73" transform="translate(158.741743 44.835938) scale(0.7)"/>
      <use xlink:href="#DejaVuSans-32" transform="translate(75 -39.3625) scale(0.7)"/>
      <path d="M 0 18.840625 
L 0 25.090625 
L 195.21147 25.090625 
L 195.21147 18.840625 
L 0 18.840625 
z
"/>
     </g>
    </g>
    <g id="patch_68">
     <path d="M 7.2 217.2 
L 104.596364 217.2 
L 104.596364 187.2 
L 7.2 187.2 
z
" style="fill: #add8e6; stroke: #000000; stroke-linejoin: miter"/>
    </g>
    <g id="text_64">
     <!-- 5/2 -->
     <g transform="translate(46.241932 205.51125) scale(0.12 -0.12)">
      <use xlink:href="#DejaVuSans-35"/>
      <use xlink:href="#DejaVuSans-2f" transform="translate(63.623047 0)"/>
      <use xlink:href="#DejaVuSans-32" transform="translate(97.314453 0)"/>
     </g>
    </g>
    <g id="patch_69">
     <path d="M 104.596364 217.2 
L 201.992727 217.2 
L 201.992727 187.2 
L 104.596364 187.2 
z
" style="fill: #ffffff; stroke: #000000; stroke-linejoin: miter"/>
    </g>
    <g id="text_65">
     <!-- 1 -->
     <g transform="translate(149.477045 205.51125) scale(0.12 -0.12)">
      <use xlink:href="#DejaVuSans-31"/>
     </g>
    </g>
    <g id="patch_70">
     <path d="M 201.992727 217.2 
L 299.389091 217.2 
L 299.389091 187.2 
L 201.992727 187.2 
z
" style="fill: #ffffff; stroke: #000000; stroke-linejoin: miter"/>
    </g>
    <g id="text_66">
     <!-- $\Omega \cdot \frac{4 \cdot 6}{3 \cdot 5}$ -->
     <g transform="translate(232.750909 205.56) scale(0.12 -0.12)">
      <use xlink:href="#DejaVuSans-3a9" transform="translate(0 0.254687)"/>
      <use xlink:href="#DejaVuSans-22c5" transform="translate(95.898438 0.254687)"/>
      <use xlink:href="#DejaVuSans-34" transform="translate(147.167969 45.046875) scale(0.7)"/>
      <use xlink:href="#DejaVuSans-22c5" transform="translate(205.341797 45.046875) scale(0.7)"/>
      <use xlink:href="#DejaVuSans-36" transform="translate(241.230469 45.046875) scale(0.7)"/>
      <use xlink:href="#DejaVuSans-33" transform="translate(147.167969 -39.151563) scale(0.7)"/>
      <use xlink:href="#DejaVuSans-22c5" transform="translate(205.341797 -39.151563) scale(0.7)"/>
      <use xlink:href="#DejaVuSans-35" transform="translate(241.230469 -39.151563) scale(0.7)"/>
      <path d="M 147.167969 19.051563 
L 147.167969 25.301563 
L 285.766602 25.301563 
L 285.766602 19.051563 
L 147.167969 19.051563 
z
"/>
     </g>
    </g>
    <g id="patch_71">
     <path d="M 299.389091 217.2 
L 396.785455 217.2 
L 396.785455 187.2 
L 299.389091 187.2 
z
" style="fill: #ffffff; stroke: #000000; stroke-linejoin: miter"/>
    </g>
    <g id="text_67">
     <!-- $\frac{7}{2}$ -->
     <g transform="translate(344.607273 205.5) scale(0.12 -0.12)">
      <use xlink:href="#DejaVuSans-37" transform="translate(0 43.965625) scale(0.7)"/>
      <use xlink:href="#DejaVuSans-32" transform="translate(0 -39.2375) scale(0.7)"/>
      <path d="M 0 18.965625 
L 0 25.215625 
L 44.536133 25.215625 
L 44.536133 18.965625 
L 0 18.965625 
z
"/>
     </g>
    </g>
    <g id="patch_72">
     <path d="M 396.785455 217.2 
L 494.181818 217.2 
L 494.181818 187.2 
L 396.785455 187.2 
z
" style="fill: #ffffff; stroke: #000000; stroke-linejoin: miter"/>
    </g>
    <g id="text_68">
     <!-- $\Omega \cdot \frac{4 \cdot 6 \cdot8}{3 \cdot 5 \cdot 3}$ -->
     <g transform="translate(421.903636 205.56) scale(0.12 -0.12)">
      <use xlink:href="#DejaVuSans-3a9" transform="translate(0 0.254687)"/>
      <use xlink:href="#DejaVuSans-22c5" transform="translate(95.898438 0.254687)"/>
      <use xlink:href="#DejaVuSans-34" transform="translate(147.167969 45.046875) scale(0.7)"/>
      <use xlink:href="#DejaVuSans-22c5" transform="translate(205.341797 45.046875) scale(0.7)"/>
      <use xlink:href="#DejaVuSans-36" transform="translate(241.230469 45.046875) scale(0.7)"/>
      <use xlink:href="#DejaVuSans-22c5" transform="translate(299.404297 45.046875) scale(0.7)"/>
      <use xlink:href="#DejaVuSans-38" transform="translate(335.292969 45.046875) scale(0.7)"/>
      <use xlink:href="#DejaVuSans-33" transform="translate(147.167969 -39.151563) scale(0.7)"/>
      <use xlink:href="#DejaVuSans-22c5" transform="translate(205.341797 -39.151563) scale(0.7)"/>
      <use xlink:href="#DejaVuSans-35" transform="translate(241.230469 -39.151563) scale(0.7)"/>
      <use xlink:href="#DejaVuSans-22c5" transform="translate(299.404297 -39.151563) scale(0.7)"/>
      <use xlink:href="#DejaVuSans-33" transform="translate(335.292969 -39.151563) scale(0.7)"/>
      <path d="M 147.167969 19.051563 
L 147.167969 25.301563 
L 379.829102 25.301563 
L 379.829102 19.051563 
L 147.167969 19.051563 
z
"/>
     </g>
    </g>
    <g id="patch_73">
     <path d="M 494.181818 217.2 
L 591.578182 217.2 
L 591.578182 187.2 
L 494.181818 187.2 
z
" style="fill: #ffffff; stroke: #000000; stroke-linejoin: miter"/>
    </g>
    <g id="text_69">
     <!-- $\frac{7 \cdot 9}{2 \cdot 4}$ -->
     <g transform="translate(533.76 205.62) scale(0.12 -0.12)">
      <use xlink:href="#DejaVuSans-37" transform="translate(0 45.046875) scale(0.7)"/>
      <use xlink:href="#DejaVuSans-22c5" transform="translate(58.173828 45.046875) scale(0.7)"/>
      <use xlink:href="#DejaVuSans-39" transform="translate(94.0625 45.046875) scale(0.7)"/>
      <use xlink:href="#DejaVuSans-32" transform="translate(0 -39.151563) scale(0.7)"/>
      <use xlink:href="#DejaVuSans-22c5" transform="translate(58.173828 -39.151563) scale(0.7)"/>
      <use xlink:href="#DejaVuSans-34" transform="translate(94.0625 -39.151563) scale(0.7)"/>
      <path d="M 0 19.051563 
L 0 25.301563 
L 138.598633 25.301563 
L 138.598633 19.051563 
L 0 19.051563 
z
"/>
     </g>
    </g>
    <g id="patch_74">
     <path d="M 591.578182 217.2 
L 688.974545 217.2 
L 688.974545 187.2 
L 591.578182 187.2 
z
" style="fill: #ffffff; stroke: #000000; stroke-linejoin: miter"/>
    </g>
    <g id="text_70">
     <!-- $\Omega \cdot \frac{4 \cdot 6 \cdot 8 \cdot 10}{3 \cdot 5 \cdot 3 \cdot 5}$ -->
     <g transform="translate(608.416364 205.56) scale(0.12 -0.12)">
      <use xlink:href="#DejaVuSans-3a9" transform="translate(0 0.254687)"/>
      <use xlink:href="#DejaVuSans-22c5" transform="translate(95.898438 0.254687)"/>
      <use xlink:href="#DejaVuSans-34" transform="translate(147.167969 45.046875) scale(0.7)"/>
      <use xlink:href="#DejaVuSans-22c5" transform="translate(205.341797 45.046875) scale(0.7)"/>
      <use xlink:href="#DejaVuSans-36" transform="translate(241.230469 45.046875) scale(0.7)"/>
      <use xlink:href="#DejaVuSans-22c5" transform="translate(299.404297 45.046875) scale(0.7)"/>
      <use xlink:href="#DejaVuSans-38" transform="translate(335.292969 45.046875) scale(0.7)"/>
      <use xlink:href="#DejaVuSans-22c5" transform="translate(393.466797 45.046875) scale(0.7)"/>
      <use xlink:href="#DejaVuSans-31" transform="translate(429.355469 45.046875) scale(0.7)"/>
      <use xlink:href="#DejaVuSans-30" transform="translate(473.891602 45.046875) scale(0.7)"/>
      <use xlink:href="#DejaVuSans-33" transform="translate(169.167969 -39.151563) scale(0.7)"/>
      <use xlink:href="#DejaVuSans-22c5" transform="translate(227.341797 -39.151563) scale(0.7)"/>
      <use xlink:href="#DejaVuSans-35" transform="translate(263.230469 -39.151563) scale(0.7)"/>
      <use xlink:href="#DejaVuSans-22c5" transform="translate(321.404297 -39.151563) scale(0.7)"/>
      <use xlink:href="#DejaVuSans-33" transform="translate(357.292969 -39.151563) scale(0.7)"/>
      <use xlink:href="#DejaVuSans-22c5" transform="translate(415.466797 -39.151563) scale(0.7)"/>
      <use xlink:href="#DejaVuSans-35" transform="translate(451.355469 -39.151563) scale(0.7)"/>
      <path d="M 147.167969 19.051563 
L 147.167969 25.301563 
L 518.427734 25.301563 
L 518.427734 19.051563 
L 147.167969 19.051563 
z
"/>
     </g>
    </g>
    <g id="patch_75">
     <path d="M 688.974545 217.2 
L 786.370909 217.2 
L 786.370909 187.2 
L 688.974545 187.2 
z
" style="fill: #ffffff; stroke: #000000; stroke-linejoin: miter"/>
    </g>
    <g id="text_71">
     <!-- $\frac{7 \cdot 9 \cdot 11}{2 \cdot 4 \cdot 6}$ -->
     <g transform="translate(720.272727 205.56) scale(0.12 -0.12)">
      <use xlink:href="#DejaVuSans-37" transform="translate(0 45.046875) scale(0.7)"/>
      <use xlink:href="#DejaVuSans-22c5" transform="translate(58.173828 45.046875) scale(0.7)"/>
      <use xlink:href="#DejaVuSans-39" transform="translate(94.0625 45.046875) scale(0.7)"/>
      <use xlink:href="#DejaVuSans-22c5" transform="translate(152.236328 45.046875) scale(0.7)"/>
      <use xlink:href="#DejaVuSans-31" transform="translate(188.125 45.046875) scale(0.7)"/>
      <use xlink:href="#DejaVuSans-31" transform="translate(232.661133 45.046875) scale(0.7)"/>
      <use xlink:href="#DejaVuSans-32" transform="translate(22 -39.151563) scale(0.7)"/>
      <use xlink:href="#DejaVuSans-22c5" transform="translate(80.173828 -39.151563) scale(0.7)"/>
      <use xlink:href="#DejaVuSans-34" transform="translate(116.0625 -39.151563) scale(0.7)"/>
      <use xlink:href="#DejaVuSans-22c5" transform="translate(174.236328 -39.151563) scale(0.7)"/>
      <use xlink:href="#DejaVuSans-36" transform="translate(210.125 -39.151563) scale(0.7)"/>
      <path d="M 0 19.051563 
L 0 25.301563 
L 277.197266 25.301563 
L 277.197266 19.051563 
L 0 19.051563 
z
"/>
     </g>
    </g>
    <g id="patch_76">
     <path d="M 786.370909 217.2 
L 883.767273 217.2 
L 883.767273 187.2 
L 786.370909 187.2 
z
" style="fill: #ffffff; stroke: #000000; stroke-linejoin: miter"/>
    </g>
    <g id="text_72">
     <!-- $\Omega \cdot \frac{4 \cdot 6 \cdot 8 \cdot 10 \cdot 12}{3 \cdot 5 \cdot 3 \cdot 5 \cdot 7}$ -->
     <g transform="translate(794.869091 205.56) scale(0.12 -0.12)">
      <use xlink:href="#DejaVuSans-3a9" transform="translate(0 0.254687)"/>
      <use xlink:href="#DejaVuSans-22c5" transform="translate(95.898438 0.254687)"/>
      <use xlink:href="#DejaVuSans-34" transform="translate(147.167969 45.046875) scale(0.7)"/>
      <use xlink:href="#DejaVuSans-22c5" transform="translate(205.341797 45.046875) scale(0.7)"/>
      <use xlink:href="#DejaVuSans-36" transform="translate(241.230469 45.046875) scale(0.7)"/>
      <use xlink:href="#DejaVuSans-22c5" transform="translate(299.404297 45.046875) scale(0.7)"/>
      <use xlink:href="#DejaVuSans-38" transform="translate(335.292969 45.046875) scale(0.7)"/>
      <use xlink:href="#DejaVuSans-22c5" transform="translate(393.466797 45.046875) scale(0.7)"/>
      <use xlink:href="#DejaVuSans-31" transform="translate(429.355469 45.046875) scale(0.7)"/>
      <use xlink:href="#DejaVuSans-30" transform="translate(473.891602 45.046875) scale(0.7)"/>
      <use xlink:href="#DejaVuSans-22c5" transform="translate(532.06543 45.046875) scale(0.7)"/>
      <use xlink:href="#DejaVuSans-31" transform="translate(567.954102 45.046875) scale(0.7)"/>
      <use xlink:href="#DejaVuSans-32" transform="translate(612.490234 45.046875) scale(0.7)"/>
      <use xlink:href="#DejaVuSans-33" transform="translate(192.167969 -39.151563) scale(0.7)"/>
      <use xlink:href="#DejaVuSans-22c5" transform="translate(250.341797 -39.151563) scale(0.7)"/>
      <use xlink:href="#DejaVuSans-35" transform="translate(286.230469 -39.151563) scale(0.7)"/>
      <use xlink:href="#DejaVuSans-22c5" transform="translate(344.404297 -39.151563) scale(0.7)"/>
      <use xlink:href="#DejaVuSans-33" transform="translate(380.292969 -39.151563) scale(0.7)"/>
      <use xlink:href="#DejaVuSans-22c5" transform="translate(438.466797 -39.151563) scale(0.7)"/>
      <use xlink:href="#DejaVuSans-35" transform="translate(474.355469 -39.151563) scale(0.7)"/>
      <use xlink:href="#DejaVuSans-22c5" transform="translate(532.529297 -39.151563) scale(0.7)"/>
      <use xlink:href="#DejaVuSans-37" transform="translate(568.417969 -39.151563) scale(0.7)"/>
      <path d="M 147.167969 19.051563 
L 147.167969 25.301563 
L 657.026367 25.301563 
L 657.026367 19.051563 
L 147.167969 19.051563 
z
"/>
     </g>
    </g>
    <g id="patch_77">
     <path d="M 883.767273 217.2 
L 981.163636 217.2 
L 981.163636 187.2 
L 883.767273 187.2 
z
" style="fill: #ffffff; stroke: #000000; stroke-linejoin: miter"/>
    </g>
    <g id="text_73">
     <!-- $\frac{7 \cdot 9 \cdot 11 \cdot 13}{2 \cdot 4 \cdot 6 \cdot 8}$ -->
     <g transform="translate(906.725455 205.56) scale(0.12 -0.12)">
      <use xlink:href="#DejaVuSans-37" transform="translate(0 45.046875) scale(0.7)"/>
      <use xlink:href="#DejaVuSans-22c5" transform="translate(58.173828 45.046875) scale(0.7)"/>
      <use xlink:href="#DejaVuSans-39" transform="translate(94.0625 45.046875) scale(0.7)"/>
      <use xlink:href="#DejaVuSans-22c5" transform="translate(152.236328 45.046875) scale(0.7)"/>
      <use xlink:href="#DejaVuSans-31" transform="translate(188.125 45.046875) scale(0.7)"/>
      <use xlink:href="#DejaVuSans-31" transform="translate(232.661133 45.046875) scale(0.7)"/>
      <use xlink:href="#DejaVuSans-22c5" transform="translate(290.834961 45.046875) scale(0.7)"/>
      <use xlink:href="#DejaVuSans-31" transform="translate(326.723633 45.046875) scale(0.7)"/>
      <use xlink:href="#DejaVuSans-33" transform="translate(371.259766 45.046875) scale(0.7)"/>
      <use xlink:href="#DejaVuSans-32" transform="translate(45 -39.151563) scale(0.7)"/>
      <use xlink:href="#DejaVuSans-22c5" transform="translate(103.173828 -39.151563) scale(0.7)"/>
      <use xlink:href="#DejaVuSans-34" transform="translate(139.0625 -39.151563) scale(0.7)"/>
      <use xlink:href="#DejaVuSans-22c5" transform="translate(197.236328 -39.151563) scale(0.7)"/>
      <use xlink:href="#DejaVuSans-36" transform="translate(233.125 -39.151563) scale(0.7)"/>
      <use xlink:href="#DejaVuSans-22c5" transform="translate(291.298828 -39.151563) scale(0.7)"/>
      <use xlink:href="#DejaVuSans-38" transform="translate(327.1875 -39.151563) scale(0.7)"/>
      <path d="M 0 19.051563 
L 0 25.301563 
L 415.795898 25.301563 
L 415.795898 19.051563 
L 0 19.051563 
z
"/>
     </g>
    </g>
    <g id="patch_78">
     <path d="M 981.163636 217.2 
M 1070.443636 217.2 
M 1070.443636 187.2 
M 981.163636 187.2 
L 981.163636 217.2 
" style="fill: #ffffff; stroke: #000000; stroke-linejoin: miter"/>
    </g>
    <g id="patch_79">
     <path d="M 7.2 247.2 
L 104.596364 247.2 
L 104.596364 217.2 
L 7.2 217.2 
z
" style="fill: #add8e6; stroke: #000000; stroke-linejoin: miter"/>
    </g>
    <g id="text_74">
     <!-- 3 -->
     <g transform="translate(52.080682 235.51125) scale(0.12 -0.12)">
      <use xlink:href="#DejaVuSans-33"/>
     </g>
    </g>
    <g id="patch_80">
     <path d="M 104.596364 247.2 
L 201.992727 247.2 
L 201.992727 217.2 
L 104.596364 217.2 
z
" style="fill: #ffffff; stroke: #000000; stroke-linejoin: miter"/>
    </g>
    <g id="text_75">
     <!-- 1 -->
     <g transform="translate(149.477045 235.51125) scale(0.12 -0.12)">
      <use xlink:href="#DejaVuSans-31"/>
     </g>
    </g>
    <g id="patch_81">
     <path d="M 201.992727 247.2 
L 299.389091 247.2 
L 299.389091 217.2 
L 201.992727 217.2 
z
" style="fill: #ffffff; stroke: #000000; stroke-linejoin: miter"/>
    </g>
    <g id="text_76">
     <!-- $\frac{105}{48}$ -->
     <g transform="translate(241.870909 235.56) scale(0.12 -0.12)">
      <use xlink:href="#DejaVuSans-31" transform="translate(0 45.046875) scale(0.7)"/>
      <use xlink:href="#DejaVuSans-30" transform="translate(44.536133 45.046875) scale(0.7)"/>
      <use xlink:href="#DejaVuSans-35" transform="translate(89.072266 45.046875) scale(0.7)"/>
      <use xlink:href="#DejaVuSans-34" transform="translate(22 -39.151563) scale(0.7)"/>
      <use xlink:href="#DejaVuSans-38" transform="translate(66.536133 -39.151563) scale(0.7)"/>
      <path d="M 0 19.051563 
L 0 25.301563 
L 133.608398 25.301563 
L 133.608398 19.051563 
L 0 19.051563 
z
"/>
     </g>
    </g>
    <g id="patch_82">
     <path d="M 299.389091 247.2 
L 396.785455 247.2 
L 396.785455 217.2 
L 299.389091 217.2 
z
" style="fill: #ffffff; stroke: #000000; stroke-linejoin: miter"/>
    </g>
    <g id="text_77">
     <!-- 4 -->
     <g transform="translate(344.269773 235.51125) scale(0.12 -0.12)">
      <use xlink:href="#DejaVuSans-34"/>
     </g>
    </g>
    <g id="patch_83">
     <path d="M 396.785455 247.2 
L 494.181818 247.2 
L 494.181818 217.2 
L 396.785455 217.2 
z
" style="fill: #ffffff; stroke: #000000; stroke-linejoin: miter"/>
    </g>
    <g id="text_78">
     <!-- $\frac{315}{48}$ -->
     <g transform="translate(436.663636 235.56) scale(0.12 -0.12)">
      <use xlink:href="#DejaVuSans-33" transform="translate(0 45.046875) scale(0.7)"/>
      <use xlink:href="#DejaVuSans-31" transform="translate(44.536133 45.046875) scale(0.7)"/>
      <use xlink:href="#DejaVuSans-35" transform="translate(89.072266 45.046875) scale(0.7)"/>
      <use xlink:href="#DejaVuSans-34" transform="translate(22 -39.151563) scale(0.7)"/>
      <use xlink:href="#DejaVuSans-38" transform="translate(66.536133 -39.151563) scale(0.7)"/>
      <path d="M 0 19.051563 
L 0 25.301563 
L 133.608398 25.301563 
L 133.608398 19.051563 
L 0 19.051563 
z
"/>
     </g>
    </g>
    <g id="patch_84">
     <path d="M 494.181818 247.2 
L 591.578182 247.2 
L 591.578182 217.2 
L 494.181818 217.2 
z
" style="fill: #ffffff; stroke: #000000; stroke-linejoin: miter"/>
    </g>
    <g id="text_79">
     <!-- 10 -->
     <g transform="translate(535.245 235.51125) scale(0.12 -0.12)">
      <use xlink:href="#DejaVuSans-31"/>
      <use xlink:href="#DejaVuSans-30" transform="translate(63.623047 0)"/>
     </g>
    </g>
    <g id="patch_85">
     <path d="M 591.578182 247.2 
L 688.974545 247.2 
L 688.974545 217.2 
L 591.578182 217.2 
z
" style="fill: #ffffff; stroke: #000000; stroke-linejoin: miter"/>
    </g>
    <g id="text_80">
     <!-- $\frac{693}{48}$ -->
     <g transform="translate(631.456364 235.56) scale(0.12 -0.12)">
      <use xlink:href="#DejaVuSans-36" transform="translate(0 45.046875) scale(0.7)"/>
      <use xlink:href="#DejaVuSans-39" transform="translate(44.536133 45.046875) scale(0.7)"/>
      <use xlink:href="#DejaVuSans-33" transform="translate(89.072266 45.046875) scale(0.7)"/>
      <use xlink:href="#DejaVuSans-34" transform="translate(22 -39.151563) scale(0.7)"/>
      <use xlink:href="#DejaVuSans-38" transform="translate(66.536133 -39.151563) scale(0.7)"/>
      <path d="M 0 19.051563 
L 0 25.301563 
L 133.608398 25.301563 
L 133.608398 19.051563 
L 0 19.051563 
z
"/>
     </g>
    </g>
    <g id="patch_86">
     <path d="M 688.974545 247.2 
L 786.370909 247.2 
L 786.370909 217.2 
L 688.974545 217.2 
z
" style="fill: #ffffff; stroke: #000000; stroke-linejoin: miter"/>
    </g>
    <g id="text_81">
     <!-- 20 -->
     <g transform="translate(730.037727 235.51125) scale(0.12 -0.12)">
      <use xlink:href="#DejaVuSans-32"/>
      <use xlink:href="#DejaVuSans-30" transform="translate(63.623047 0)"/>
     </g>
    </g>
    <g id="patch_87">
     <path d="M 786.370909 247.2 
L 883.767273 247.2 
L 883.767273 217.2 
L 786.370909 217.2 
z
" style="fill: #ffffff; stroke: #000000; stroke-linejoin: miter"/>
    </g>
    <g id="text_82">
     <!-- $\frac{1287}{48}$ -->
     <g transform="translate(823.609091 235.56) scale(0.12 -0.12)">
      <use xlink:href="#DejaVuSans-31" transform="translate(0 45.046875) scale(0.7)"/>
      <use xlink:href="#DejaVuSans-32" transform="translate(44.536133 45.046875) scale(0.7)"/>
      <use xlink:href="#DejaVuSans-38" transform="translate(89.072266 45.046875) scale(0.7)"/>
      <use xlink:href="#DejaVuSans-37" transform="translate(133.608398 45.046875) scale(0.7)"/>
      <use xlink:href="#DejaVuSans-34" transform="translate(45 -39.151563) scale(0.7)"/>
      <use xlink:href="#DejaVuSans-38" transform="translate(89.536133 -39.151563) scale(0.7)"/>
      <path d="M 0 19.051563 
L 0 25.301563 
L 178.144531 25.301563 
L 178.144531 19.051563 
L 0 19.051563 
z
"/>
     </g>
    </g>
    <g id="patch_88">
     <path d="M 883.767273 247.2 
L 981.163636 247.2 
L 981.163636 217.2 
L 883.767273 217.2 
z
" style="fill: #ffffff; stroke: #000000; stroke-linejoin: miter"/>
    </g>
    <g id="text_83">
     <!-- 35 -->
     <g transform="translate(924.830455 235.51125) scale(0.12 -0.12)">
      <use xlink:href="#DejaVuSans-33"/>
      <use xlink:href="#DejaVuSans-35" transform="translate(63.623047 0)"/>
     </g>
    </g>
    <g id="patch_89">
     <path d="M 981.163636 247.2 
M 1070.443636 247.2 
M 1070.443636 217.2 
M 981.163636 217.2 
L 981.163636 247.2 
" style="fill: #ffffff; stroke: #000000; stroke-linejoin: miter"/>
    </g>
    <g id="text_84">
     <!-- $\frac{s^3 + 3s^2 + 2s}{6}$ -->
     <g transform="translate(990.091636 236.22) scale(0.12 -0.12)">
      <use xlink:href="#DejaVuSans-Oblique-73" transform="translate(0 44.835938) scale(0.7)"/>
      <use xlink:href="#DejaVuSans-33" transform="translate(39.724654 71.632812) scale(0.49)"/>
      <use xlink:href="#DejaVuSans-2b" transform="translate(86.451704 44.835938) scale(0.7)"/>
      <use xlink:href="#DejaVuSans-33" transform="translate(158.741743 44.835938) scale(0.7)"/>
      <use xlink:href="#DejaVuSans-Oblique-73" transform="translate(203.277876 44.835938) scale(0.7)"/>
      <use xlink:href="#DejaVuSans-32" transform="translate(243.00253 71.632812) scale(0.49)"/>
      <use xlink:href="#DejaVuSans-2b" transform="translate(289.729581 44.835938) scale(0.7)"/>
      <use xlink:href="#DejaVuSans-32" transform="translate(362.01962 44.835938) scale(0.7)"/>
      <use xlink:href="#DejaVuSans-Oblique-73" transform="translate(406.555753 44.835938) scale(0.7)"/>
      <use xlink:href="#DejaVuSans-36" transform="translate(199 -39.3625) scale(0.7)"/>
      <path d="M 0 18.840625 
L 0 25.090625 
L 443.025479 25.090625 
L 443.025479 18.840625 
L 0 18.840625 
z
"/>
     </g>
    </g>
    <g id="patch_90">
     <path d="M 7.2 277.2 
L 104.596364 277.2 
L 104.596364 247.2 
L 7.2 247.2 
z
" style="fill: #add8e6; stroke: #000000; stroke-linejoin: miter"/>
    </g>
    <g id="text_85">
     <!-- 7/2 -->
     <g transform="translate(46.241932 265.51125) scale(0.12 -0.12)">
      <use xlink:href="#DejaVuSans-37"/>
      <use xlink:href="#DejaVuSans-2f" transform="translate(63.623047 0)"/>
      <use xlink:href="#DejaVuSans-32" transform="translate(97.314453 0)"/>
     </g>
    </g>
    <g id="patch_91">
     <path d="M 104.596364 277.2 
L 201.992727 277.2 
L 201.992727 247.2 
L 104.596364 247.2 
z
" style="fill: #ffffff; stroke: #000000; stroke-linejoin: miter"/>
    </g>
    <g id="text_86">
     <!-- 1 -->
     <g transform="translate(149.477045 265.51125) scale(0.12 -0.12)">
      <use xlink:href="#DejaVuSans-31"/>
     </g>
    </g>
    <g id="patch_92">
     <path d="M 201.992727 277.2 
L 299.389091 277.2 
L 299.389091 247.2 
L 201.992727 247.2 
z
" style="fill: #ffffff; stroke: #000000; stroke-linejoin: miter"/>
    </g>
    <g id="text_87">
     <!-- $\Omega \cdot \frac{4 \cdot 6 \cdot 8}{3 \cdot 5 \cdot 7}$ -->
     <g transform="translate(227.110909 265.56) scale(0.12 -0.12)">
      <use xlink:href="#DejaVuSans-3a9" transform="translate(0 0.254687)"/>
      <use xlink:href="#DejaVuSans-22c5" transform="translate(95.898438 0.254687)"/>
      <use xlink:href="#DejaVuSans-34" transform="translate(147.167969 45.046875) scale(0.7)"/>
      <use xlink:href="#DejaVuSans-22c5" transform="translate(205.341797 45.046875) scale(0.7)"/>
      <use xlink:href="#DejaVuSans-36" transform="translate(241.230469 45.046875) scale(0.7)"/>
      <use xlink:href="#DejaVuSans-22c5" transform="translate(299.404297 45.046875) scale(0.7)"/>
      <use xlink:href="#DejaVuSans-38" transform="translate(335.292969 45.046875) scale(0.7)"/>
      <use xlink:href="#DejaVuSans-33" transform="translate(147.167969 -39.151563) scale(0.7)"/>
      <use xlink:href="#DejaVuSans-22c5" transform="translate(205.341797 -39.151563) scale(0.7)"/>
      <use xlink:href="#DejaVuSans-35" transform="translate(241.230469 -39.151563) scale(0.7)"/>
      <use xlink:href="#DejaVuSans-22c5" transform="translate(299.404297 -39.151563) scale(0.7)"/>
      <use xlink:href="#DejaVuSans-37" transform="translate(335.292969 -39.151563) scale(0.7)"/>
      <path d="M 147.167969 19.051563 
L 147.167969 25.301563 
L 379.829102 25.301563 
L 379.829102 19.051563 
L 147.167969 19.051563 
z
"/>
     </g>
    </g>
    <g id="patch_93">
     <path d="M 299.389091 277.2 
L 396.785455 277.2 
L 396.785455 247.2 
L 299.389091 247.2 
z
" style="fill: #ffffff; stroke: #000000; stroke-linejoin: miter"/>
    </g>
    <g id="text_88">
     <!-- $\frac{9}{2}$ -->
     <g transform="translate(344.607273 265.62) scale(0.12 -0.12)">
      <use xlink:href="#DejaVuSans-39" transform="translate(0 45.046875) scale(0.7)"/>
      <use xlink:href="#DejaVuSans-32" transform="translate(0 -39.151563) scale(0.7)"/>
      <path d="M 0 19.051563 
L 0 25.301563 
L 44.536133 25.301563 
L 44.536133 19.051563 
L 0 19.051563 
z
"/>
     </g>
    </g>
    <g id="patch_94">
     <path d="M 396.785455 277.2 
L 494.181818 277.2 
L 494.181818 247.2 
L 396.785455 247.2 
z
" style="fill: #ffffff; stroke: #000000; stroke-linejoin: miter"/>
    </g>
    <g id="text_89">
     <!-- $\Omega \cdot \frac{4 \cdot 6 \cdot 8 \cdot 10}{3 \cdot 5 \cdot 7 \cdot 3}$ -->
     <g transform="translate(413.623636 265.56) scale(0.12 -0.12)">
      <use xlink:href="#DejaVuSans-3a9" transform="translate(0 0.254687)"/>
      <use xlink:href="#DejaVuSans-22c5" transform="translate(95.898438 0.254687)"/>
      <use xlink:href="#DejaVuSans-34" transform="translate(147.167969 45.046875) scale(0.7)"/>
      <use xlink:href="#DejaVuSans-22c5" transform="translate(205.341797 45.046875) scale(0.7)"/>
      <use xlink:href="#DejaVuSans-36" transform="translate(241.230469 45.046875) scale(0.7)"/>
      <use xlink:href="#DejaVuSans-22c5" transform="translate(299.404297 45.046875) scale(0.7)"/>
      <use xlink:href="#DejaVuSans-38" transform="translate(335.292969 45.046875) scale(0.7)"/>
      <use xlink:href="#DejaVuSans-22c5" transform="translate(393.466797 45.046875) scale(0.7)"/>
      <use xlink:href="#DejaVuSans-31" transform="translate(429.355469 45.046875) scale(0.7)"/>
      <use xlink:href="#DejaVuSans-30" transform="translate(473.891602 45.046875) scale(0.7)"/>
      <use xlink:href="#DejaVuSans-33" transform="translate(169.167969 -39.151563) scale(0.7)"/>
      <use xlink:href="#DejaVuSans-22c5" transform="translate(227.341797 -39.151563) scale(0.7)"/>
      <use xlink:href="#DejaVuSans-35" transform="translate(263.230469 -39.151563) scale(0.7)"/>
      <use xlink:href="#DejaVuSans-22c5" transform="translate(321.404297 -39.151563) scale(0.7)"/>
      <use xlink:href="#DejaVuSans-37" transform="translate(357.292969 -39.151563) scale(0.7)"/>
      <use xlink:href="#DejaVuSans-22c5" transform="translate(415.466797 -39.151563) scale(0.7)"/>
      <use xlink:href="#DejaVuSans-33" transform="translate(451.355469 -39.151563) scale(0.7)"/>
      <path d="M 147.167969 19.051563 
L 147.167969 25.301563 
L 518.427734 25.301563 
L 518.427734 19.051563 
L 147.167969 19.051563 
z
"/>
     </g>
    </g>
    <g id="patch_95">
     <path d="M 494.181818 277.2 
L 591.578182 277.2 
L 591.578182 247.2 
L 494.181818 247.2 
z
" style="fill: #ffffff; stroke: #000000; stroke-linejoin: miter"/>
    </g>
    <g id="text_90">
     <!-- $\frac{9 \cdot 11}{2 \cdot 4}$ -->
     <g transform="translate(531.12 265.62) scale(0.12 -0.12)">
      <use xlink:href="#DejaVuSans-39" transform="translate(0 45.046875) scale(0.7)"/>
      <use xlink:href="#DejaVuSans-22c5" transform="translate(58.173828 45.046875) scale(0.7)"/>
      <use xlink:href="#DejaVuSans-31" transform="translate(94.0625 45.046875) scale(0.7)"/>
      <use xlink:href="#DejaVuSans-31" transform="translate(138.598633 45.046875) scale(0.7)"/>
      <use xlink:href="#DejaVuSans-32" transform="translate(22 -39.151563) scale(0.7)"/>
      <use xlink:href="#DejaVuSans-22c5" transform="translate(80.173828 -39.151563) scale(0.7)"/>
      <use xlink:href="#DejaVuSans-34" transform="translate(116.0625 -39.151563) scale(0.7)"/>
      <path d="M 0 19.051563 
L 0 25.301563 
L 183.134766 25.301563 
L 183.134766 19.051563 
L 0 19.051563 
z
"/>
     </g>
    </g>
    <g id="patch_96">
     <path d="M 591.578182 277.2 
L 688.974545 277.2 
L 688.974545 247.2 
L 591.578182 247.2 
z
" style="fill: #ffffff; stroke: #000000; stroke-linejoin: miter"/>
    </g>
    <g id="text_91">
     <!-- $\Omega \cdot \frac{4 \cdot 6 \cdot 8 \cdot 10 \cdot 12}{3 \cdot 5 \cdot 7 \cdot 3 \cdot 5}$ -->
     <g transform="translate(600.076364 265.56) scale(0.12 -0.12)">
      <use xlink:href="#DejaVuSans-3a9" transform="translate(0 0.254687)"/>
      <use xlink:href="#DejaVuSans-22c5" transform="translate(95.898438 0.254687)"/>
      <use xlink:href="#DejaVuSans-34" transform="translate(147.167969 45.046875) scale(0.7)"/>
      <use xlink:href="#DejaVuSans-22c5" transform="translate(205.341797 45.046875) scale(0.7)"/>
      <use xlink:href="#DejaVuSans-36" transform="translate(241.230469 45.046875) scale(0.7)"/>
      <use xlink:href="#DejaVuSans-22c5" transform="translate(299.404297 45.046875) scale(0.7)"/>
      <use xlink:href="#DejaVuSans-38" transform="translate(335.292969 45.046875) scale(0.7)"/>
      <use xlink:href="#DejaVuSans-22c5" transform="translate(393.466797 45.046875) scale(0.7)"/>
      <use xlink:href="#DejaVuSans-31" transform="translate(429.355469 45.046875) scale(0.7)"/>
      <use xlink:href="#DejaVuSans-30" transform="translate(473.891602 45.046875) scale(0.7)"/>
      <use xlink:href="#DejaVuSans-22c5" transform="translate(532.06543 45.046875) scale(0.7)"/>
      <use xlink:href="#DejaVuSans-31" transform="translate(567.954102 45.046875) scale(0.7)"/>
      <use xlink:href="#DejaVuSans-32" transform="translate(612.490234 45.046875) scale(0.7)"/>
      <use xlink:href="#DejaVuSans-33" transform="translate(192.167969 -39.151563) scale(0.7)"/>
      <use xlink:href="#DejaVuSans-22c5" transform="translate(250.341797 -39.151563) scale(0.7)"/>
      <use xlink:href="#DejaVuSans-35" transform="translate(286.230469 -39.151563) scale(0.7)"/>
      <use xlink:href="#DejaVuSans-22c5" transform="translate(344.404297 -39.151563) scale(0.7)"/>
      <use xlink:href="#DejaVuSans-37" transform="translate(380.292969 -39.151563) scale(0.7)"/>
      <use xlink:href="#DejaVuSans-22c5" transform="translate(438.466797 -39.151563) scale(0.7)"/>
      <use xlink:href="#DejaVuSans-33" transform="translate(474.355469 -39.151563) scale(0.7)"/>
      <use xlink:href="#DejaVuSans-22c5" transform="translate(532.529297 -39.151563) scale(0.7)"/>
      <use xlink:href="#DejaVuSans-35" transform="translate(568.417969 -39.151563) scale(0.7)"/>
      <path d="M 147.167969 19.051563 
L 147.167969 25.301563 
L 657.026367 25.301563 
L 657.026367 19.051563 
L 147.167969 19.051563 
z
"/>
     </g>
    </g>
    <g id="patch_97">
     <path d="M 688.974545 277.2 
L 786.370909 277.2 
L 786.370909 247.2 
L 688.974545 247.2 
z
" style="fill: #ffffff; stroke: #000000; stroke-linejoin: miter"/>
    </g>
    <g id="text_92">
     <!-- $\frac{9 \cdot 11 \cdot 13}{2 \cdot 4 \cdot 6}$ -->
     <g transform="translate(717.572727 265.56) scale(0.12 -0.12)">
      <use xlink:href="#DejaVuSans-39" transform="translate(0 45.046875) scale(0.7)"/>
      <use xlink:href="#DejaVuSans-22c5" transform="translate(58.173828 45.046875) scale(0.7)"/>
      <use xlink:href="#DejaVuSans-31" transform="translate(94.0625 45.046875) scale(0.7)"/>
      <use xlink:href="#DejaVuSans-31" transform="translate(138.598633 45.046875) scale(0.7)"/>
      <use xlink:href="#DejaVuSans-22c5" transform="translate(196.772461 45.046875) scale(0.7)"/>
      <use xlink:href="#DejaVuSans-31" transform="translate(232.661133 45.046875) scale(0.7)"/>
      <use xlink:href="#DejaVuSans-33" transform="translate(277.197266 45.046875) scale(0.7)"/>
      <use xlink:href="#DejaVuSans-32" transform="translate(45 -39.151563) scale(0.7)"/>
      <use xlink:href="#DejaVuSans-22c5" transform="translate(103.173828 -39.151563) scale(0.7)"/>
      <use xlink:href="#DejaVuSans-34" transform="translate(139.0625 -39.151563) scale(0.7)"/>
      <use xlink:href="#DejaVuSans-22c5" transform="translate(197.236328 -39.151563) scale(0.7)"/>
      <use xlink:href="#DejaVuSans-36" transform="translate(233.125 -39.151563) scale(0.7)"/>
      <path d="M 0 19.051563 
L 0 25.301563 
L 321.733398 25.301563 
L 321.733398 19.051563 
L 0 19.051563 
z
"/>
     </g>
    </g>
    <g id="patch_98">
     <path d="M 786.370909 277.2 
L 883.767273 277.2 
L 883.767273 247.2 
L 786.370909 247.2 
z
" style="fill: #ffffff; stroke: #000000; stroke-linejoin: miter"/>
    </g>
    <g id="text_93">
     <!-- $\Omega \cdot \frac{4 \cdot 6 \cdot 8 \cdot 10}{3 \cdot 5 \cdot 7 \cdot 3 \cdot 5 \cdot 7}$ -->
     <g transform="translate(794.569091 265.56) scale(0.12 -0.12)">
      <use xlink:href="#DejaVuSans-3a9" transform="translate(0 0.254687)"/>
      <use xlink:href="#DejaVuSans-22c5" transform="translate(95.898438 0.254687)"/>
      <use xlink:href="#DejaVuSans-34" transform="translate(219.167969 45.046875) scale(0.7)"/>
      <use xlink:href="#DejaVuSans-22c5" transform="translate(277.341797 45.046875) scale(0.7)"/>
      <use xlink:href="#DejaVuSans-36" transform="translate(313.230469 45.046875) scale(0.7)"/>
      <use xlink:href="#DejaVuSans-22c5" transform="translate(371.404297 45.046875) scale(0.7)"/>
      <use xlink:href="#DejaVuSans-38" transform="translate(407.292969 45.046875) scale(0.7)"/>
      <use xlink:href="#DejaVuSans-22c5" transform="translate(465.466797 45.046875) scale(0.7)"/>
      <use xlink:href="#DejaVuSans-31" transform="translate(501.355469 45.046875) scale(0.7)"/>
      <use xlink:href="#DejaVuSans-30" transform="translate(545.891602 45.046875) scale(0.7)"/>
      <use xlink:href="#DejaVuSans-33" transform="translate(147.167969 -39.151563) scale(0.7)"/>
      <use xlink:href="#DejaVuSans-22c5" transform="translate(205.341797 -39.151563) scale(0.7)"/>
      <use xlink:href="#DejaVuSans-35" transform="translate(241.230469 -39.151563) scale(0.7)"/>
      <use xlink:href="#DejaVuSans-22c5" transform="translate(299.404297 -39.151563) scale(0.7)"/>
      <use xlink:href="#DejaVuSans-37" transform="translate(335.292969 -39.151563) scale(0.7)"/>
      <use xlink:href="#DejaVuSans-22c5" transform="translate(393.466797 -39.151563) scale(0.7)"/>
      <use xlink:href="#DejaVuSans-33" transform="translate(429.355469 -39.151563) scale(0.7)"/>
      <use xlink:href="#DejaVuSans-22c5" transform="translate(487.529297 -39.151563) scale(0.7)"/>
      <use xlink:href="#DejaVuSans-35" transform="translate(523.417969 -39.151563) scale(0.7)"/>
      <use xlink:href="#DejaVuSans-22c5" transform="translate(581.591797 -39.151563) scale(0.7)"/>
      <use xlink:href="#DejaVuSans-37" transform="translate(617.480469 -39.151563) scale(0.7)"/>
      <path d="M 147.167969 19.051563 
L 147.167969 25.301563 
L 662.016602 25.301563 
L 662.016602 19.051563 
L 147.167969 19.051563 
z
"/>
     </g>
    </g>
    <g id="patch_99">
     <path d="M 883.767273 277.2 
L 981.163636 277.2 
L 981.163636 247.2 
L 883.767273 247.2 
z
" style="fill: #ffffff; stroke: #000000; stroke-linejoin: miter"/>
    </g>
    <g id="text_94">
     <!-- $\frac{9 \cdot 11 \cdot 13 \cdot 15}{2 \cdot 4 \cdot 6 \cdot 8}$ -->
     <g transform="translate(904.085455 265.56) scale(0.12 -0.12)">
      <use xlink:href="#DejaVuSans-39" transform="translate(0 45.046875) scale(0.7)"/>
      <use xlink:href="#DejaVuSans-22c5" transform="translate(58.173828 45.046875) scale(0.7)"/>
      <use xlink:href="#DejaVuSans-31" transform="translate(94.0625 45.046875) scale(0.7)"/>
      <use xlink:href="#DejaVuSans-31" transform="translate(138.598633 45.046875) scale(0.7)"/>
      <use xlink:href="#DejaVuSans-22c5" transform="translate(196.772461 45.046875) scale(0.7)"/>
      <use xlink:href="#DejaVuSans-31" transform="translate(232.661133 45.046875) scale(0.7)"/>
      <use xlink:href="#DejaVuSans-33" transform="translate(277.197266 45.046875) scale(0.7)"/>
      <use xlink:href="#DejaVuSans-22c5" transform="translate(335.371094 45.046875) scale(0.7)"/>
      <use xlink:href="#DejaVuSans-31" transform="translate(371.259766 45.046875) scale(0.7)"/>
      <use xlink:href="#DejaVuSans-35" transform="translate(415.795898 45.046875) scale(0.7)"/>
      <use xlink:href="#DejaVuSans-32" transform="translate(67 -39.151563) scale(0.7)"/>
      <use xlink:href="#DejaVuSans-22c5" transform="translate(125.173828 -39.151563) scale(0.7)"/>
      <use xlink:href="#DejaVuSans-34" transform="translate(161.0625 -39.151563) scale(0.7)"/>
      <use xlink:href="#DejaVuSans-22c5" transform="translate(219.236328 -39.151563) scale(0.7)"/>
      <use xlink:href="#DejaVuSans-36" transform="translate(255.125 -39.151563) scale(0.7)"/>
      <use xlink:href="#DejaVuSans-22c5" transform="translate(313.298828 -39.151563) scale(0.7)"/>
      <use xlink:href="#DejaVuSans-38" transform="translate(349.1875 -39.151563) scale(0.7)"/>
      <path d="M 0 19.051563 
L 0 25.301563 
L 460.332031 25.301563 
L 460.332031 19.051563 
L 0 19.051563 
z
"/>
     </g>
    </g>
    <g id="patch_100">
     <path d="M 981.163636 277.2 
M 1070.443636 277.2 
M 1070.443636 247.2 
M 981.163636 247.2 
L 981.163636 277.2 
" style="fill: #ffffff; stroke: #000000; stroke-linejoin: miter"/>
    </g>
    <g id="patch_101">
     <path d="M 7.2 307.2 
L 104.596364 307.2 
L 104.596364 277.2 
L 7.2 277.2 
z
" style="fill: #add8e6; stroke: #000000; stroke-linejoin: miter"/>
    </g>
    <g id="text_95">
     <!-- 4 -->
     <g transform="translate(52.080682 295.51125) scale(0.12 -0.12)">
      <use xlink:href="#DejaVuSans-34"/>
     </g>
    </g>
    <g id="patch_102">
     <path d="M 104.596364 307.2 
L 201.992727 307.2 
L 201.992727 277.2 
L 104.596364 277.2 
z
" style="fill: #ffffff; stroke: #000000; stroke-linejoin: miter"/>
    </g>
    <g id="text_96">
     <!-- 1 -->
     <g transform="translate(149.477045 295.51125) scale(0.12 -0.12)">
      <use xlink:href="#DejaVuSans-31"/>
     </g>
    </g>
    <g id="patch_103">
     <path d="M 201.992727 307.2 
L 299.389091 307.2 
L 299.389091 277.2 
L 201.992727 277.2 
z
" style="fill: #ffffff; stroke: #000000; stroke-linejoin: miter"/>
    </g>
    <g id="text_97">
     <!-- $\frac{945}{384}$ -->
     <g transform="translate(241.870909 295.56) scale(0.12 -0.12)">
      <use xlink:href="#DejaVuSans-39" transform="translate(0 45.046875) scale(0.7)"/>
      <use xlink:href="#DejaVuSans-34" transform="translate(44.536133 45.046875) scale(0.7)"/>
      <use xlink:href="#DejaVuSans-35" transform="translate(89.072266 45.046875) scale(0.7)"/>
      <use xlink:href="#DejaVuSans-33" transform="translate(0 -39.151563) scale(0.7)"/>
      <use xlink:href="#DejaVuSans-38" transform="translate(44.536133 -39.151563) scale(0.7)"/>
      <use xlink:href="#DejaVuSans-34" transform="translate(89.072266 -39.151563) scale(0.7)"/>
      <path d="M 0 19.051563 
L 0 25.301563 
L 133.608398 25.301563 
L 133.608398 19.051563 
L 0 19.051563 
z
"/>
     </g>
    </g>
    <g id="patch_104">
     <path d="M 299.389091 307.2 
L 396.785455 307.2 
L 396.785455 277.2 
L 299.389091 277.2 
z
" style="fill: #ffffff; stroke: #000000; stroke-linejoin: miter"/>
    </g>
    <g id="text_98">
     <!-- 5 -->
     <g transform="translate(344.269773 295.51125) scale(0.12 -0.12)">
      <use xlink:href="#DejaVuSans-35"/>
     </g>
    </g>
    <g id="patch_105">
     <path d="M 396.785455 307.2 
L 494.181818 307.2 
L 494.181818 277.2 
L 396.785455 277.2 
z
" style="fill: #ffffff; stroke: #000000; stroke-linejoin: miter"/>
    </g>
    <g id="text_99">
     <!-- $\frac{3465}{384}$ -->
     <g transform="translate(434.023636 295.56) scale(0.12 -0.12)">
      <use xlink:href="#DejaVuSans-33" transform="translate(0 45.046875) scale(0.7)"/>
      <use xlink:href="#DejaVuSans-34" transform="translate(44.536133 45.046875) scale(0.7)"/>
      <use xlink:href="#DejaVuSans-36" transform="translate(89.072266 45.046875) scale(0.7)"/>
      <use xlink:href="#DejaVuSans-35" transform="translate(133.608398 45.046875) scale(0.7)"/>
      <use xlink:href="#DejaVuSans-33" transform="translate(22 -39.151563) scale(0.7)"/>
      <use xlink:href="#DejaVuSans-38" transform="translate(66.536133 -39.151563) scale(0.7)"/>
      <use xlink:href="#DejaVuSans-34" transform="translate(111.072266 -39.151563) scale(0.7)"/>
      <path d="M 0 19.051563 
L 0 25.301563 
L 178.144531 25.301563 
L 178.144531 19.051563 
L 0 19.051563 
z
"/>
     </g>
    </g>
    <g id="patch_106">
     <path d="M 494.181818 307.2 
L 591.578182 307.2 
L 591.578182 277.2 
L 494.181818 277.2 
z
" style="fill: #ffffff; stroke: #000000; stroke-linejoin: miter"/>
    </g>
    <g id="text_100">
     <!-- 15 -->
     <g transform="translate(535.245 295.51125) scale(0.12 -0.12)">
      <use xlink:href="#DejaVuSans-31"/>
      <use xlink:href="#DejaVuSans-35" transform="translate(63.623047 0)"/>
     </g>
    </g>
    <g id="patch_107">
     <path d="M 591.578182 307.2 
L 688.974545 307.2 
L 688.974545 277.2 
L 591.578182 277.2 
z
" style="fill: #ffffff; stroke: #000000; stroke-linejoin: miter"/>
    </g>
    <g id="text_101">
     <!-- $\frac{9009}{384}$ -->
     <g transform="translate(628.816364 295.56) scale(0.12 -0.12)">
      <use xlink:href="#DejaVuSans-39" transform="translate(0 45.046875) scale(0.7)"/>
      <use xlink:href="#DejaVuSans-30" transform="translate(44.536133 45.046875) scale(0.7)"/>
      <use xlink:href="#DejaVuSans-30" transform="translate(89.072266 45.046875) scale(0.7)"/>
      <use xlink:href="#DejaVuSans-39" transform="translate(133.608398 45.046875) scale(0.7)"/>
      <use xlink:href="#DejaVuSans-33" transform="translate(22 -39.151563) scale(0.7)"/>
      <use xlink:href="#DejaVuSans-38" transform="translate(66.536133 -39.151563) scale(0.7)"/>
      <use xlink:href="#DejaVuSans-34" transform="translate(111.072266 -39.151563) scale(0.7)"/>
      <path d="M 0 19.051563 
L 0 25.301563 
L 178.144531 25.301563 
L 178.144531 19.051563 
L 0 19.051563 
z
"/>
     </g>
    </g>
    <g id="patch_108">
     <path d="M 688.974545 307.2 
L 786.370909 307.2 
L 786.370909 277.2 
L 688.974545 277.2 
z
" style="fill: #ffffff; stroke: #000000; stroke-linejoin: miter"/>
    </g>
    <g id="text_102">
     <!-- 35 -->
     <g transform="translate(730.037727 295.51125) scale(0.12 -0.12)">
      <use xlink:href="#DejaVuSans-33"/>
      <use xlink:href="#DejaVuSans-35" transform="translate(63.623047 0)"/>
     </g>
    </g>
    <g id="patch_109">
     <path d="M 786.370909 307.2 
L 883.767273 307.2 
L 883.767273 277.2 
L 786.370909 277.2 
z
" style="fill: #ffffff; stroke: #000000; stroke-linejoin: miter"/>
    </g>
    <g id="text_103">
     <!-- $\frac{19305}{384}$ -->
     <g transform="translate(820.909091 295.56) scale(0.12 -0.12)">
      <use xlink:href="#DejaVuSans-31" transform="translate(0 45.046875) scale(0.7)"/>
      <use xlink:href="#DejaVuSans-39" transform="translate(44.536133 45.046875) scale(0.7)"/>
      <use xlink:href="#DejaVuSans-33" transform="translate(89.072266 45.046875) scale(0.7)"/>
      <use xlink:href="#DejaVuSans-30" transform="translate(133.608398 45.046875) scale(0.7)"/>
      <use xlink:href="#DejaVuSans-35" transform="translate(178.144531 45.046875) scale(0.7)"/>
      <use xlink:href="#DejaVuSans-33" transform="translate(45 -39.151563) scale(0.7)"/>
      <use xlink:href="#DejaVuSans-38" transform="translate(89.536133 -39.151563) scale(0.7)"/>
      <use xlink:href="#DejaVuSans-34" transform="translate(134.072266 -39.151563) scale(0.7)"/>
      <path d="M 0 19.051563 
L 0 25.301563 
L 222.680664 25.301563 
L 222.680664 19.051563 
L 0 19.051563 
z
"/>
     </g>
    </g>
    <g id="patch_110">
     <path d="M 883.767273 307.2 
L 981.163636 307.2 
L 981.163636 277.2 
L 883.767273 277.2 
z
" style="fill: #ffffff; stroke: #000000; stroke-linejoin: miter"/>
    </g>
    <g id="text_104">
     <!-- 70 -->
     <g transform="translate(924.830455 295.51125) scale(0.12 -0.12)">
      <use xlink:href="#DejaVuSans-37"/>
      <use xlink:href="#DejaVuSans-30" transform="translate(63.623047 0)"/>
     </g>
    </g>
    <g id="patch_111">
     <path d="M 981.163636 307.2 
M 1070.443636 307.2 
M 1070.443636 277.2 
M 981.163636 277.2 
L 981.163636 307.2 
" style="fill: #ffffff; stroke: #000000; stroke-linejoin: miter"/>
    </g>
    <g id="text_105">
     <!-- $\frac{s^4 + 6s^3 + 11s^2 + 6s}{24}$ -->
     <g transform="translate(990.091636 296.28) scale(0.12 -0.12)">
      <use xlink:href="#DejaVuSans-Oblique-73" transform="translate(0 44.835938) scale(0.7)"/>
      <use xlink:href="#DejaVuSans-34" transform="translate(39.724654 71.632812) scale(0.49)"/>
      <use xlink:href="#DejaVuSans-2b" transform="translate(86.451704 44.835938) scale(0.7)"/>
      <use xlink:href="#DejaVuSans-36" transform="translate(158.741743 44.835938) scale(0.7)"/>
      <use xlink:href="#DejaVuSans-Oblique-73" transform="translate(203.277876 44.835938) scale(0.7)"/>
      <use xlink:href="#DejaVuSans-33" transform="translate(243.00253 71.632812) scale(0.49)"/>
      <use xlink:href="#DejaVuSans-2b" transform="translate(289.729581 44.835938) scale(0.7)"/>
      <use xlink:href="#DejaVuSans-31" transform="translate(362.01962 44.835938) scale(0.7)"/>
      <use xlink:href="#DejaVuSans-31" transform="translate(406.555753 44.835938) scale(0.7)"/>
      <use xlink:href="#DejaVuSans-Oblique-73" transform="translate(451.091885 44.835938) scale(0.7)"/>
      <use xlink:href="#DejaVuSans-32" transform="translate(490.816539 71.632812) scale(0.49)"/>
      <use xlink:href="#DejaVuSans-2b" transform="translate(537.54359 44.835938) scale(0.7)"/>
      <use xlink:href="#DejaVuSans-36" transform="translate(609.833629 44.835938) scale(0.7)"/>
      <use xlink:href="#DejaVuSans-Oblique-73" transform="translate(654.369762 44.835938) scale(0.7)"/>
      <use xlink:href="#DejaVuSans-32" transform="translate(301 -39.3625) scale(0.7)"/>
      <use xlink:href="#DejaVuSans-34" transform="translate(345.536133 -39.3625) scale(0.7)"/>
      <path d="M 0 18.840625 
L 0 25.090625 
L 690.839488 25.090625 
L 690.839488 18.840625 
L 0 18.840625 
z
"/>
     </g>
    </g>
   </g>
  </g>
 </g>
</svg>
