<?xml version="1.0" encoding="utf-8" standalone="no"?>
<!DOCTYPE svg PUBLIC "-//W3C//DTD SVG 1.1//EN"
  "http://www.w3.org/Graphics/SVG/1.1/DTD/svg11.dtd">
<svg xmlns:xlink="http://www.w3.org/1999/xlink" width="460.8pt" height="345.6pt" viewBox="0 0 460.8 345.6" xmlns="http://www.w3.org/2000/svg" version="1.1">
 <metadata>
  <rdf:RDF xmlns:dc="http://purl.org/dc/elements/1.1/" xmlns:cc="http://creativecommons.org/ns#" xmlns:rdf="http://www.w3.org/1999/02/22-rdf-syntax-ns#">
   <cc:Work>
    <dc:type rdf:resource="http://purl.org/dc/dcmitype/StillImage"/>
    <dc:date>2025-01-04T12:11:36.447659</dc:date>
    <dc:format>image/svg+xml</dc:format>
    <dc:creator>
     <cc:Agent>
      <dc:title>Matplotlib v3.10.0, https://matplotlib.org/</dc:title>
     </cc:Agent>
    </dc:creator>
   </cc:Work>
  </rdf:RDF>
 </metadata>
 <defs>
  <style type="text/css">*{stroke-linejoin: round; stroke-linecap: butt}</style>
 </defs>
 <g id="figure_1">
  <g id="patch_1">
   <path d="M 0 345.6 
L 460.8 345.6 
L 460.8 0 
L 0 0 
z
" style="fill: #ffffff"/>
  </g>
  <g id="axes_1">
   <g id="table_1">
    <g id="patch_2">
     <path d="M 21.888 116.928 
L 64.7424 116.928 
L 64.7424 102.528 
L 21.888 102.528 
z
" style="fill: #add8e6; stroke: #000000; stroke-linejoin: miter"/>
    </g>
    <g id="text_1">
     <!-- q \ p -->
     <g transform="translate(29.862075 113.03925) scale(0.12 -0.12)">
      <defs>
       <path id="DejaVuSans-71" d="M 947 1747 
Q 947 1113 1208 752 
Q 1469 391 1925 391 
Q 2381 391 2643 752 
Q 2906 1113 2906 1747 
Q 2906 2381 2643 2742 
Q 2381 3103 1925 3103 
Q 1469 3103 1208 2742 
Q 947 2381 947 1747 
z
M 2906 525 
Q 2725 213 2448 61 
Q 2172 -91 1784 -91 
Q 1150 -91 751 415 
Q 353 922 353 1747 
Q 353 2572 751 3078 
Q 1150 3584 1784 3584 
Q 2172 3584 2448 3432 
Q 2725 3281 2906 2969 
L 2906 3500 
L 3481 3500 
L 3481 -1331 
L 2906 -1331 
L 2906 525 
z
" transform="scale(0.015625)"/>
       <path id="DejaVuSans-20" transform="scale(0.015625)"/>
       <path id="DejaVuSans-5c" d="M 531 4666 
L 2156 -594 
L 1625 -594 
L 0 4666 
L 531 4666 
z
" transform="scale(0.015625)"/>
       <path id="DejaVuSans-70" d="M 1159 525 
L 1159 -1331 
L 581 -1331 
L 581 3500 
L 1159 3500 
L 1159 2969 
Q 1341 3281 1617 3432 
Q 1894 3584 2278 3584 
Q 2916 3584 3314 3078 
Q 3713 2572 3713 1747 
Q 3713 922 3314 415 
Q 2916 -91 2278 -91 
Q 1894 -91 1617 61 
Q 1341 213 1159 525 
z
M 3116 1747 
Q 3116 2381 2855 2742 
Q 2594 3103 2138 3103 
Q 1681 3103 1420 2742 
Q 1159 2381 1159 1747 
Q 1159 1113 1420 752 
Q 1681 391 2138 391 
Q 2594 391 2855 752 
Q 3116 1113 3116 1747 
z
" transform="scale(0.015625)"/>
      </defs>
      <use xlink:href="#DejaVuSans-71"/>
      <use xlink:href="#DejaVuSans-20" transform="translate(63.476562 0)"/>
      <use xlink:href="#DejaVuSans-5c" transform="translate(95.263672 0)"/>
      <use xlink:href="#DejaVuSans-20" transform="translate(128.955078 0)"/>
      <use xlink:href="#DejaVuSans-70" transform="translate(160.742188 0)"/>
     </g>
    </g>
    <g id="patch_3">
     <path d="M 64.7424 116.928 
L 107.5968 116.928 
L 107.5968 102.528 
L 64.7424 102.528 
z
" style="fill: #add8e6; stroke: #000000; stroke-linejoin: miter"/>
    </g>
    <g id="text_2">
     <!-- 0 -->
     <g transform="translate(82.3521 113.03925) scale(0.12 -0.12)">
      <defs>
       <path id="DejaVuSans-30" d="M 2034 4250 
Q 1547 4250 1301 3770 
Q 1056 3291 1056 2328 
Q 1056 1369 1301 889 
Q 1547 409 2034 409 
Q 2525 409 2770 889 
Q 3016 1369 3016 2328 
Q 3016 3291 2770 3770 
Q 2525 4250 2034 4250 
z
M 2034 4750 
Q 2819 4750 3233 4129 
Q 3647 3509 3647 2328 
Q 3647 1150 3233 529 
Q 2819 -91 2034 -91 
Q 1250 -91 836 529 
Q 422 1150 422 2328 
Q 422 3509 836 4129 
Q 1250 4750 2034 4750 
z
" transform="scale(0.015625)"/>
      </defs>
      <use xlink:href="#DejaVuSans-30"/>
     </g>
    </g>
    <g id="patch_4">
     <path d="M 107.5968 116.928 
L 150.4512 116.928 
L 150.4512 102.528 
L 107.5968 102.528 
z
" style="fill: #add8e6; stroke: #000000; stroke-linejoin: miter"/>
    </g>
    <g id="text_3">
     <!-- 1/2 -->
     <g transform="translate(119.36775 113.03925) scale(0.12 -0.12)">
      <defs>
       <path id="DejaVuSans-31" d="M 794 531 
L 1825 531 
L 1825 4091 
L 703 3866 
L 703 4441 
L 1819 4666 
L 2450 4666 
L 2450 531 
L 3481 531 
L 3481 0 
L 794 0 
L 794 531 
z
" transform="scale(0.015625)"/>
       <path id="DejaVuSans-2f" d="M 1625 4666 
L 2156 4666 
L 531 -594 
L 0 -594 
L 1625 4666 
z
" transform="scale(0.015625)"/>
       <path id="DejaVuSans-32" d="M 1228 531 
L 3431 531 
L 3431 0 
L 469 0 
L 469 531 
Q 828 903 1448 1529 
Q 2069 2156 2228 2338 
Q 2531 2678 2651 2914 
Q 2772 3150 2772 3378 
Q 2772 3750 2511 3984 
Q 2250 4219 1831 4219 
Q 1534 4219 1204 4116 
Q 875 4013 500 3803 
L 500 4441 
Q 881 4594 1212 4672 
Q 1544 4750 1819 4750 
Q 2544 4750 2975 4387 
Q 3406 4025 3406 3419 
Q 3406 3131 3298 2873 
Q 3191 2616 2906 2266 
Q 2828 2175 2409 1742 
Q 1991 1309 1228 531 
z
" transform="scale(0.015625)"/>
      </defs>
      <use xlink:href="#DejaVuSans-31"/>
      <use xlink:href="#DejaVuSans-2f" transform="translate(63.623047 0)"/>
      <use xlink:href="#DejaVuSans-32" transform="translate(97.314453 0)"/>
     </g>
    </g>
    <g id="patch_5">
     <path d="M 150.4512 116.928 
L 193.3056 116.928 
L 193.3056 102.528 
L 150.4512 102.528 
z
" style="fill: #add8e6; stroke: #000000; stroke-linejoin: miter"/>
    </g>
    <g id="text_4">
     <!-- 1 -->
     <g transform="translate(168.0609 113.03925) scale(0.12 -0.12)">
      <use xlink:href="#DejaVuSans-31"/>
     </g>
    </g>
    <g id="patch_6">
     <path d="M 193.3056 116.928 
L 236.16 116.928 
L 236.16 102.528 
L 193.3056 102.528 
z
" style="fill: #add8e6; stroke: #000000; stroke-linejoin: miter"/>
    </g>
    <g id="text_5">
     <!-- 3/2 -->
     <g transform="translate(205.07655 113.03925) scale(0.12 -0.12)">
      <defs>
       <path id="DejaVuSans-33" d="M 2597 2516 
Q 3050 2419 3304 2112 
Q 3559 1806 3559 1356 
Q 3559 666 3084 287 
Q 2609 -91 1734 -91 
Q 1441 -91 1130 -33 
Q 819 25 488 141 
L 488 750 
Q 750 597 1062 519 
Q 1375 441 1716 441 
Q 2309 441 2620 675 
Q 2931 909 2931 1356 
Q 2931 1769 2642 2001 
Q 2353 2234 1838 2234 
L 1294 2234 
L 1294 2753 
L 1863 2753 
Q 2328 2753 2575 2939 
Q 2822 3125 2822 3475 
Q 2822 3834 2567 4026 
Q 2313 4219 1838 4219 
Q 1578 4219 1281 4162 
Q 984 4106 628 3988 
L 628 4550 
Q 988 4650 1302 4700 
Q 1616 4750 1894 4750 
Q 2613 4750 3031 4423 
Q 3450 4097 3450 3541 
Q 3450 3153 3228 2886 
Q 3006 2619 2597 2516 
z
" transform="scale(0.015625)"/>
      </defs>
      <use xlink:href="#DejaVuSans-33"/>
      <use xlink:href="#DejaVuSans-2f" transform="translate(63.623047 0)"/>
      <use xlink:href="#DejaVuSans-32" transform="translate(97.314453 0)"/>
     </g>
    </g>
    <g id="patch_7">
     <path d="M 236.16 116.928 
L 279.0144 116.928 
L 279.0144 102.528 
L 236.16 102.528 
z
" style="fill: #add8e6; stroke: #000000; stroke-linejoin: miter"/>
    </g>
    <g id="text_6">
     <!-- 2 -->
     <g transform="translate(253.7697 113.03925) scale(0.12 -0.12)">
      <use xlink:href="#DejaVuSans-32"/>
     </g>
    </g>
    <g id="patch_8">
     <path d="M 279.0144 116.928 
L 321.8688 116.928 
L 321.8688 102.528 
L 279.0144 102.528 
z
" style="fill: #add8e6; stroke: #000000; stroke-linejoin: miter"/>
    </g>
    <g id="text_7">
     <!-- 5/2 -->
     <g transform="translate(290.78535 113.03925) scale(0.12 -0.12)">
      <defs>
       <path id="DejaVuSans-35" d="M 691 4666 
L 3169 4666 
L 3169 4134 
L 1269 4134 
L 1269 2991 
Q 1406 3038 1543 3061 
Q 1681 3084 1819 3084 
Q 2600 3084 3056 2656 
Q 3513 2228 3513 1497 
Q 3513 744 3044 326 
Q 2575 -91 1722 -91 
Q 1428 -91 1123 -41 
Q 819 9 494 109 
L 494 744 
Q 775 591 1075 516 
Q 1375 441 1709 441 
Q 2250 441 2565 725 
Q 2881 1009 2881 1497 
Q 2881 1984 2565 2268 
Q 2250 2553 1709 2553 
Q 1456 2553 1204 2497 
Q 953 2441 691 2322 
L 691 4666 
z
" transform="scale(0.015625)"/>
      </defs>
      <use xlink:href="#DejaVuSans-35"/>
      <use xlink:href="#DejaVuSans-2f" transform="translate(63.623047 0)"/>
      <use xlink:href="#DejaVuSans-32" transform="translate(97.314453 0)"/>
     </g>
    </g>
    <g id="patch_9">
     <path d="M 321.8688 116.928 
L 364.7232 116.928 
L 364.7232 102.528 
L 321.8688 102.528 
z
" style="fill: #add8e6; stroke: #000000; stroke-linejoin: miter"/>
    </g>
    <g id="text_8">
     <!-- 3 -->
     <g transform="translate(339.4785 113.03925) scale(0.12 -0.12)">
      <use xlink:href="#DejaVuSans-33"/>
     </g>
    </g>
    <g id="patch_10">
     <path d="M 364.7232 116.928 
L 407.5776 116.928 
L 407.5776 102.528 
L 364.7232 102.528 
z
" style="fill: #add8e6; stroke: #000000; stroke-linejoin: miter"/>
    </g>
    <g id="text_9">
     <!-- 7/2 -->
     <g transform="translate(376.49415 113.03925) scale(0.12 -0.12)">
      <defs>
       <path id="DejaVuSans-37" d="M 525 4666 
L 3525 4666 
L 3525 4397 
L 1831 0 
L 1172 0 
L 2766 4134 
L 525 4134 
L 525 4666 
z
" transform="scale(0.015625)"/>
      </defs>
      <use xlink:href="#DejaVuSans-37"/>
      <use xlink:href="#DejaVuSans-2f" transform="translate(63.623047 0)"/>
      <use xlink:href="#DejaVuSans-32" transform="translate(97.314453 0)"/>
     </g>
    </g>
    <g id="patch_11">
     <path d="M 407.5776 116.928 
L 450.432 116.928 
L 450.432 102.528 
L 407.5776 102.528 
z
" style="fill: #add8e6; stroke: #000000; stroke-linejoin: miter"/>
    </g>
    <g id="text_10">
     <!-- 4 -->
     <g transform="translate(425.1873 113.03925) scale(0.12 -0.12)">
      <defs>
       <path id="DejaVuSans-34" d="M 2419 4116 
L 825 1625 
L 2419 1625 
L 2419 4116 
z
M 2253 4666 
L 3047 4666 
L 3047 1625 
L 3713 1625 
L 3713 1100 
L 3047 1100 
L 3047 0 
L 2419 0 
L 2419 1100 
L 313 1100 
L 313 1709 
L 2253 4666 
z
" transform="scale(0.015625)"/>
      </defs>
      <use xlink:href="#DejaVuSans-34"/>
     </g>
    </g>
    <g id="patch_12">
     <path d="M 21.888 131.328 
L 64.7424 131.328 
L 64.7424 116.928 
L 21.888 116.928 
z
" style="fill: #add8e6; stroke: #000000; stroke-linejoin: miter"/>
    </g>
    <g id="text_11">
     <!-- 0 -->
     <g transform="translate(39.4977 127.43925) scale(0.12 -0.12)">
      <use xlink:href="#DejaVuSans-30"/>
     </g>
    </g>
    <g id="patch_13">
     <path d="M 64.7424 131.328 
L 107.5968 131.328 
L 107.5968 116.928 
L 64.7424 116.928 
z
" style="fill: #ffffff; stroke: #000000; stroke-linejoin: miter"/>
    </g>
    <g id="text_12">
     <!-- 1 -->
     <g transform="translate(82.3521 127.43925) scale(0.12 -0.12)">
      <use xlink:href="#DejaVuSans-31"/>
     </g>
    </g>
    <g id="patch_14">
     <path d="M 107.5968 131.328 
L 150.4512 131.328 
L 150.4512 116.928 
L 107.5968 116.928 
z
" style="fill: #ffffff; stroke: #000000; stroke-linejoin: miter"/>
    </g>
    <g id="patch_15">
     <path d="M 150.4512 131.328 
L 193.3056 131.328 
L 193.3056 116.928 
L 150.4512 116.928 
z
" style="fill: #ffffff; stroke: #000000; stroke-linejoin: miter"/>
    </g>
    <g id="text_13">
     <!-- 1 -->
     <g transform="translate(168.0609 127.43925) scale(0.12 -0.12)">
      <use xlink:href="#DejaVuSans-31"/>
     </g>
    </g>
    <g id="patch_16">
     <path d="M 193.3056 131.328 
L 236.16 131.328 
L 236.16 116.928 
L 193.3056 116.928 
z
" style="fill: #ffffff; stroke: #000000; stroke-linejoin: miter"/>
    </g>
    <g id="patch_17">
     <path d="M 236.16 131.328 
L 279.0144 131.328 
L 279.0144 116.928 
L 236.16 116.928 
z
" style="fill: #ffffff; stroke: #000000; stroke-linejoin: miter"/>
    </g>
    <g id="text_14">
     <!-- 1 -->
     <g transform="translate(253.7697 127.43925) scale(0.12 -0.12)">
      <use xlink:href="#DejaVuSans-31"/>
     </g>
    </g>
    <g id="patch_18">
     <path d="M 279.0144 131.328 
L 321.8688 131.328 
L 321.8688 116.928 
L 279.0144 116.928 
z
" style="fill: #ffffff; stroke: #000000; stroke-linejoin: miter"/>
    </g>
    <g id="patch_19">
     <path d="M 321.8688 131.328 
L 364.7232 131.328 
L 364.7232 116.928 
L 321.8688 116.928 
z
" style="fill: #ffffff; stroke: #000000; stroke-linejoin: miter"/>
    </g>
    <g id="text_15">
     <!-- 1 -->
     <g transform="translate(339.4785 127.43925) scale(0.12 -0.12)">
      <use xlink:href="#DejaVuSans-31"/>
     </g>
    </g>
    <g id="patch_20">
     <path d="M 364.7232 131.328 
L 407.5776 131.328 
L 407.5776 116.928 
L 364.7232 116.928 
z
" style="fill: #ffffff; stroke: #000000; stroke-linejoin: miter"/>
    </g>
    <g id="patch_21">
     <path d="M 407.5776 131.328 
L 450.432 131.328 
L 450.432 116.928 
L 407.5776 116.928 
z
" style="fill: #ffffff; stroke: #000000; stroke-linejoin: miter"/>
    </g>
    <g id="text_16">
     <!-- 1 -->
     <g transform="translate(425.1873 127.43925) scale(0.12 -0.12)">
      <use xlink:href="#DejaVuSans-31"/>
     </g>
    </g>
    <g id="patch_22">
     <path d="M 21.888 145.728 
L 64.7424 145.728 
L 64.7424 131.328 
L 21.888 131.328 
z
" style="fill: #add8e6; stroke: #000000; stroke-linejoin: miter"/>
    </g>
    <g id="text_17">
     <!-- 1/2 -->
     <g transform="translate(33.65895 141.83925) scale(0.12 -0.12)">
      <use xlink:href="#DejaVuSans-31"/>
      <use xlink:href="#DejaVuSans-2f" transform="translate(63.623047 0)"/>
      <use xlink:href="#DejaVuSans-32" transform="translate(97.314453 0)"/>
     </g>
    </g>
    <g id="patch_23">
     <path d="M 64.7424 145.728 
L 107.5968 145.728 
L 107.5968 131.328 
L 64.7424 131.328 
z
" style="fill: #ffffff; stroke: #000000; stroke-linejoin: miter"/>
    </g>
    <g id="patch_24">
     <path d="M 107.5968 145.728 
L 150.4512 145.728 
L 150.4512 131.328 
L 107.5968 131.328 
z
" style="fill: #ffffff; stroke: #000000; stroke-linejoin: miter"/>
    </g>
    <g id="patch_25">
     <path d="M 150.4512 145.728 
L 193.3056 145.728 
L 193.3056 131.328 
L 150.4512 131.328 
z
" style="fill: #ffffff; stroke: #000000; stroke-linejoin: miter"/>
    </g>
    <g id="patch_26">
     <path d="M 193.3056 145.728 
L 236.16 145.728 
L 236.16 131.328 
L 193.3056 131.328 
z
" style="fill: #ffffff; stroke: #000000; stroke-linejoin: miter"/>
    </g>
    <g id="patch_27">
     <path d="M 236.16 145.728 
L 279.0144 145.728 
L 279.0144 131.328 
L 236.16 131.328 
z
" style="fill: #ffffff; stroke: #000000; stroke-linejoin: miter"/>
    </g>
    <g id="patch_28">
     <path d="M 279.0144 145.728 
L 321.8688 145.728 
L 321.8688 131.328 
L 279.0144 131.328 
z
" style="fill: #ffffff; stroke: #000000; stroke-linejoin: miter"/>
    </g>
    <g id="patch_29">
     <path d="M 321.8688 145.728 
L 364.7232 145.728 
L 364.7232 131.328 
L 321.8688 131.328 
z
" style="fill: #ffffff; stroke: #000000; stroke-linejoin: miter"/>
    </g>
    <g id="patch_30">
     <path d="M 364.7232 145.728 
L 407.5776 145.728 
L 407.5776 131.328 
L 364.7232 131.328 
z
" style="fill: #ffffff; stroke: #000000; stroke-linejoin: miter"/>
    </g>
    <g id="patch_31">
     <path d="M 407.5776 145.728 
L 450.432 145.728 
L 450.432 131.328 
L 407.5776 131.328 
z
" style="fill: #ffffff; stroke: #000000; stroke-linejoin: miter"/>
    </g>
    <g id="patch_32">
     <path d="M 21.888 160.128 
L 64.7424 160.128 
L 64.7424 145.728 
L 21.888 145.728 
z
" style="fill: #add8e6; stroke: #000000; stroke-linejoin: miter"/>
    </g>
    <g id="text_18">
     <!-- 1 -->
     <g transform="translate(39.4977 156.23925) scale(0.12 -0.12)">
      <use xlink:href="#DejaVuSans-31"/>
     </g>
    </g>
    <g id="patch_33">
     <path d="M 64.7424 160.128 
L 107.5968 160.128 
L 107.5968 145.728 
L 64.7424 145.728 
z
" style="fill: #ffffff; stroke: #000000; stroke-linejoin: miter"/>
    </g>
    <g id="text_19">
     <!-- 1 -->
     <g transform="translate(82.3521 156.23925) scale(0.12 -0.12)">
      <use xlink:href="#DejaVuSans-31"/>
     </g>
    </g>
    <g id="patch_34">
     <path d="M 107.5968 160.128 
L 150.4512 160.128 
L 150.4512 145.728 
L 107.5968 145.728 
z
" style="fill: #ffffff; stroke: #000000; stroke-linejoin: miter"/>
    </g>
    <g id="patch_35">
     <path d="M 150.4512 160.128 
L 193.3056 160.128 
L 193.3056 145.728 
L 150.4512 145.728 
z
" style="fill: #ffffff; stroke: #000000; stroke-linejoin: miter"/>
    </g>
    <g id="text_20">
     <!-- 2 -->
     <g transform="translate(168.0609 156.23925) scale(0.12 -0.12)">
      <use xlink:href="#DejaVuSans-32"/>
     </g>
    </g>
    <g id="patch_36">
     <path d="M 193.3056 160.128 
L 236.16 160.128 
L 236.16 145.728 
L 193.3056 145.728 
z
" style="fill: #ffffff; stroke: #000000; stroke-linejoin: miter"/>
    </g>
    <g id="patch_37">
     <path d="M 236.16 160.128 
L 279.0144 160.128 
L 279.0144 145.728 
L 236.16 145.728 
z
" style="fill: #ffffff; stroke: #000000; stroke-linejoin: miter"/>
    </g>
    <g id="text_21">
     <!-- 3 -->
     <g transform="translate(253.7697 156.23925) scale(0.12 -0.12)">
      <use xlink:href="#DejaVuSans-33"/>
     </g>
    </g>
    <g id="patch_38">
     <path d="M 279.0144 160.128 
L 321.8688 160.128 
L 321.8688 145.728 
L 279.0144 145.728 
z
" style="fill: #ffffff; stroke: #000000; stroke-linejoin: miter"/>
    </g>
    <g id="patch_39">
     <path d="M 321.8688 160.128 
L 364.7232 160.128 
L 364.7232 145.728 
L 321.8688 145.728 
z
" style="fill: #ffffff; stroke: #000000; stroke-linejoin: miter"/>
    </g>
    <g id="text_22">
     <!-- 4 -->
     <g transform="translate(339.4785 156.23925) scale(0.12 -0.12)">
      <use xlink:href="#DejaVuSans-34"/>
     </g>
    </g>
    <g id="patch_40">
     <path d="M 364.7232 160.128 
L 407.5776 160.128 
L 407.5776 145.728 
L 364.7232 145.728 
z
" style="fill: #ffffff; stroke: #000000; stroke-linejoin: miter"/>
    </g>
    <g id="patch_41">
     <path d="M 407.5776 160.128 
L 450.432 160.128 
L 450.432 145.728 
L 407.5776 145.728 
z
" style="fill: #ffffff; stroke: #000000; stroke-linejoin: miter"/>
    </g>
    <g id="text_23">
     <!-- 5 -->
     <g transform="translate(425.1873 156.23925) scale(0.12 -0.12)">
      <use xlink:href="#DejaVuSans-35"/>
     </g>
    </g>
    <g id="patch_42">
     <path d="M 21.888 174.528 
L 64.7424 174.528 
L 64.7424 160.128 
L 21.888 160.128 
z
" style="fill: #add8e6; stroke: #000000; stroke-linejoin: miter"/>
    </g>
    <g id="text_24">
     <!-- 3/2 -->
     <g transform="translate(33.65895 170.63925) scale(0.12 -0.12)">
      <use xlink:href="#DejaVuSans-33"/>
      <use xlink:href="#DejaVuSans-2f" transform="translate(63.623047 0)"/>
      <use xlink:href="#DejaVuSans-32" transform="translate(97.314453 0)"/>
     </g>
    </g>
    <g id="patch_43">
     <path d="M 64.7424 174.528 
L 107.5968 174.528 
L 107.5968 160.128 
L 64.7424 160.128 
z
" style="fill: #ffffff; stroke: #000000; stroke-linejoin: miter"/>
    </g>
    <g id="patch_44">
     <path d="M 107.5968 174.528 
L 150.4512 174.528 
L 150.4512 160.128 
L 107.5968 160.128 
z
" style="fill: #ffffff; stroke: #000000; stroke-linejoin: miter"/>
    </g>
    <g id="patch_45">
     <path d="M 150.4512 174.528 
L 193.3056 174.528 
L 193.3056 160.128 
L 150.4512 160.128 
z
" style="fill: #ffffff; stroke: #000000; stroke-linejoin: miter"/>
    </g>
    <g id="patch_46">
     <path d="M 193.3056 174.528 
L 236.16 174.528 
L 236.16 160.128 
L 193.3056 160.128 
z
" style="fill: #ffffff; stroke: #000000; stroke-linejoin: miter"/>
    </g>
    <g id="patch_47">
     <path d="M 236.16 174.528 
L 279.0144 174.528 
L 279.0144 160.128 
L 236.16 160.128 
z
" style="fill: #ffffff; stroke: #000000; stroke-linejoin: miter"/>
    </g>
    <g id="patch_48">
     <path d="M 279.0144 174.528 
L 321.8688 174.528 
L 321.8688 160.128 
L 279.0144 160.128 
z
" style="fill: #ffffff; stroke: #000000; stroke-linejoin: miter"/>
    </g>
    <g id="patch_49">
     <path d="M 321.8688 174.528 
L 364.7232 174.528 
L 364.7232 160.128 
L 321.8688 160.128 
z
" style="fill: #ffffff; stroke: #000000; stroke-linejoin: miter"/>
    </g>
    <g id="patch_50">
     <path d="M 364.7232 174.528 
L 407.5776 174.528 
L 407.5776 160.128 
L 364.7232 160.128 
z
" style="fill: #ffffff; stroke: #000000; stroke-linejoin: miter"/>
    </g>
    <g id="patch_51">
     <path d="M 407.5776 174.528 
L 450.432 174.528 
L 450.432 160.128 
L 407.5776 160.128 
z
" style="fill: #ffffff; stroke: #000000; stroke-linejoin: miter"/>
    </g>
    <g id="patch_52">
     <path d="M 21.888 188.928 
L 64.7424 188.928 
L 64.7424 174.528 
L 21.888 174.528 
z
" style="fill: #add8e6; stroke: #000000; stroke-linejoin: miter"/>
    </g>
    <g id="text_25">
     <!-- 2 -->
     <g transform="translate(39.4977 185.03925) scale(0.12 -0.12)">
      <use xlink:href="#DejaVuSans-32"/>
     </g>
    </g>
    <g id="patch_53">
     <path d="M 64.7424 188.928 
L 107.5968 188.928 
L 107.5968 174.528 
L 64.7424 174.528 
z
" style="fill: #ffffff; stroke: #000000; stroke-linejoin: miter"/>
    </g>
    <g id="text_26">
     <!-- 1 -->
     <g transform="translate(82.3521 185.03925) scale(0.12 -0.12)">
      <use xlink:href="#DejaVuSans-31"/>
     </g>
    </g>
    <g id="patch_54">
     <path d="M 107.5968 188.928 
L 150.4512 188.928 
L 150.4512 174.528 
L 107.5968 174.528 
z
" style="fill: #ffffff; stroke: #000000; stroke-linejoin: miter"/>
    </g>
    <g id="patch_55">
     <path d="M 150.4512 188.928 
L 193.3056 188.928 
L 193.3056 174.528 
L 150.4512 174.528 
z
" style="fill: #ffffff; stroke: #000000; stroke-linejoin: miter"/>
    </g>
    <g id="text_27">
     <!-- 3 -->
     <g transform="translate(168.0609 185.03925) scale(0.12 -0.12)">
      <use xlink:href="#DejaVuSans-33"/>
     </g>
    </g>
    <g id="patch_56">
     <path d="M 193.3056 188.928 
L 236.16 188.928 
L 236.16 174.528 
L 193.3056 174.528 
z
" style="fill: #ffffff; stroke: #000000; stroke-linejoin: miter"/>
    </g>
    <g id="patch_57">
     <path d="M 236.16 188.928 
L 279.0144 188.928 
L 279.0144 174.528 
L 236.16 174.528 
z
" style="fill: #ffffff; stroke: #000000; stroke-linejoin: miter"/>
    </g>
    <g id="text_28">
     <!-- 6 -->
     <g transform="translate(253.7697 185.03925) scale(0.12 -0.12)">
      <defs>
       <path id="DejaVuSans-36" d="M 2113 2584 
Q 1688 2584 1439 2293 
Q 1191 2003 1191 1497 
Q 1191 994 1439 701 
Q 1688 409 2113 409 
Q 2538 409 2786 701 
Q 3034 994 3034 1497 
Q 3034 2003 2786 2293 
Q 2538 2584 2113 2584 
z
M 3366 4563 
L 3366 3988 
Q 3128 4100 2886 4159 
Q 2644 4219 2406 4219 
Q 1781 4219 1451 3797 
Q 1122 3375 1075 2522 
Q 1259 2794 1537 2939 
Q 1816 3084 2150 3084 
Q 2853 3084 3261 2657 
Q 3669 2231 3669 1497 
Q 3669 778 3244 343 
Q 2819 -91 2113 -91 
Q 1303 -91 875 529 
Q 447 1150 447 2328 
Q 447 3434 972 4092 
Q 1497 4750 2381 4750 
Q 2619 4750 2861 4703 
Q 3103 4656 3366 4563 
z
" transform="scale(0.015625)"/>
      </defs>
      <use xlink:href="#DejaVuSans-36"/>
     </g>
    </g>
    <g id="patch_58">
     <path d="M 279.0144 188.928 
L 321.8688 188.928 
L 321.8688 174.528 
L 279.0144 174.528 
z
" style="fill: #ffffff; stroke: #000000; stroke-linejoin: miter"/>
    </g>
    <g id="patch_59">
     <path d="M 321.8688 188.928 
L 364.7232 188.928 
L 364.7232 174.528 
L 321.8688 174.528 
z
" style="fill: #ffffff; stroke: #000000; stroke-linejoin: miter"/>
    </g>
    <g id="text_29">
     <!-- 10 -->
     <g transform="translate(335.661 185.03925) scale(0.12 -0.12)">
      <use xlink:href="#DejaVuSans-31"/>
      <use xlink:href="#DejaVuSans-30" transform="translate(63.623047 0)"/>
     </g>
    </g>
    <g id="patch_60">
     <path d="M 364.7232 188.928 
L 407.5776 188.928 
L 407.5776 174.528 
L 364.7232 174.528 
z
" style="fill: #ffffff; stroke: #000000; stroke-linejoin: miter"/>
    </g>
    <g id="patch_61">
     <path d="M 407.5776 188.928 
L 450.432 188.928 
L 450.432 174.528 
L 407.5776 174.528 
z
" style="fill: #ffffff; stroke: #000000; stroke-linejoin: miter"/>
    </g>
    <g id="text_30">
     <!-- 15 -->
     <g transform="translate(421.3698 185.03925) scale(0.12 -0.12)">
      <use xlink:href="#DejaVuSans-31"/>
      <use xlink:href="#DejaVuSans-35" transform="translate(63.623047 0)"/>
     </g>
    </g>
    <g id="patch_62">
     <path d="M 21.888 203.328 
L 64.7424 203.328 
L 64.7424 188.928 
L 21.888 188.928 
z
" style="fill: #add8e6; stroke: #000000; stroke-linejoin: miter"/>
    </g>
    <g id="text_31">
     <!-- 5/2 -->
     <g transform="translate(33.65895 199.43925) scale(0.12 -0.12)">
      <use xlink:href="#DejaVuSans-35"/>
      <use xlink:href="#DejaVuSans-2f" transform="translate(63.623047 0)"/>
      <use xlink:href="#DejaVuSans-32" transform="translate(97.314453 0)"/>
     </g>
    </g>
    <g id="patch_63">
     <path d="M 64.7424 203.328 
L 107.5968 203.328 
L 107.5968 188.928 
L 64.7424 188.928 
z
" style="fill: #ffffff; stroke: #000000; stroke-linejoin: miter"/>
    </g>
    <g id="patch_64">
     <path d="M 107.5968 203.328 
L 150.4512 203.328 
L 150.4512 188.928 
L 107.5968 188.928 
z
" style="fill: #ffffff; stroke: #000000; stroke-linejoin: miter"/>
    </g>
    <g id="patch_65">
     <path d="M 150.4512 203.328 
L 193.3056 203.328 
L 193.3056 188.928 
L 150.4512 188.928 
z
" style="fill: #ffffff; stroke: #000000; stroke-linejoin: miter"/>
    </g>
    <g id="patch_66">
     <path d="M 193.3056 203.328 
L 236.16 203.328 
L 236.16 188.928 
L 193.3056 188.928 
z
" style="fill: #ffffff; stroke: #000000; stroke-linejoin: miter"/>
    </g>
    <g id="patch_67">
     <path d="M 236.16 203.328 
L 279.0144 203.328 
L 279.0144 188.928 
L 236.16 188.928 
z
" style="fill: #ffffff; stroke: #000000; stroke-linejoin: miter"/>
    </g>
    <g id="patch_68">
     <path d="M 279.0144 203.328 
L 321.8688 203.328 
L 321.8688 188.928 
L 279.0144 188.928 
z
" style="fill: #ffffff; stroke: #000000; stroke-linejoin: miter"/>
    </g>
    <g id="patch_69">
     <path d="M 321.8688 203.328 
L 364.7232 203.328 
L 364.7232 188.928 
L 321.8688 188.928 
z
" style="fill: #ffffff; stroke: #000000; stroke-linejoin: miter"/>
    </g>
    <g id="patch_70">
     <path d="M 364.7232 203.328 
L 407.5776 203.328 
L 407.5776 188.928 
L 364.7232 188.928 
z
" style="fill: #ffffff; stroke: #000000; stroke-linejoin: miter"/>
    </g>
    <g id="patch_71">
     <path d="M 407.5776 203.328 
L 450.432 203.328 
L 450.432 188.928 
L 407.5776 188.928 
z
" style="fill: #ffffff; stroke: #000000; stroke-linejoin: miter"/>
    </g>
    <g id="patch_72">
     <path d="M 21.888 217.728 
L 64.7424 217.728 
L 64.7424 203.328 
L 21.888 203.328 
z
" style="fill: #add8e6; stroke: #000000; stroke-linejoin: miter"/>
    </g>
    <g id="text_32">
     <!-- 3 -->
     <g transform="translate(39.4977 213.83925) scale(0.12 -0.12)">
      <use xlink:href="#DejaVuSans-33"/>
     </g>
    </g>
    <g id="patch_73">
     <path d="M 64.7424 217.728 
L 107.5968 217.728 
L 107.5968 203.328 
L 64.7424 203.328 
z
" style="fill: #ffffff; stroke: #000000; stroke-linejoin: miter"/>
    </g>
    <g id="text_33">
     <!-- 1 -->
     <g transform="translate(82.3521 213.83925) scale(0.12 -0.12)">
      <use xlink:href="#DejaVuSans-31"/>
     </g>
    </g>
    <g id="patch_74">
     <path d="M 107.5968 217.728 
L 150.4512 217.728 
L 150.4512 203.328 
L 107.5968 203.328 
z
" style="fill: #ffffff; stroke: #000000; stroke-linejoin: miter"/>
    </g>
    <g id="patch_75">
     <path d="M 150.4512 217.728 
L 193.3056 217.728 
L 193.3056 203.328 
L 150.4512 203.328 
z
" style="fill: #ffffff; stroke: #000000; stroke-linejoin: miter"/>
    </g>
    <g id="text_34">
     <!-- 4 -->
     <g transform="translate(168.0609 213.83925) scale(0.12 -0.12)">
      <use xlink:href="#DejaVuSans-34"/>
     </g>
    </g>
    <g id="patch_76">
     <path d="M 193.3056 217.728 
L 236.16 217.728 
L 236.16 203.328 
L 193.3056 203.328 
z
" style="fill: #ffffff; stroke: #000000; stroke-linejoin: miter"/>
    </g>
    <g id="patch_77">
     <path d="M 236.16 217.728 
L 279.0144 217.728 
L 279.0144 203.328 
L 236.16 203.328 
z
" style="fill: #ffffff; stroke: #000000; stroke-linejoin: miter"/>
    </g>
    <g id="text_35">
     <!-- 10 -->
     <g transform="translate(249.9522 213.83925) scale(0.12 -0.12)">
      <use xlink:href="#DejaVuSans-31"/>
      <use xlink:href="#DejaVuSans-30" transform="translate(63.623047 0)"/>
     </g>
    </g>
    <g id="patch_78">
     <path d="M 279.0144 217.728 
L 321.8688 217.728 
L 321.8688 203.328 
L 279.0144 203.328 
z
" style="fill: #ffffff; stroke: #000000; stroke-linejoin: miter"/>
    </g>
    <g id="patch_79">
     <path d="M 321.8688 217.728 
L 364.7232 217.728 
L 364.7232 203.328 
L 321.8688 203.328 
z
" style="fill: #ffffff; stroke: #000000; stroke-linejoin: miter"/>
    </g>
    <g id="text_36">
     <!-- 20 -->
     <g transform="translate(335.661 213.83925) scale(0.12 -0.12)">
      <use xlink:href="#DejaVuSans-32"/>
      <use xlink:href="#DejaVuSans-30" transform="translate(63.623047 0)"/>
     </g>
    </g>
    <g id="patch_80">
     <path d="M 364.7232 217.728 
L 407.5776 217.728 
L 407.5776 203.328 
L 364.7232 203.328 
z
" style="fill: #ffffff; stroke: #000000; stroke-linejoin: miter"/>
    </g>
    <g id="patch_81">
     <path d="M 407.5776 217.728 
L 450.432 217.728 
L 450.432 203.328 
L 407.5776 203.328 
z
" style="fill: #ffffff; stroke: #000000; stroke-linejoin: miter"/>
    </g>
    <g id="text_37">
     <!-- 35 -->
     <g transform="translate(421.3698 213.83925) scale(0.12 -0.12)">
      <use xlink:href="#DejaVuSans-33"/>
      <use xlink:href="#DejaVuSans-35" transform="translate(63.623047 0)"/>
     </g>
    </g>
    <g id="patch_82">
     <path d="M 21.888 232.128 
L 64.7424 232.128 
L 64.7424 217.728 
L 21.888 217.728 
z
" style="fill: #add8e6; stroke: #000000; stroke-linejoin: miter"/>
    </g>
    <g id="text_38">
     <!-- 7/2 -->
     <g transform="translate(33.65895 228.23925) scale(0.12 -0.12)">
      <use xlink:href="#DejaVuSans-37"/>
      <use xlink:href="#DejaVuSans-2f" transform="translate(63.623047 0)"/>
      <use xlink:href="#DejaVuSans-32" transform="translate(97.314453 0)"/>
     </g>
    </g>
    <g id="patch_83">
     <path d="M 64.7424 232.128 
L 107.5968 232.128 
L 107.5968 217.728 
L 64.7424 217.728 
z
" style="fill: #ffffff; stroke: #000000; stroke-linejoin: miter"/>
    </g>
    <g id="patch_84">
     <path d="M 107.5968 232.128 
L 150.4512 232.128 
L 150.4512 217.728 
L 107.5968 217.728 
z
" style="fill: #ffffff; stroke: #000000; stroke-linejoin: miter"/>
    </g>
    <g id="patch_85">
     <path d="M 150.4512 232.128 
L 193.3056 232.128 
L 193.3056 217.728 
L 150.4512 217.728 
z
" style="fill: #ffffff; stroke: #000000; stroke-linejoin: miter"/>
    </g>
    <g id="patch_86">
     <path d="M 193.3056 232.128 
L 236.16 232.128 
L 236.16 217.728 
L 193.3056 217.728 
z
" style="fill: #ffffff; stroke: #000000; stroke-linejoin: miter"/>
    </g>
    <g id="patch_87">
     <path d="M 236.16 232.128 
L 279.0144 232.128 
L 279.0144 217.728 
L 236.16 217.728 
z
" style="fill: #ffffff; stroke: #000000; stroke-linejoin: miter"/>
    </g>
    <g id="patch_88">
     <path d="M 279.0144 232.128 
L 321.8688 232.128 
L 321.8688 217.728 
L 279.0144 217.728 
z
" style="fill: #ffffff; stroke: #000000; stroke-linejoin: miter"/>
    </g>
    <g id="patch_89">
     <path d="M 321.8688 232.128 
L 364.7232 232.128 
L 364.7232 217.728 
L 321.8688 217.728 
z
" style="fill: #ffffff; stroke: #000000; stroke-linejoin: miter"/>
    </g>
    <g id="patch_90">
     <path d="M 364.7232 232.128 
L 407.5776 232.128 
L 407.5776 217.728 
L 364.7232 217.728 
z
" style="fill: #ffffff; stroke: #000000; stroke-linejoin: miter"/>
    </g>
    <g id="patch_91">
     <path d="M 407.5776 232.128 
L 450.432 232.128 
L 450.432 217.728 
L 407.5776 217.728 
z
" style="fill: #ffffff; stroke: #000000; stroke-linejoin: miter"/>
    </g>
    <g id="patch_92">
     <path d="M 21.888 246.528 
L 64.7424 246.528 
L 64.7424 232.128 
L 21.888 232.128 
z
" style="fill: #add8e6; stroke: #000000; stroke-linejoin: miter"/>
    </g>
    <g id="text_39">
     <!-- 4 -->
     <g transform="translate(39.4977 242.63925) scale(0.12 -0.12)">
      <use xlink:href="#DejaVuSans-34"/>
     </g>
    </g>
    <g id="patch_93">
     <path d="M 64.7424 246.528 
L 107.5968 246.528 
L 107.5968 232.128 
L 64.7424 232.128 
z
" style="fill: #ffffff; stroke: #000000; stroke-linejoin: miter"/>
    </g>
    <g id="text_40">
     <!-- 1 -->
     <g transform="translate(82.3521 242.63925) scale(0.12 -0.12)">
      <use xlink:href="#DejaVuSans-31"/>
     </g>
    </g>
    <g id="patch_94">
     <path d="M 107.5968 246.528 
L 150.4512 246.528 
L 150.4512 232.128 
L 107.5968 232.128 
z
" style="fill: #ffffff; stroke: #000000; stroke-linejoin: miter"/>
    </g>
    <g id="patch_95">
     <path d="M 150.4512 246.528 
L 193.3056 246.528 
L 193.3056 232.128 
L 150.4512 232.128 
z
" style="fill: #ffffff; stroke: #000000; stroke-linejoin: miter"/>
    </g>
    <g id="text_41">
     <!-- 5 -->
     <g transform="translate(168.0609 242.63925) scale(0.12 -0.12)">
      <use xlink:href="#DejaVuSans-35"/>
     </g>
    </g>
    <g id="patch_96">
     <path d="M 193.3056 246.528 
L 236.16 246.528 
L 236.16 232.128 
L 193.3056 232.128 
z
" style="fill: #ffffff; stroke: #000000; stroke-linejoin: miter"/>
    </g>
    <g id="patch_97">
     <path d="M 236.16 246.528 
L 279.0144 246.528 
L 279.0144 232.128 
L 236.16 232.128 
z
" style="fill: #ffffff; stroke: #000000; stroke-linejoin: miter"/>
    </g>
    <g id="text_42">
     <!-- 15 -->
     <g transform="translate(249.9522 242.63925) scale(0.12 -0.12)">
      <use xlink:href="#DejaVuSans-31"/>
      <use xlink:href="#DejaVuSans-35" transform="translate(63.623047 0)"/>
     </g>
    </g>
    <g id="patch_98">
     <path d="M 279.0144 246.528 
L 321.8688 246.528 
L 321.8688 232.128 
L 279.0144 232.128 
z
" style="fill: #ffffff; stroke: #000000; stroke-linejoin: miter"/>
    </g>
    <g id="patch_99">
     <path d="M 321.8688 246.528 
L 364.7232 246.528 
L 364.7232 232.128 
L 321.8688 232.128 
z
" style="fill: #ffffff; stroke: #000000; stroke-linejoin: miter"/>
    </g>
    <g id="text_43">
     <!-- 35 -->
     <g transform="translate(335.661 242.63925) scale(0.12 -0.12)">
      <use xlink:href="#DejaVuSans-33"/>
      <use xlink:href="#DejaVuSans-35" transform="translate(63.623047 0)"/>
     </g>
    </g>
    <g id="patch_100">
     <path d="M 364.7232 246.528 
L 407.5776 246.528 
L 407.5776 232.128 
L 364.7232 232.128 
z
" style="fill: #ffffff; stroke: #000000; stroke-linejoin: miter"/>
    </g>
    <g id="patch_101">
     <path d="M 407.5776 246.528 
L 450.432 246.528 
L 450.432 232.128 
L 407.5776 232.128 
z
" style="fill: #ffffff; stroke: #000000; stroke-linejoin: miter"/>
    </g>
    <g id="text_44">
     <!-- 70 -->
     <g transform="translate(421.3698 242.63925) scale(0.12 -0.12)">
      <use xlink:href="#DejaVuSans-37"/>
      <use xlink:href="#DejaVuSans-30" transform="translate(63.623047 0)"/>
     </g>
    </g>
   </g>
  </g>
 </g>
</svg>
