<?xml version="1.0" encoding="utf-8" standalone="no"?>
<!DOCTYPE svg PUBLIC "-//W3C//DTD SVG 1.1//EN"
  "http://www.w3.org/Graphics/SVG/1.1/DTD/svg11.dtd">
<svg xmlns:xlink="http://www.w3.org/1999/xlink" width="460.8pt" height="345.6pt" viewBox="0 0 460.8 345.6" xmlns="http://www.w3.org/2000/svg" version="1.1">
 <metadata>
  <rdf:RDF xmlns:dc="http://purl.org/dc/elements/1.1/" xmlns:cc="http://creativecommons.org/ns#" xmlns:rdf="http://www.w3.org/1999/02/22-rdf-syntax-ns#">
   <cc:Work>
    <dc:type rdf:resource="http://purl.org/dc/dcmitype/StillImage"/>
    <dc:date>2025-01-04T12:11:36.145223</dc:date>
    <dc:format>image/svg+xml</dc:format>
    <dc:creator>
     <cc:Agent>
      <dc:title>Matplotlib v3.10.0, https://matplotlib.org/</dc:title>
     </cc:Agent>
    </dc:creator>
   </cc:Work>
  </rdf:RDF>
 </metadata>
 <defs>
  <style type="text/css">*{stroke-linejoin: round; stroke-linecap: butt}</style>
 </defs>
 <g id="figure_1">
  <g id="patch_1">
   <path d="M 0 345.6 
L 460.8 345.6 
L 460.8 0 
L 0 0 
z
" style="fill: #ffffff"/>
  </g>
  <g id="axes_1">
   <g id="patch_2">
    <path d="M 57.6 307.584 
L 414.72 307.584 
L 414.72 41.472 
L 57.6 41.472 
z
" style="fill: #ffffff"/>
   </g>
   <g id="FillBetweenPolyCollection_1">
    <defs>
     <path id="m6f7a9b59be" d="M 57.6 -38.016 
L 57.6 -38.016 
L 58.495038 -38.017672 
L 59.390075 -38.022686 
L 60.285113 -38.031044 
L 61.18015 -38.042745 
L 62.075188 -38.057789 
L 62.970226 -38.076176 
L 63.865263 -38.097906 
L 64.760301 -38.122979 
L 65.655338 -38.151395 
L 66.550376 -38.183155 
L 67.445414 -38.218257 
L 68.340451 -38.256703 
L 69.235489 -38.298491 
L 70.130526 -38.343623 
L 71.025564 -38.392098 
L 71.920602 -38.443916 
L 72.815639 -38.499077 
L 73.710677 -38.557581 
L 74.605714 -38.619429 
L 75.500752 -38.684619 
L 76.395789 -38.753152 
L 77.290827 -38.825029 
L 78.185865 -38.900249 
L 79.080902 -38.978811 
L 79.97594 -39.060717 
L 80.870977 -39.145966 
L 81.766015 -39.234558 
L 82.661053 -39.326493 
L 83.55609 -39.421771 
L 84.451128 -39.520393 
L 85.346165 -39.622357 
L 86.241203 -39.727664 
L 87.136241 -39.836315 
L 88.031278 -39.948309 
L 88.926316 -40.063645 
L 89.821353 -40.182325 
L 90.716391 -40.304348 
L 91.611429 -40.429714 
L 92.506466 -40.558423 
L 93.401504 -40.690476 
L 94.296541 -40.825871 
L 95.191579 -40.964609 
L 96.086617 -41.106691 
L 96.981654 -41.252116 
L 97.876692 -41.400883 
L 98.771729 -41.552994 
L 99.666767 -41.708448 
L 100.561805 -41.867245 
L 101.456842 -42.029385 
L 102.35188 -42.194868 
L 103.246917 -42.363694 
L 104.141955 -42.535864 
L 105.036992 -42.711376 
L 105.93203 -42.890232 
L 106.827068 -43.072431 
L 107.722105 -43.257972 
L 108.617143 -43.446857 
L 109.51218 -43.639085 
L 110.407218 -43.834656 
L 111.302256 -44.03357 
L 112.197293 -44.235827 
L 113.092331 -44.441428 
L 113.987368 -44.650371 
L 114.882406 -44.862658 
L 115.777444 -45.078287 
L 116.672481 -45.29726 
L 117.567519 -45.519576 
L 118.462556 -45.745235 
L 119.357594 -45.974237 
L 120.252632 -46.206582 
L 121.147669 -46.44227 
L 122.042707 -46.681301 
L 122.937744 -46.923676 
L 123.832782 -47.169393 
L 124.72782 -47.418454 
L 125.622857 -47.670857 
L 126.517895 -47.926604 
L 127.412932 -48.185694 
L 128.30797 -48.448127 
L 129.203008 -48.713903 
L 130.098045 -48.983022 
L 130.993083 -49.255484 
L 131.88812 -49.531289 
L 132.783158 -49.810438 
L 133.678195 -50.092929 
L 134.573233 -50.378764 
L 135.468271 -50.667941 
L 136.363308 -50.960462 
L 137.258346 -51.256326 
L 138.153383 -51.555533 
L 139.048421 -51.858083 
L 139.943459 -52.163976 
L 140.838496 -52.473213 
L 141.733534 -52.785792 
L 142.628571 -53.101714 
L 143.523609 -53.42098 
L 144.418647 -53.743588 
L 145.313684 -54.06954 
L 146.208722 -54.398835 
L 147.103759 -54.731473 
L 147.998797 -55.067454 
L 148.893835 -55.406778 
L 149.788872 -55.749445 
L 150.68391 -56.095455 
L 151.578947 -56.444809 
L 152.473985 -56.797505 
L 153.369023 -57.153545 
L 154.26406 -57.512928 
L 155.159098 -57.875653 
L 156.054135 -58.241722 
L 156.949173 -58.611134 
L 157.844211 -58.983889 
L 158.739248 -59.359987 
L 159.634286 -59.739429 
L 160.529323 -60.122213 
L 161.424361 -60.50834 
L 162.319398 -60.897811 
L 163.214436 -61.290624 
L 164.109474 -61.686781 
L 165.004511 -62.086281 
L 165.899549 -62.489124 
L 166.794586 -62.89531 
L 167.689624 -63.304839 
L 168.584662 -63.717711 
L 169.479699 -64.133926 
L 170.374737 -64.553485 
L 171.269774 -64.976386 
L 172.164812 -65.402631 
L 173.05985 -65.832218 
L 173.954887 -66.265149 
L 174.849925 -66.701423 
L 175.744962 -67.14104 
L 176.64 -67.584 
L 177.535038 -68.030303 
L 178.430075 -68.479949 
L 179.325113 -68.932939 
L 180.22015 -69.389271 
L 181.115188 -69.848947 
L 182.010226 -70.311965 
L 182.905263 -70.778327 
L 183.800301 -71.248032 
L 184.695338 -71.72108 
L 185.590376 -72.197471 
L 186.485414 -72.677205 
L 187.380451 -73.160282 
L 188.275489 -73.646702 
L 189.170526 -74.136465 
L 190.065564 -74.629572 
L 190.960602 -75.126021 
L 191.855639 -75.625814 
L 192.750677 -76.12895 
L 193.645714 -76.635429 
L 194.540752 -77.14525 
L 195.435789 -77.658416 
L 196.330827 -78.174924 
L 197.225865 -78.694775 
L 198.120902 -79.217969 
L 199.01594 -79.744507 
L 199.910977 -80.274387 
L 200.806015 -80.807611 
L 201.701053 -81.344177 
L 202.59609 -81.884087 
L 203.491128 -82.42734 
L 204.386165 -82.973936 
L 205.281203 -83.523875 
L 206.176241 -84.077157 
L 207.071278 -84.633782 
L 207.966316 -85.193751 
L 208.861353 -85.757062 
L 209.756391 -86.323717 
L 210.651429 -86.893714 
L 211.546466 -87.467055 
L 212.441504 -88.043739 
L 213.336541 -88.623766 
L 214.231579 -89.207136 
L 215.126617 -89.793849 
L 216.021654 -90.383905 
L 216.916692 -90.977304 
L 217.811729 -91.574047 
L 218.706767 -92.174132 
L 219.601805 -92.777561 
L 220.496842 -93.384332 
L 221.39188 -93.994447 
L 222.286917 -94.607905 
L 223.181955 -95.224706 
L 224.076992 -95.84485 
L 224.97203 -96.468337 
L 225.867068 -97.095167 
L 226.762105 -97.725341 
L 227.657143 -98.358857 
L 228.55218 -98.995717 
L 229.447218 -99.635919 
L 230.342256 -100.279465 
L 231.237293 -100.926354 
L 232.132331 -101.576586 
L 233.027368 -102.230161 
L 233.922406 -102.887079 
L 234.817444 -103.54734 
L 235.712481 -104.210944 
L 236.607519 -104.877892 
L 237.502556 -105.548182 
L 238.397594 -106.221816 
L 239.292632 -106.898792 
L 240.187669 -107.579112 
L 241.082707 -108.262775 
L 241.977744 -108.949781 
L 242.872782 -109.64013 
L 243.76782 -110.333822 
L 244.662857 -111.030857 
L 245.557895 -111.731235 
L 246.452932 -112.434957 
L 247.34797 -113.142021 
L 248.243008 -113.852429 
L 249.138045 -114.56618 
L 250.033083 -115.283273 
L 250.92812 -116.00371 
L 251.823158 -116.72749 
L 252.718195 -117.454613 
L 253.613233 -118.18508 
L 254.508271 -118.918889 
L 255.403308 -119.656041 
L 256.298346 -120.396537 
L 257.193383 -121.140375 
L 258.088421 -121.887557 
L 258.983459 -122.638082 
L 259.878496 -123.391949 
L 260.773534 -124.14916 
L 261.668571 -124.909714 
L 262.563609 -125.673611 
L 263.458647 -126.440852 
L 264.353684 -127.211435 
L 265.248722 -127.985361 
L 266.143759 -128.762631 
L 267.038797 -129.543243 
L 267.933835 -130.327199 
L 268.828872 -131.114498 
L 269.72391 -131.90514 
L 270.618947 -132.699125 
L 271.513985 -133.496453 
L 272.409023 -134.297124 
L 273.30406 -135.101138 
L 274.199098 -135.908495 
L 275.094135 -136.719196 
L 275.989173 -137.533239 
L 276.884211 -138.350626 
L 277.779248 -139.171356 
L 278.674286 -139.995429 
L 279.569323 -140.822844 
L 280.464361 -141.653603 
L 281.359398 -142.487706 
L 282.254436 -143.325151 
L 283.149474 -144.165939 
L 284.044511 -145.01007 
L 284.939549 -145.857545 
L 285.834586 -146.708362 
L 286.729624 -147.562523 
L 287.624662 -148.420027 
L 288.519699 -149.280874 
L 289.414737 -150.145064 
L 290.309774 -151.012597 
L 291.204812 -151.883473 
L 292.09985 -152.757692 
L 292.994887 -153.635254 
L 293.889925 -154.51616 
L 294.784962 -155.400408 
L 295.68 -156.288 
L 296.575038 -157.178935 
L 297.470075 -158.073213 
L 298.365113 -158.970833 
L 299.26015 -159.871797 
L 300.155188 -160.776104 
L 301.050226 -161.683755 
L 301.945263 -162.594748 
L 302.840301 -163.509084 
L 303.735338 -164.426764 
L 304.630376 -165.347786 
L 305.525414 -166.272152 
L 306.420451 -167.199861 
L 307.315489 -168.130913 
L 308.210526 -169.065307 
L 309.105564 -170.003046 
L 310.000602 -170.944127 
L 310.895639 -171.888551 
L 311.790677 -172.836318 
L 312.685714 -173.787429 
L 313.580752 -174.741882 
L 314.475789 -175.699679 
L 315.370827 -176.660818 
L 316.265865 -177.625301 
L 317.160902 -178.593127 
L 318.05594 -179.564296 
L 318.950977 -180.538808 
L 319.846015 -181.516663 
L 320.741053 -182.497861 
L 321.63609 -183.482403 
L 322.531128 -184.470287 
L 323.426165 -185.461515 
L 324.321203 -186.456085 
L 325.216241 -187.453999 
L 326.111278 -188.455256 
L 327.006316 -189.459856 
L 327.901353 -190.467799 
L 328.796391 -191.479085 
L 329.691429 -192.493714 
L 330.586466 -193.511687 
L 331.481504 -194.533002 
L 332.376541 -195.55766 
L 333.271579 -196.585662 
L 334.166617 -197.617007 
L 335.061654 -198.651694 
L 335.956692 -199.689725 
L 336.851729 -200.731099 
L 337.746767 -201.775816 
L 338.641805 -202.823877 
L 339.536842 -203.87528 
L 340.43188 -204.930026 
L 341.326917 -205.988116 
L 342.221955 -207.049548 
L 343.116992 -208.114324 
L 344.01203 -209.182442 
L 344.907068 -210.253904 
L 345.802105 -211.328709 
L 346.697143 -212.406857 
L 347.59218 -213.488348 
L 348.487218 -214.573182 
L 349.382256 -215.66136 
L 350.277293 -216.75288 
L 351.172331 -217.847744 
L 352.067368 -218.94595 
L 352.962406 -220.0475 
L 353.857444 -221.152393 
L 354.752481 -222.260628 
L 355.647519 -223.372207 
L 356.542556 -224.487129 
L 357.437594 -225.605395 
L 358.332632 -226.727003 
L 359.227669 -227.851954 
L 360.122707 -228.980249 
L 361.017744 -230.111886 
L 361.912782 -231.246867 
L 362.80782 -232.38519 
L 363.702857 -233.526857 
L 364.597895 -234.671867 
L 365.492932 -235.82022 
L 366.38797 -236.971916 
L 367.283008 -238.126955 
L 368.178045 -239.285338 
L 369.073083 -240.447063 
L 369.96812 -241.612131 
L 370.863158 -242.780543 
L 371.758195 -243.952298 
L 372.653233 -245.127395 
L 373.548271 -246.305836 
L 374.443308 -247.48762 
L 375.338346 -248.672747 
L 376.233383 -249.861217 
L 377.128421 -251.05303 
L 378.023459 -252.248187 
L 378.918496 -253.446686 
L 378.918496 -38.016 
L 378.918496 -38.016 
L 378.023459 -38.016 
L 377.128421 -38.016 
L 376.233383 -38.016 
L 375.338346 -38.016 
L 374.443308 -38.016 
L 373.548271 -38.016 
L 372.653233 -38.016 
L 371.758195 -38.016 
L 370.863158 -38.016 
L 369.96812 -38.016 
L 369.073083 -38.016 
L 368.178045 -38.016 
L 367.283008 -38.016 
L 366.38797 -38.016 
L 365.492932 -38.016 
L 364.597895 -38.016 
L 363.702857 -38.016 
L 362.80782 -38.016 
L 361.912782 -38.016 
L 361.017744 -38.016 
L 360.122707 -38.016 
L 359.227669 -38.016 
L 358.332632 -38.016 
L 357.437594 -38.016 
L 356.542556 -38.016 
L 355.647519 -38.016 
L 354.752481 -38.016 
L 353.857444 -38.016 
L 352.962406 -38.016 
L 352.067368 -38.016 
L 351.172331 -38.016 
L 350.277293 -38.016 
L 349.382256 -38.016 
L 348.487218 -38.016 
L 347.59218 -38.016 
L 346.697143 -38.016 
L 345.802105 -38.016 
L 344.907068 -38.016 
L 344.01203 -38.016 
L 343.116992 -38.016 
L 342.221955 -38.016 
L 341.326917 -38.016 
L 340.43188 -38.016 
L 339.536842 -38.016 
L 338.641805 -38.016 
L 337.746767 -38.016 
L 336.851729 -38.016 
L 335.956692 -38.016 
L 335.061654 -38.016 
L 334.166617 -38.016 
L 333.271579 -38.016 
L 332.376541 -38.016 
L 331.481504 -38.016 
L 330.586466 -38.016 
L 329.691429 -38.016 
L 328.796391 -38.016 
L 327.901353 -38.016 
L 327.006316 -38.016 
L 326.111278 -38.016 
L 325.216241 -38.016 
L 324.321203 -38.016 
L 323.426165 -38.016 
L 322.531128 -38.016 
L 321.63609 -38.016 
L 320.741053 -38.016 
L 319.846015 -38.016 
L 318.950977 -38.016 
L 318.05594 -38.016 
L 317.160902 -38.016 
L 316.265865 -38.016 
L 315.370827 -38.016 
L 314.475789 -38.016 
L 313.580752 -38.016 
L 312.685714 -38.016 
L 311.790677 -38.016 
L 310.895639 -38.016 
L 310.000602 -38.016 
L 309.105564 -38.016 
L 308.210526 -38.016 
L 307.315489 -38.016 
L 306.420451 -38.016 
L 305.525414 -38.016 
L 304.630376 -38.016 
L 303.735338 -38.016 
L 302.840301 -38.016 
L 301.945263 -38.016 
L 301.050226 -38.016 
L 300.155188 -38.016 
L 299.26015 -38.016 
L 298.365113 -38.016 
L 297.470075 -38.016 
L 296.575038 -38.016 
L 295.68 -38.016 
L 294.784962 -38.016 
L 293.889925 -38.016 
L 292.994887 -38.016 
L 292.09985 -38.016 
L 291.204812 -38.016 
L 290.309774 -38.016 
L 289.414737 -38.016 
L 288.519699 -38.016 
L 287.624662 -38.016 
L 286.729624 -38.016 
L 285.834586 -38.016 
L 284.939549 -38.016 
L 284.044511 -38.016 
L 283.149474 -38.016 
L 282.254436 -38.016 
L 281.359398 -38.016 
L 280.464361 -38.016 
L 279.569323 -38.016 
L 278.674286 -38.016 
L 277.779248 -38.016 
L 276.884211 -38.016 
L 275.989173 -38.016 
L 275.094135 -38.016 
L 274.199098 -38.016 
L 273.30406 -38.016 
L 272.409023 -38.016 
L 271.513985 -38.016 
L 270.618947 -38.016 
L 269.72391 -38.016 
L 268.828872 -38.016 
L 267.933835 -38.016 
L 267.038797 -38.016 
L 266.143759 -38.016 
L 265.248722 -38.016 
L 264.353684 -38.016 
L 263.458647 -38.016 
L 262.563609 -38.016 
L 261.668571 -38.016 
L 260.773534 -38.016 
L 259.878496 -38.016 
L 258.983459 -38.016 
L 258.088421 -38.016 
L 257.193383 -38.016 
L 256.298346 -38.016 
L 255.403308 -38.016 
L 254.508271 -38.016 
L 253.613233 -38.016 
L 252.718195 -38.016 
L 251.823158 -38.016 
L 250.92812 -38.016 
L 250.033083 -38.016 
L 249.138045 -38.016 
L 248.243008 -38.016 
L 247.34797 -38.016 
L 246.452932 -38.016 
L 245.557895 -38.016 
L 244.662857 -38.016 
L 243.76782 -38.016 
L 242.872782 -38.016 
L 241.977744 -38.016 
L 241.082707 -38.016 
L 240.187669 -38.016 
L 239.292632 -38.016 
L 238.397594 -38.016 
L 237.502556 -38.016 
L 236.607519 -38.016 
L 235.712481 -38.016 
L 234.817444 -38.016 
L 233.922406 -38.016 
L 233.027368 -38.016 
L 232.132331 -38.016 
L 231.237293 -38.016 
L 230.342256 -38.016 
L 229.447218 -38.016 
L 228.55218 -38.016 
L 227.657143 -38.016 
L 226.762105 -38.016 
L 225.867068 -38.016 
L 224.97203 -38.016 
L 224.076992 -38.016 
L 223.181955 -38.016 
L 222.286917 -38.016 
L 221.39188 -38.016 
L 220.496842 -38.016 
L 219.601805 -38.016 
L 218.706767 -38.016 
L 217.811729 -38.016 
L 216.916692 -38.016 
L 216.021654 -38.016 
L 215.126617 -38.016 
L 214.231579 -38.016 
L 213.336541 -38.016 
L 212.441504 -38.016 
L 211.546466 -38.016 
L 210.651429 -38.016 
L 209.756391 -38.016 
L 208.861353 -38.016 
L 207.966316 -38.016 
L 207.071278 -38.016 
L 206.176241 -38.016 
L 205.281203 -38.016 
L 204.386165 -38.016 
L 203.491128 -38.016 
L 202.59609 -38.016 
L 201.701053 -38.016 
L 200.806015 -38.016 
L 199.910977 -38.016 
L 199.01594 -38.016 
L 198.120902 -38.016 
L 197.225865 -38.016 
L 196.330827 -38.016 
L 195.435789 -38.016 
L 194.540752 -38.016 
L 193.645714 -38.016 
L 192.750677 -38.016 
L 191.855639 -38.016 
L 190.960602 -38.016 
L 190.065564 -38.016 
L 189.170526 -38.016 
L 188.275489 -38.016 
L 187.380451 -38.016 
L 186.485414 -38.016 
L 185.590376 -38.016 
L 184.695338 -38.016 
L 183.800301 -38.016 
L 182.905263 -38.016 
L 182.010226 -38.016 
L 181.115188 -38.016 
L 180.22015 -38.016 
L 179.325113 -38.016 
L 178.430075 -38.016 
L 177.535038 -38.016 
L 176.64 -38.016 
L 175.744962 -38.016 
L 174.849925 -38.016 
L 173.954887 -38.016 
L 173.05985 -38.016 
L 172.164812 -38.016 
L 171.269774 -38.016 
L 170.374737 -38.016 
L 169.479699 -38.016 
L 168.584662 -38.016 
L 167.689624 -38.016 
L 166.794586 -38.016 
L 165.899549 -38.016 
L 165.004511 -38.016 
L 164.109474 -38.016 
L 163.214436 -38.016 
L 162.319398 -38.016 
L 161.424361 -38.016 
L 160.529323 -38.016 
L 159.634286 -38.016 
L 158.739248 -38.016 
L 157.844211 -38.016 
L 156.949173 -38.016 
L 156.054135 -38.016 
L 155.159098 -38.016 
L 154.26406 -38.016 
L 153.369023 -38.016 
L 152.473985 -38.016 
L 151.578947 -38.016 
L 150.68391 -38.016 
L 149.788872 -38.016 
L 148.893835 -38.016 
L 147.998797 -38.016 
L 147.103759 -38.016 
L 146.208722 -38.016 
L 145.313684 -38.016 
L 144.418647 -38.016 
L 143.523609 -38.016 
L 142.628571 -38.016 
L 141.733534 -38.016 
L 140.838496 -38.016 
L 139.943459 -38.016 
L 139.048421 -38.016 
L 138.153383 -38.016 
L 137.258346 -38.016 
L 136.363308 -38.016 
L 135.468271 -38.016 
L 134.573233 -38.016 
L 133.678195 -38.016 
L 132.783158 -38.016 
L 131.88812 -38.016 
L 130.993083 -38.016 
L 130.098045 -38.016 
L 129.203008 -38.016 
L 128.30797 -38.016 
L 127.412932 -38.016 
L 126.517895 -38.016 
L 125.622857 -38.016 
L 124.72782 -38.016 
L 123.832782 -38.016 
L 122.937744 -38.016 
L 122.042707 -38.016 
L 121.147669 -38.016 
L 120.252632 -38.016 
L 119.357594 -38.016 
L 118.462556 -38.016 
L 117.567519 -38.016 
L 116.672481 -38.016 
L 115.777444 -38.016 
L 114.882406 -38.016 
L 113.987368 -38.016 
L 113.092331 -38.016 
L 112.197293 -38.016 
L 111.302256 -38.016 
L 110.407218 -38.016 
L 109.51218 -38.016 
L 108.617143 -38.016 
L 107.722105 -38.016 
L 106.827068 -38.016 
L 105.93203 -38.016 
L 105.036992 -38.016 
L 104.141955 -38.016 
L 103.246917 -38.016 
L 102.35188 -38.016 
L 101.456842 -38.016 
L 100.561805 -38.016 
L 99.666767 -38.016 
L 98.771729 -38.016 
L 97.876692 -38.016 
L 96.981654 -38.016 
L 96.086617 -38.016 
L 95.191579 -38.016 
L 94.296541 -38.016 
L 93.401504 -38.016 
L 92.506466 -38.016 
L 91.611429 -38.016 
L 90.716391 -38.016 
L 89.821353 -38.016 
L 88.926316 -38.016 
L 88.031278 -38.016 
L 87.136241 -38.016 
L 86.241203 -38.016 
L 85.346165 -38.016 
L 84.451128 -38.016 
L 83.55609 -38.016 
L 82.661053 -38.016 
L 81.766015 -38.016 
L 80.870977 -38.016 
L 79.97594 -38.016 
L 79.080902 -38.016 
L 78.185865 -38.016 
L 77.290827 -38.016 
L 76.395789 -38.016 
L 75.500752 -38.016 
L 74.605714 -38.016 
L 73.710677 -38.016 
L 72.815639 -38.016 
L 71.920602 -38.016 
L 71.025564 -38.016 
L 70.130526 -38.016 
L 69.235489 -38.016 
L 68.340451 -38.016 
L 67.445414 -38.016 
L 66.550376 -38.016 
L 65.655338 -38.016 
L 64.760301 -38.016 
L 63.865263 -38.016 
L 62.970226 -38.016 
L 62.075188 -38.016 
L 61.18015 -38.016 
L 60.285113 -38.016 
L 59.390075 -38.016 
L 58.495038 -38.016 
L 57.6 -38.016 
z
" style="stroke: #87ceeb; stroke-opacity: 0.4"/>
    </defs>
    <g clip-path="url(#p5e7825a113)">
     <use xlink:href="#m6f7a9b59be" x="0" y="345.6" style="fill: #87ceeb; fill-opacity: 0.4; stroke: #87ceeb; stroke-opacity: 0.4"/>
    </g>
   </g>
   <g id="matplotlib.axis_1">
    <g id="text_1">
     <!-- x -->
     <g transform="translate(429.02475 330.007725) scale(0.12 -0.12)">
      <defs>
       <path id="DejaVuSans-78" d="M 3513 3500 
L 2247 1797 
L 3578 0 
L 2900 0 
L 1881 1375 
L 863 0 
L 184 0 
L 1544 1831 
L 300 3500 
L 978 3500 
L 1906 2253 
L 2834 3500 
L 3513 3500 
z
" transform="scale(0.015625)"/>
      </defs>
      <use xlink:href="#DejaVuSans-78"/>
     </g>
    </g>
   </g>
   <g id="matplotlib.axis_2">
    <g id="text_2">
     <!-- y -->
     <g transform="translate(36.19275 25.670775) scale(0.12 -0.12)">
      <defs>
       <path id="DejaVuSans-79" d="M 2059 -325 
Q 1816 -950 1584 -1140 
Q 1353 -1331 966 -1331 
L 506 -1331 
L 506 -850 
L 844 -850 
Q 1081 -850 1212 -737 
Q 1344 -625 1503 -206 
L 1606 56 
L 191 3500 
L 800 3500 
L 1894 763 
L 2988 3500 
L 3597 3500 
L 2059 -325 
z
" transform="scale(0.015625)"/>
      </defs>
      <use xlink:href="#DejaVuSans-79"/>
     </g>
    </g>
   </g>
   <g id="line2d_1">
    <path d="M 57.6 307.584 
L 64.760301 307.477021 
L 71.920602 307.156084 
L 79.080902 306.621189 
L 86.241203 305.872336 
L 93.401504 304.909524 
L 100.561805 303.732755 
L 107.722105 302.342028 
L 114.882406 300.737342 
L 122.042707 298.918699 
L 129.203008 296.886097 
L 136.363308 294.639538 
L 143.523609 292.17902 
L 150.68391 289.504545 
L 157.844211 286.616111 
L 165.899549 283.110876 
L 173.954887 279.334851 
L 182.010226 275.288035 
L 190.065564 270.970428 
L 198.120902 266.382031 
L 206.176241 261.522843 
L 214.231579 256.392864 
L 222.286917 250.992095 
L 230.342256 245.320535 
L 238.397594 239.378184 
L 246.452932 233.165043 
L 254.508271 226.681111 
L 262.563609 219.926389 
L 270.618947 212.900875 
L 278.674286 205.604571 
L 287.624662 197.179973 
L 296.575038 188.421065 
L 305.525414 179.327848 
L 314.475789 169.900321 
L 323.426165 160.138485 
L 332.376541 150.04234 
L 341.326917 139.611884 
L 350.277293 128.84712 
L 359.227669 117.748046 
L 368.178045 106.314662 
L 377.128421 94.54697 
L 386.973835 81.21638 
L 396.819248 67.481276 
L 406.664662 53.341657 
L 414.72 41.472 
L 414.72 41.472 
" clip-path="url(#p5e7825a113)" style="fill: none; stroke: #1f77b4; stroke-width: 1.5; stroke-linecap: square"/>
   </g>
   <g id="LineCollection_1">
    <path d="M 379.008 307.584 
L 379.008 92.03328 
" clip-path="url(#p5e7825a113)" style="fill: none; stroke-dasharray: 1.5,2.475; stroke-dashoffset: 0; stroke: #ff0000; stroke-width: 1.5"/>
   </g>
   <g id="LineCollection_2">
    <path d="M 57.6 92.03328 
L 379.008 92.03328 
" clip-path="url(#p5e7825a113)" style="fill: none; stroke-dasharray: 1.5,2.475; stroke-dashoffset: 0; stroke: #ff0000; stroke-width: 1.5"/>
   </g>
   <g id="line2d_2">
    <defs>
     <path id="m2647ca65c9" d="M 0 3 
C 0.795609 3 1.55874 2.683901 2.12132 2.12132 
C 2.683901 1.55874 3 0.795609 3 0 
C 3 -0.795609 2.683901 -1.55874 2.12132 -2.12132 
C 1.55874 -2.683901 0.795609 -3 0 -3 
C -0.795609 -3 -1.55874 -2.683901 -2.12132 -2.12132 
C -2.683901 -1.55874 -3 -0.795609 -3 0 
C -3 0.795609 -2.683901 1.55874 -2.12132 2.12132 
C -1.55874 2.683901 -0.795609 3 0 3 
z
" style="stroke: #ff0000"/>
    </defs>
    <g clip-path="url(#p5e7825a113)">
     <use xlink:href="#m2647ca65c9" x="379.008" y="92.03328" style="fill: #ff0000; stroke: #ff0000"/>
    </g>
   </g>
   <g id="patch_3">
    <path d="M 57.6 307.584 
L 57.6 41.472 
" style="fill: none; stroke: #000000; stroke-width: 0.8; stroke-linejoin: miter; stroke-linecap: square"/>
   </g>
   <g id="patch_4">
    <path d="M 414.72 307.584 
L 414.72 41.472 
" style="fill: none"/>
   </g>
   <g id="patch_5">
    <path d="M 57.6 307.584 
L 414.72 307.584 
" style="fill: none; stroke: #000000; stroke-width: 0.8; stroke-linejoin: miter; stroke-linecap: square"/>
   </g>
   <g id="patch_6">
    <path d="M 57.6 41.472 
L 414.72 41.472 
" style="fill: none"/>
   </g>
   <g id="patch_7">
    <path d="M 59.602588 307.584 
Q 236.160196 307.584 411.040754 307.584 
" style="fill: none; stroke: #000000; stroke-width: 1.5; stroke-linecap: round"/>
    <path d="M 407.040754 305.584 
L 411.040754 307.584 
L 407.040754 309.584 
" style="fill: none; stroke: #000000; stroke-width: 1.5; stroke-linecap: round"/>
   </g>
   <g id="patch_8">
    <path d="M 57.6 305.58215 
Q 57.6 174.52853 57.6 45.151962 
" style="fill: none; stroke: #000000; stroke-width: 1.5; stroke-linecap: round"/>
    <path d="M 55.6 49.151962 
L 57.6 45.151962 
L 59.6 49.151962 
" style="fill: none; stroke: #000000; stroke-width: 1.5; stroke-linecap: round"/>
   </g>
  </g>
 </g>
 <defs>
  <clipPath id="p5e7825a113">
   <rect x="57.6" y="41.472" width="357.12" height="266.112"/>
  </clipPath>
 </defs>
</svg>
